<?xml version="1.0" encoding="UTF-8" standalone="no"?>
<svg
   xmlns:dc="http://purl.org/dc/elements/1.1/"
   xmlns:cc="http://creativecommons.org/ns#"
   xmlns:rdf="http://www.w3.org/1999/02/22-rdf-syntax-ns#"
   xmlns:svg="http://www.w3.org/2000/svg"
   xmlns="http://www.w3.org/2000/svg"
   xmlns:xlink="http://www.w3.org/1999/xlink"
   xmlns:sodipodi="http://sodipodi.sourceforge.net/DTD/sodipodi-0.dtd"
   xmlns:inkscape="http://www.inkscape.org/namespaces/inkscape"
   width="1036"
   height="320"
   viewBox="0 0 1036 320"
   id="svg9708"
   version="1.1"
   inkscape:version="0.91 r13725"
   sodipodi:docname="logo (copy).svg"
   inkscape:export-filename="/home/falconi/playground/cocone-blog/avatar/dark.png"
   inkscape:export-xdpi="96"
   inkscape:export-ydpi="96">
  <sodipodi:namedview
     pagecolor="#ffffff"
     bordercolor="#333333"
     borderopacity="1"
     inkscape:pageopacity="0"
     inkscape:pageshadow="2"
     inkscape:zoom="1"
     inkscape:document-units="px"
     inkscape:current-layer="g8900"
     showgrid="false"
     inkscape:window-maximized="1"
     inkscape:showpageshadow="false"
     borderlayer="true"
     id="namedview9710"
     inkscape:cx="529.67355"
     inkscape:cy="-102.75852"
     inkscape:window-width="1920"
     inkscape:window-height="1056"
     inkscape:window-x="0"
     inkscape:window-y="24"
     showguides="false"
     inkscape:snap-global="false"
     fit-margin-top="2"
     fit-margin-left="2"
     fit-margin-right="2"
     fit-margin-bottom="2">
    <inkscape:grid
       type="xygrid"
       color="#b5357b"
       opacity="0.1254902"
       empcolor="#5d6e79"
       empopacity="0.25098039"
       enabled="true"
       empspacing="15"
       id="grid9712"
       originx="-4.7957766"
       originy="-2.4436692" />
  </sodipodi:namedview>
  <defs
     id="defs9714">
    <symbol
       id="cS">
      <path
         id="path10415"
         d="m 166.0534,153.32661 c 0.40564,-0.0988 0.80056,-0.26576 1.21694,-0.29646 2.40892,-0.17762 4.87956,0.68028 7.1652,1.28593 4.39344,1.16417 1.34083,0.38732 5.62026,1.45265 2.96875,0.58549 5.98196,1.57023 9.04755,1.30804 1.17615,-0.1006 2.15778,-0.42042 3.28099,-0.72877 3.19445,-1.31102 9.11841,-4.70368 -4.82567,2.992 -0.26326,0.14529 0.51179,-0.3226 0.73143,-0.52797 0.54104,-0.5059 0.62041,-0.8074 0.94528,-1.45455 -0.2241,-3.2426 -3.91555,-3.7391 -6.51044,-3.92399 -4.29283,-0.01 -7.98655,1.71248 -11.64513,3.74687 13.30487,-7.34997 5.63721,-3.76987 3.57694,-1.0575 -0.48799,0.64243 -0.6414,1.11374 -0.94885,1.83314 -0.30237,1.30317 -0.97579,3.1022 -0.16581,4.29785 0.88016,1.14134 2.23588,1.66606 3.45519,2.34077 1.10774,0.61296 2.18292,1.28335 3.28739,1.90218 3.72881,2.03859 6.94238,4.89629 9.68803,8.11472 2.54887,3.62731 3.34382,7.99052 3.9427,12.29016 0.6112,3.19091 -0.37551,4.20548 -2.94054,5.88572 -4.63662,2.69053 -9.55651,6.74915 -15.28432,6.30734 -1.71661,-0.14829 -3.24464,-1.0069 -4.6139,-1.99972 -1.67747,-1.43559 -3.03809,-3.18005 -4.47485,-4.8409 -0.97074,-1.21985 -2.22423,-2.10729 -3.57077,-2.86193 -1.68333,-0.77481 -3.56355,-0.853 -5.38576,-0.93158 -2.39531,-0.19659 -4.53128,0.96956 -6.5598,2.098 7.35553,-3.97351 8.70955,-5.4839 5.56044,-2.47251 0,0 -8.19788,4.73305 -8.19788,4.73305 l 0,0 c 3.98345,-3.81262 0.7708,-0.9156 10.90603,-7.03441 2.06559,-1.14967 4.25108,-2.38111 6.69318,-2.17501 1.83913,0.10073 3.74458,0.1328 5.45614,0.89095 1.35987,0.73935 2.546,1.67508 3.51471,2.89429 1.38536,1.70581 2.70741,3.47889 4.44772,4.85657 1.41838,0.91068 2.92587,1.78897 4.62882,1.9911 0.68757,0.0587 1.28472,0.14119 1.97817,0.0707 3.77244,-0.38324 10.054,-4.41114 -3.41579,3.27634 2.53647,-1.66151 3.46398,-2.8037 3.0722,-5.96173 -0.43717,-4.3515 -1.21964,-8.72146 -3.84475,-12.34671 -2.78619,-3.21092 -5.96371,-6.08153 -9.7465,-8.08097 -0.92511,-0.50472 -2.46479,-1.35719 -3.41638,-1.82771 -1.28618,-0.63596 -2.72791,-1.06774 -3.67391,-2.21449 -0.12031,-0.17349 -0.30025,-0.31825 -0.36094,-0.52046 -0.29601,-0.98612 0.44841,-2.86311 0.61742,-3.82973 0.30249,-0.66308 0.53812,-1.27481 0.99463,-1.85958 3.16249,-4.05097 9.79826,-4.93932 12.90691,-8.45946 3.66459,-2.03646 7.36359,-3.75535 11.66076,-3.75589 2.55089,0.11512 6.54566,0.52417 6.79999,3.75683 -0.45262,0.89988 -0.86315,1.49797 -1.75286,2.02648 -3.68581,2.18945 -7.65172,4.92073 -11.78539,6.5984 -1.12023,0.29482 -1.97749,0.57185 -3.15363,0.65523 -3.00333,0.2129 -5.9559,-0.76673 -8.84421,-1.42544 -1.6645,-0.43929 -3.94735,-1.04615 -5.6006,-1.46399 -2.88215,-0.72844 -5.9741,-1.64695 -8.9085,-0.68558 0,0 8.43216,-4.86831 8.43216,-4.86831 z"
         inkscape:connector-curvature="0" />
    </symbol>
    <symbol
       id="m">
      <path
         id="path11125"
         d="m 850.36827,193.96362 c 3.97514,-3.46807 7.30975,-7.54713 10.46585,-11.75095 1.44131,-2.15392 2.92926,-4.27898 4.50677,-6.33581 2.17453,-2.77692 3.63242,-2.8348 8.94835,-4.79118 0.3957,-0.14562 -0.13589,0.83226 -0.20383,1.24839 -1.34982,6.56124 -3.33076,12.97187 -5.06255,19.43771 -0.99906,3.95808 -1.93501,7.9377 -2.62754,11.96233 -0.56438,3.64929 -0.53374,1.36795 -8.71918,5.14018 -0.21374,0.0985 0.028,-0.46986 0.0377,-0.705 0.0575,-1.39321 -0.0317,-0.47487 0.17152,-1.95788 1.68957,-5.40114 4.01885,-10.60829 6.54452,-15.66564 2.787,-4.82022 4.96086,-11.0253 9.31896,-14.67126 -11.01577,12.44883 7.895,-7.75503 10.36603,-4.84887 1.73086,2.03565 -0.24629,8.92223 -0.71947,11.00366 -1.82825,7.3258 -3.7333,14.63045 -5.37865,22.00037 -1.00913,4.35817 -1.11646,3.47519 -9.01585,5.87735 -0.52297,0.15903 0.23824,-1.06752 0.38635,-1.59369 0.63366,-2.25121 0.92267,-2.74898 1.9002,-5.21757 2.61393,-6.70656 5.6998,-13.26656 9.72958,-19.24385 0.44718,-0.60122 0.84613,-1.24151 1.34153,-1.80365 0.54202,-0.61503 1.6766,-1.57744 2.4577,-1.98168 3.25603,-1.68509 8.67221,-7.17193 10.29072,-3.8823 0.29427,0.59812 0.31611,1.29516 0.47416,1.94273 0.0389,0.95411 0.14855,1.90795 0.11684,2.86233 -0.21316,6.41527 -1.50924,12.84328 -2.39593,19.18851 -0.39008,2.9729 -0.78495,5.94985 -0.99004,8.94265 -0.0253,0.1757 -0.0131,0.35602 -0.01,0.53119 0,0 -8.65417,4.99648 -8.65417,4.99648 l 0,0 c 0.0535,-0.19969 0.0955,-0.40247 0.13757,-0.60494 0.64105,-3.11463 1.19621,-6.24638 1.74471,-9.37836 1.25697,-7.16992 2.83627,-14.54628 1.90669,-21.83582 -0.22522,-0.6088 -0.33951,-1.27109 -0.67567,-1.82639 -0.20826,-0.34403 -1.20827,-0.52309 -0.90968,-0.79248 2.16889,-1.9568 4.8353,-3.2791 7.24796,-4.92598 0.41361,-0.28234 -0.85714,0.52266 -1.25075,0.83228 -1.59282,1.25292 -1.59128,1.47741 -2.92076,3.16798 -4.16436,5.93765 -7.45562,12.46547 -9.84978,19.31326 -0.35905,1.15665 -1.16123,3.57461 -1.44039,4.95209 -0.0988,0.48754 0.19148,1.16076 -0.18983,1.48023 -11.6997,9.80228 -9.08112,7.90239 -7.52396,3.67191 2.22501,-7.3519 4.37137,-14.74965 5.87439,-22.28658 0.47111,-2.61663 0.9589,-4.44173 0.89339,-7.06381 -0.0215,-0.86155 -0.27497,-2.71202 -0.98405,-3.47212 -0.2151,-0.23058 -1.14618,-0.11614 -0.89492,-0.30669 2.24158,-1.69996 4.78,-2.96812 7.16999,-4.45219 -4.73281,3.81167 -7.02376,9.79809 -9.8774,14.99368 -2.31917,4.91454 -4.62925,9.93022 -5.83109,15.25374 -0.11584,1.09641 -0.13873,0.86319 -0.0776,1.90367 0.0127,0.21671 0.23847,0.52458 0.0602,0.64847 -16.69288,11.60149 -9.25141,7.92613 -8.31608,4.69513 1.19952,-4.1409 2.35108,-8.29559 3.48205,-12.45568 1.71196,-6.26054 3.56175,-12.54628 4.31928,-19.00858 0.0166,-0.3865 -0.25511,-0.92152 0.0499,-1.15951 14.7672,-11.52274 10.45498,-7.67747 8.07412,-5.03675 -1.81593,2.12195 -3.47952,4.37023 -5.07285,6.66263 -3.09757,4.01383 -6.26668,7.97516 -9.96552,11.46209 0,0 -8.45963,4.88417 -8.45963,4.88417 z"
         inkscape:connector-curvature="0" />
    </symbol>
    <symbol
       id="u">
      <path
         id="path11243"
         d="m 756.35115,260.00304 c -2.05376,1.13788 -3.9649,2.58382 -6.16128,3.41365 -1.00773,0.38073 1.69023,-1.33679 2.511,-2.03451 2.44372,-2.07739 4.73141,-4.33313 6.97403,-6.62301 3.38773,-3.736 0.37243,-1.59311 9.63692,-6.35437 0.27393,-0.14078 -0.36533,0.49598 -0.54246,0.74793 -0.23873,0.33959 -0.47001,0.68435 -0.70502,1.02652 -3.05018,5.66404 -5.21213,11.76702 -7.13027,17.89173 -0.18976,1.29057 -3.09672,8.71211 -1.47655,9.5164 0.19164,0.0951 0.42745,0.0198 0.64118,0.0296 0.397,-0.17711 0.80047,-0.34037 1.191,-0.53133 0.51956,-0.25405 2.04258,-1.0857 1.538,-0.80306 -2.0209,1.13199 -3.91754,2.54089 -6.08744,3.35141 -0.94006,0.35114 1.57317,-1.25006 2.30368,-1.93808 2.22134,-2.09209 3.22523,-3.40083 5.2105,-5.72899 3.3292,-4.24383 6.25668,-8.80802 8.51305,-13.71039 0.35923,-0.9216 0.83464,-1.8307 0.99643,-2.81588 -0.13346,-0.18192 0.15515,-0.61695 0.23448,-0.81532 0.23099,-0.63089 0.43606,-1.27116 0.62054,-1.91712 0.0244,-0.0747 0.04,-0.15227 0.0582,-0.22829 2.8148,-1.40867 5.48268,-3.16034 8.4444,-4.22601 0.40552,-0.14591 -0.14304,0.85028 -0.23358,1.27163 -0.17119,0.79671 -0.36788,1.58773 -0.55143,2.38169 -0.78471,3.39441 -1.56477,6.78041 -2.25928,10.19479 -0.69743,4.35134 -1.76892,8.73995 -1.30184,13.17032 0.1464,1.81648 0.60426,2.18537 2.28362,1.39834 -14.83071,9.11469 -4.86032,2.54626 -1.83829,-0.38108 0.53071,-0.5524 1.07381,-1.10585 1.48582,-1.75506 0.0267,-0.0167 0.0146,-0.0441 0.0219,-0.0662 0,0 8.65382,-4.99628 8.65382,-4.99628 l 0,0 c -0.0142,0.0261 -0.0159,0.0585 -0.0427,0.0782 -0.50017,0.70252 -1.15013,1.28736 -1.74534,1.9049 -4.42755,4.15172 -9.61134,7.26418 -14.98063,10.09147 -1.75403,0.83878 -2.24107,0.52955 -2.24322,-1.42165 0.0598,-4.60268 1.27511,-9.07556 2.03327,-13.59262 0.63062,-3.31985 1.37046,-6.63747 1.88422,-9.97824 0.11312,-0.73552 0.18655,-1.47669 0.26557,-2.21665 0.0424,-0.39701 -0.21608,-0.94802 0.0986,-1.19372 2.72411,-2.12674 5.78966,-3.77557 8.68449,-5.66336 -0.0337,0.0838 -0.0689,0.16703 -0.0994,0.25207 -0.24566,0.64969 -0.48165,1.30317 -0.69954,1.96273 -0.0726,0.23673 -0.23558,0.57109 -0.13997,0.76075 -0.32576,1.06875 -0.94851,2.03135 -1.39592,3.04652 -2.59887,4.95196 -5.61727,9.68323 -9.11095,14.05559 -1.65106,1.95787 -3.11465,3.79955 -4.95519,5.58159 -4.33065,4.19302 -9.97386,6.72973 -15.32993,9.38077 -0.21158,-0.0111 -0.4588,0.0847 -0.63474,-0.0333 -0.53358,-0.358 -0.23646,-1.57566 -0.16861,-1.87555 0.62584,-2.76609 1.84664,-5.39616 2.52309,-8.14773 1.8962,-5.89175 3.79884,-11.84331 6.39231,-17.46566 0.2044,-0.3245 0.41198,-0.64701 0.61318,-0.9735 0.13498,-0.21903 0.17773,-0.5256 0.39529,-0.66296 12.69288,-8.01359 10.39024,-6.83469 7.16002,-3.34335 -6.0345,5.87494 -11.90727,11.30768 -19.84509,14.78247 0,0 8.30995,-4.79775 8.30995,-4.79775 z"
         inkscape:connector-curvature="0" />
    </symbol>
    <symbol
       id="l">
      <path
         id="path11107"
         d="m 832.485,159.14679 c 0.85539,2.64472 3.61299,4.14404 6.32312,4.12844 0.84115,-0.005 1.66489,-0.2416 2.49733,-0.3624 2.62773,-0.8406 2.44966,-0.68109 4.91904,-1.87441 0.69138,-0.3341 2.70526,-1.45384 2.03845,-1.07305 -11.73198,6.69954 -6.986,4.44797 -4.78911,2.07158 0.0739,-0.17689 0.24746,-0.34071 0.22172,-0.53069 -0.20616,-1.5216 -4.41958,-0.27674 -5.06288,-0.10695 -0.60011,0.30027 -2.40694,1.18768 -1.80032,0.9008 1.97873,-0.93575 3.75276,-2.52 5.91695,-2.84759 0.9973,-0.15096 -1.39703,1.46028 -2.01554,2.25705 -2.43582,3.13784 -4.08559,6.63292 -5.76948,10.20196 -3.43005,7.82978 -5.1137,16.23797 -6.64666,24.60161 -0.53749,3.84341 -1.22795,7.66427 -1.75438,11.50939 -0.0881,0.71766 -0.1109,0.87134 -0.17931,1.53031 -0.02,0.1931 -0.23734,0.53758 -0.048,0.58042 0.0749,0.017 0.2724,-0.14209 0.20573,-0.10391 -2.75125,1.57576 -5.50651,3.14453 -8.25977,4.7168 1.17818,-1.03798 2.21567,-2.21494 3.35549,-3.3014 1.57901,-1.33909 2.86744,-3.02543 4.51198,-4.28387 4.62519,-3.02062 8.34393,-5.62665 13.53545,-6.34394 1.62233,-0.16331 3.25301,-0.23024 4.88178,-0.29579 4.65934,-0.63811 -9.39596,8.03579 -7.51423,4.20975 0.58379,-0.84386 1.02232,-1.77728 1.42789,-2.71679 0.13617,-0.27109 0.20929,-0.529 0.22486,-0.82949 0,0 8.6127,-4.97255 8.6127,-4.97255 l 0,0 c -0.004,0.33245 -0.0789,0.55975 -0.26146,0.85063 -0.46112,0.92175 -0.91271,1.85238 -1.45249,2.73099 -1.62432,3.39236 -5.83842,5.95446 -9.58457,5.66224 -1.58043,-0.0225 -3.16372,0.0269 -4.73466,0.21086 -4.35813,0.64413 -11.58837,4.4913 3.34603,-3.40258 -1.68463,1.27191 -3.04517,2.93514 -4.6129,4.34212 -1.07469,1.05826 -2.06834,2.18522 -3.17906,3.19954 -2.96478,1.72905 -5.92728,3.46203 -8.89435,5.18714 -0.0721,0.0419 -0.14935,0.15326 -0.22276,0.11374 -0.0607,-0.0327 0.0615,-0.12434 0.0794,-0.19089 0.1837,-0.68243 0.24744,-1.39685 0.42582,-2.08031 0.78285,-3.94005 1.50191,-7.89153 2.30506,-11.82733 1.84907,-8.34699 3.65099,-16.77364 6.85972,-24.72462 4.8874,-10.7902 7.43737,-13.99238 19.4635,-19.63153 0.54977,-0.14992 5.34244,-1.58614 5.33725,-0.0515 -7.6e-4,0.22482 -0.21706,0.39378 -0.32559,0.59067 -3.23951,3.24858 -7.93721,5.26682 -11.67422,7.43351 -2.15611,1.2501 -4.46783,2.24076 -6.87217,2.89821 -0.86611,0.14024 -1.72121,0.39929 -2.59834,0.42072 -2.71595,0.0664 -5.61713,-1.35778 -6.72859,-3.89434 0,0 8.49153,-4.90259 8.49153,-4.90259 z"
         inkscape:connector-curvature="0" />
    </symbol>
    <symbol
       id="e">
      <path
         id="path11614"
         d="m 628.95254,189.4354 c 4.2115,-0.34674 8.43551,-0.50144 12.65755,-0.65338 2.63567,-0.0852 5.27184,-0.15207 7.90721,-0.24656 0.29904,-0.0121 0.59835,-0.0206 0.89716,-0.0373 -13.21791,7.41052 -7.00715,5.94092 -8.11693,0.53927 -0.75077,-2.24167 -2.20616,-3.3891 -4.3984,-4.07643 -3.6266,-1.003 -6.90053,-0.12145 -10.22323,1.37263 2.11098,-1.21486 4.16296,-2.53856 6.33295,-3.64459 0.68813,-0.35073 -1.26796,0.8845 -1.86913,1.36942 -0.57012,0.45988 -1.13607,0.93087 -1.64076,1.46174 -1.60449,1.68773 -2.64121,3.61606 -3.627,5.69465 -1.32829,3.81368 -0.65595,7.62413 1.48087,10.96762 2.08154,2.8281 4.50813,3.01428 7.7932,2.79004 3.69983,-0.6676 7.16083,-2.21517 10.75355,-3.29711 2.16241,-0.56142 4.37767,-0.89618 6.59696,-1.13403 0.29783,-0.0271 0.59735,-0.0632 0.89622,-0.0567 -3.8e-4,0.001 -7.6e-4,0.003 -10e-4,0.004 0,0 -8.659,4.99927 -8.659,4.99927 l 0,0 c 10e-4,-0.002 0.002,-0.003 0.003,-0.005 -0.24696,-0.0511 -0.51121,-0.0229 -0.76376,-0.0198 -2.12167,0.11423 -4.23344,0.42555 -6.2916,0.95772 -3.60209,1.04452 -7.04379,2.61871 -10.74178,3.29032 -3.30197,0.25456 -5.82821,0.21 -7.82316,-2.77274 -2.08192,-3.37255 -2.6343,-7.26296 -1.33438,-11.0522 3.95361,-8.18701 8.70475,-9.4756 16.99566,-14.2295 3.3809,-1.53309 6.7442,-2.44341 10.45521,-1.50657 2.2457,0.60725 3.69131,1.78815 4.47009,4.03504 1.42165,5.53663 -3.90206,6.5651 -8.9467,9.31242 -0.24474,-0.0259 -0.50357,-0.0426 -0.7524,-0.0463 -2.48793,-0.0767 -4.97747,-0.0578 -7.46582,-0.008 -4.35877,0.11005 -8.73526,0.2428 -13.05418,0.88238 0,0 8.46967,-4.88997 8.46967,-4.88997 z"
         inkscape:connector-curvature="0" />
    </symbol>
    <symbol
       id="r">
      <g
         id="g11213_transform"
         transform="matrix(0.97111895,0,0,0.97111895,131.9868,-58.835254)">
        <path
           inkscape:connector-curvature="0"
           d="m 529.83742,315.53422 c -2.94771,8.02706 -3.60283,16.54111 -3.30517,25.01572 0.11318,2.32983 0.26101,4.54496 1.37172,6.60565 0,0 -8.30771,4.79646 -8.30771,4.79646 l 0,0 c -0.63456,-2.29122 -0.70044,-4.6299 -0.67791,-7.00622 0.0322,-8.26959 0.72448,-16.47893 2.52652,-24.56617 0,0 8.39255,-4.84544 8.39255,-4.84544 z"
           id="path11203" />
        <path
           inkscape:connector-curvature="0"
           d="m 520.27465,331.58976 c 1.55173,-2.43432 3.15221,-4.84737 5.21954,-6.88127 0.54638,-0.53755 1.05921,-1.13387 1.71291,-1.53408 3.3274,-2.03707 6.79474,-3.83621 10.19211,-5.75431 4.45925,-1.45744 9.05006,-0.16897 13.25543,1.51457 0.89701,0.48163 1.98501,0.78663 2.74379,1.50481 0.047,0.0184 0.0941,0.0367 0.14107,0.0551 0,0 -8.61954,4.9765 -8.61954,4.9765 l 0,0 c -0.0506,-0.0163 -0.10124,-0.0326 -0.15185,-0.0489 -0.53914,-0.81844 -1.61683,-1.18898 -2.38583,-1.71148 -4.06451,-1.96826 -8.58272,-3.14376 -13.00848,-1.65715 1.96203,-1.17615 3.82146,-2.54347 5.8861,-3.52844 0.70362,-0.33567 -1.19187,1.00749 -1.74768,1.55414 -1.97419,1.94167 -3.5074,4.23571 -4.82993,6.65633 0,0 -8.40764,4.85416 -8.40764,4.85416 z"
           id="path11211" />
      </g>
    </symbol>
    <symbol
       id="O">
      <path
         id="path15694"
         d="m 525.88549,141.07886 c -4.79116,6.24003 -9.10625,12.93581 -11.78445,20.3785 -0.57158,1.58843 -0.99637,3.22591 -1.49455,4.83887 -1.28259,5.7781 -2.09847,12.57826 0.95284,18.0078 0.33341,0.59325 0.79385,1.10555 1.19078,1.65833 2.93029,2.47834 6.11644,1.9092 9.39711,0.56846 4.87599,-2.78864 -4.00327,2.30659 -5.60763,2.95363 -0.64245,0.2591 0.98075,-0.98034 1.43317,-1.50492 1.46024,-1.6931 2.65132,-3.58531 3.81706,-5.48393 2.52866,-4.28978 4.39239,-8.93006 5.71628,-13.7199 0.92688,-3.78534 1.27719,-7.67647 1.33468,-11.56415 0.21269,-2.47472 -0.21406,-4.8582 -0.87254,-7.22845 -0.71454,-1.97487 -1.22829,-4.01818 -1.93911,-5.99258 -0.56564,-1.27942 -1.2452,-2.50944 -1.92171,-3.73429 -0.17785,-0.74264 -0.74216,-1.21705 -1.24651,-1.73892 -0.54621,-0.85984 -1.14064,-1.68559 -1.76155,-2.4927 -0.17734,-0.17765 -0.28132,-0.49332 -0.54066,-0.54753 -0.37358,-0.0143 -0.58719,-0.43163 -0.76477,-0.72164 -0.0168,-0.0296 -0.0336,-0.0591 -0.0504,-0.0887 0,0 8.63308,-4.98431 8.63308,-4.98431 l 0,0 c 0.0138,0.0313 0.0276,0.0626 0.0413,0.0939 0.15757,0.31143 0.37193,0.72907 0.76556,0.72118 0.27523,0.0212 0.31986,0.37847 0.4832,0.5807 0.54416,0.8608 1.11525,1.70434 1.76163,2.49266 0.54617,0.4733 1.01717,1.04848 1.21802,1.75537 0.56375,1.28866 1.27691,2.50317 1.79485,3.80753 0.68869,1.98603 1.17444,4.04893 1.86348,6.03624 0.64157,2.37598 1.11638,4.76313 0.85197,7.24033 -0.30651,3.95216 -0.71328,7.9163 -1.68794,11.7681 -1.29492,4.75984 -3.12587,9.3956 -5.61761,13.66294 -4.7019,7.58999 -6.3699,8.49264 -15.91281,13.42883 -3.25417,1.33528 -6.46962,1.98249 -9.30708,-0.62044 -0.35331,-0.57796 -0.77272,-1.12039 -1.05992,-1.73389 -2.62217,-5.60141 -1.62757,-12.63675 -0.28222,-18.39498 0.48607,-1.60596 0.88939,-3.23933 1.45819,-4.81788 2.58966,-7.18687 6.79499,-13.57931 10.97491,-19.91111 0,0 8.16332,-4.71309 8.16332,-4.71309 z"
         inkscape:connector-curvature="0" />
    </symbol>
    <symbol
       id="E">
      <g
         id="g9062_transform"
         transform="matrix(0.88830959,0,0,0.88830959,406.72562,-64.72443)">
        <path
           inkscape:connector-curvature="0"
           d="m 439.99029,318.27579 c -3.17223,8.06175 -4.2721,16.6852 -5.16708,25.24032 -0.56195,6.64355 -0.87454,13.31553 -0.70143,19.98282 -0.006,0.8421 0.12226,1.67504 0.16357,2.5128 0.008,0.15783 0.0227,0.3151 0.0402,0.47208 0.043,0.11832 0.17718,0.22865 0.25857,0.31532 0.35995,0.35976 0.50144,0.89624 0.65764,1.3723 0.0981,0.21306 0.0772,0.40422 0.0719,0.63211 -0.002,0.21374 0.003,0.42745 0.0118,0.64098 0.049,0.13184 0.29801,0.0754 0.43513,0.0757 0.17756,-4e-4 0.35494,-0.008 0.53224,-0.0164 3.48315,-0.28494 -3.48137,1.9953 -8.93239,5.08604 -0.87395,0.41518 -1.81072,0.63596 -2.76552,0.75726 -1.09429,0.0613 -2.13965,0.48774 -3.16458,0.85518 -3.58078,1.30136 -7.16355,3.74429 8.61379,-4.75641 2.83155,-0.39951 5.61431,-0.96487 8.45965,-1.28334 3.4723,-0.23428 6.97184,-0.65217 10.45311,-0.4274 2.15721,0.0889 4.15964,0.7335 6.11242,1.60224 0.7369,0.34766 1.4771,0.6936 2.18394,1.1003 0.12016,0.0976 0.205,0.0851 0.36367,0.0865 0.60654,-0.10235 0.96162,0.15632 1.44932,0.45557 0.36524,0.20098 0.75194,0.35689 1.14483,0.49374 0.041,0.0191 0.0873,0.0227 0.13016,0.0338 0,0 -8.65918,4.99939 -8.65918,4.99939 l 0,0 c -0.036,-0.0155 -0.0732,-0.0286 -0.10818,-0.0465 -0.36377,-0.16885 -0.7247,-0.34392 -1.07918,-0.53164 -0.51858,-0.28385 -0.86427,-0.55931 -1.49632,-0.42844 -0.17898,0.006 -0.26556,0.059 -0.37216,-0.0816 -0.60047,-0.49053 -1.296,-0.85245 -1.97321,-1.22196 -1.89048,-0.91073 -3.88217,-1.49345 -5.98016,-1.6786 -3.43757,-0.25105 -6.89353,0.0702 -10.32085,0.35104 -2.94482,0.35256 -5.82437,0.98954 -8.75098,1.45153 4.00727,-2.50044 5.19442,-3.97971 8.38907,-5.06019 1.01797,-0.34663 2.04575,-0.76006 3.12536,-0.83254 0.96757,-0.13234 1.91817,-0.34861 2.80236,-0.77852 -2.74694,1.6169 -5.49387,3.23381 -8.2408,4.85071 -0.012,-3.4e-4 -0.024,-10e-4 -0.036,-10e-4 -0.16531,-0.002 -0.33063,-0.004 -0.49596,-0.005 -0.13735,8e-5 -0.44355,0.0763 -0.46762,-0.057 0.0148,-0.22005 0.0249,-0.44049 0.0231,-0.66112 -0.006,-0.21247 -0.0257,-0.42417 -0.0718,-0.63217 -0.11573,-0.49493 -0.2556,-1.0275 -0.64352,-1.38045 -0.0676,-0.0606 -0.28445,-0.19397 -0.31313,-0.28382 0.003,-0.16552 0.005,-0.33109 0.002,-0.49666 -0.0171,-0.90896 0.13954,-1.81019 0.19067,-2.71732 0.58992,-6.88047 1.14705,-13.76398 1.83256,-20.63588 0.85163,-8.22206 1.65332,-16.47005 3.83357,-24.47042 0,0 8.45905,-4.88383 8.45905,-4.88383 z"
           id="path9054" />
        <path
           inkscape:connector-curvature="0"
           d="m 433.0561,344.56429 c 3.39786,0.14604 6.80163,0.092 10.2012,0.0351 1.47632,-0.0244 2.95295,-0.0316 4.42897,-0.0714 0.22585,-0.007 0.45175,-0.0134 0.67729,-0.0269 0.31264,0.0156 0.6271,0.0191 0.94048,0.0208 0.31709,-4.1e-4 0.63412,-0.007 0.95103,-0.0173 0.0589,-0.008 0.11382,-1.8e-4 0.1728,0.003 0.40033,0.006 0.80055,0.0137 1.201,0.0108 0.22334,-0.002 0.44658,-0.008 0.66977,-0.0158 0.0141,7e-5 0.0282,-0.002 0.0423,-0.003 0,0 -8.6599,4.9998 -8.6599,4.9998 l 0,0 c -0.011,-8.5e-4 -0.0223,-0.003 -0.0334,-0.003 -0.20497,-0.008 -0.41,-0.0142 -0.61514,-0.0158 -0.41294,-0.003 -0.82568,0.005 -1.23852,0.0108 -0.0654,0.004 -0.11987,0.01 -0.18333,0.003 -0.29692,-0.0108 -0.594,-0.017 -0.89114,-0.0173 -0.3374,0.002 -0.67626,0.006 -1.01269,0.0208 -0.19444,-0.0122 -0.38913,-0.0229 -0.58402,-0.0269 -1.39346,-0.0415 -2.78767,-0.0464 -4.18147,-0.0714 -3.44021,-0.0612 -6.88396,-0.10396 -10.32276,0.0351 0,0 8.43756,-4.87142 8.43756,-4.87142 z"
           id="path9056" />
        <path
           inkscape:connector-curvature="0"
           d="m 433.04631,313.92879 c 3.02822,1.81927 6.44655,2.62468 9.89245,3.18942 2.54106,0.3729 5.10958,0.45093 7.67343,0.47497 1.3788,-0.0116 2.75761,-0.0163 4.13628,-0.0394 1.05891,-0.0119 2.1179,-0.008 3.17682,-0.0165 0.7163,0.008 1.43271,-0.003 2.14868,-0.0249 0.27049,-0.0151 0.54112,10e-4 0.81174,0.01 0.43033,0.005 0.86074,-0.002 1.29088,-0.0148 0.0555,-3.3e-4 0.11098,-0.005 0.1664,-0.007 0.26051,0.0208 0.52272,0.0128 0.78381,0.007 0.0687,-8.1e-4 0.13723,-0.004 0.20583,-0.007 0.19291,0.018 0.38757,0.0127 0.5812,0.0109 0.13348,-0.001 0.26689,-0.005 0.40028,-0.01 0.008,1.1e-4 0.0153,-9.9e-4 0.023,-0.001 0,0 -8.66013,4.99992 -8.66013,4.99992 l 0,0 c -0.006,-4.7e-4 -0.012,-0.002 -0.0179,-0.001 -0.12196,-0.004 -0.24392,-0.009 -0.36599,-0.01 -0.2063,-0.002 -0.41329,-0.006 -0.619,0.0109 -0.0606,-0.003 -0.12124,-0.006 -0.18195,-0.007 -0.26957,-0.005 -0.53986,-0.0128 -0.809,0.007 -0.0468,-0.002 -0.0938,-0.007 -0.14077,-0.007 -0.41309,-0.0126 -0.82638,-0.0207 -1.23968,-0.0148 -0.28177,0.008 -0.564,0.0252 -0.84557,0.01 -0.68762,-0.0235 -1.3758,-0.0325 -2.06379,-0.0241 -1.05069,-0.007 -2.10146,9.7e-4 -3.15216,0.002 -1.34996,-0.005 -2.70014,0.0212 -4.0499,-0.0105 -2.48963,-0.051 -4.97201,-0.26487 -7.43837,-0.61069 -3.49602,-0.62147 -6.91789,-1.48294 -10.1246,-3.05538 0,0 8.41798,-4.86012 8.41798,-4.86012 z"
           id="path9060" />
      </g>
    </symbol>
  </defs>
  <metadata
     id="metadata9716">
    <rdf:RDF>
      <cc:Work>
        <dc:format>image/svg+xml</dc:format>
        <dc:type
           rdf:resource="http://purl.org/dc/dcmitype/StillImage" />
        <dc:title />
      </cc:Work>
    </rdf:RDF>
  </metadata>
  <g
     transform="translate(-4.7957764,-445.55634)"
     inkscape:label="Layer 1"
     inkscape:groupmode="layer"
     id="g8900">
    <g
       id="g9680"
       transform="translate(60)" />
    <g
       id="g14287"
       transform="translate(-398,-1132)">
      <g
         id="g10384"
         style="fill:#4f5858;fill-opacity:1"
         transform="translate(-16,438)">
        <path
           inkscape:connector-curvature="0"
           d="m 728.91563,1281.2449 c 5.73623,-1.5782 11.37807,-3.3295 17.24737,-4.3697 6.29601,-1.0288 12.6143,-0.981 18.9427,-0.4255 5.53185,0.2872 10.79981,0.9121 15.95851,2.9664 5.2133,2.0415 10.40123,4.1716 15.44834,6.5989 4.071,1.9006 8.11964,3.8984 12.03127,6.1091 3.78292,1.6693 7.20311,3.9011 10.68657,6.0993 3.91379,2.4824 7.86107,4.9103 11.77804,7.391 2.73946,1.5578 5.45091,3.1169 8.16948,4.7089 2.04192,1.5133 3.94087,3.1213 6.25879,4.2031 2.56947,1.4627 5.05898,3.0382 7.55435,4.6207 2.52813,1.5815 5.35752,2.5648 8.01015,3.8936 2.77015,1.1633 5.37391,2.6524 8.21072,3.657 2.55581,0.6193 5.07188,1.3999 7.47892,2.4676 2.72732,1.4192 5.8309,1.6259 8.70534,2.5466 2.43937,1.0861 5.03569,1.5193 7.66884,1.7961 3.46905,0.1665 6.87354,0.2045 10.29524,0.8389 3.32796,0.6654 6.67588,1.3049 10.0748,1.0418 3.69489,-0.3065 7.22553,-1.3117 10.77354,-2.307 2.84713,-0.7787 5.78501,-1.6896 8.43326,-3.0185 2.5417,-0.9601 4.77449,-2.3894 7.00117,-3.9149 2.69857,-2.146 5.62317,-3.9674 8.44448,-5.9431 1.29794,-1.0664 2.73714,-1.9378 4.12672,-2.8759 0.46369,-0.313 1.81389,-1.3063 1.3881,-0.9434 -14.2688,11.9131 -18.33622,15.4191 -12.38302,10.3045 7.8546,-6.5479 15.54836,-13.6513 24.37792,-18.9659 3.19964,-1.5103 6.37413,-3.0828 9.70287,-4.2909 3.75204,-1.7238 7.54831,-3.3495 11.53399,-4.4507 3.52462,-0.9851 6.96609,-2.1087 10.59161,-2.6807 3.8332,-0.4992 7.5981,-1.4047 11.4188,-2.0182 3.0155,-0.8013 5.8576,-0.228 8.8344,0.3584 3.213,1.0537 6.086,3.0442 8.6236,5.2492 1.8444,1.4237 2.8145,3.5441 4.2745,5.2938 1.4919,1.9399 2.6088,4.1535 3.5859,6.3914 1.3297,2.2376 2.478,4.6026 3.5026,6.99 1.4186,2.6567 2.4682,5.489 3.9437,8.1147 0.9687,2.6233 2.7348,4.7926 4.1472,7.1623 0.7271,1.6566 1.8963,2.9267 3.2023,4.1361 1.3862,1.7358 3.024,3.2556 4.6561,4.7614 2.5191,1.9612 5.2622,3.5968 7.8681,5.4297 2.4693,1.6264 5.1168,3.0065 7.8279,4.1868 2.6357,0.9871 5.165,2.1247 7.919,2.7712 2.337,0.3323 4.6217,0.5904 6.9116,1.1778 3.6706,0.9502 7.4583,1.1791 11.2291,1.3436 3.5531,0.1297 7.1093,0.134 10.6638,0.076 2.352,-0.02 4.7033,-0.053 7.0553,-0.03 2.306,0.07 4.4911,0.079 6.7057,-0.5799 2.5835,-0.526 5.0689,-1.1367 7.483,-2.2129 2.3239,-0.5844 4.4986,-1.6009 6.7602,-2.3719 2.016,-0.8075 3.9939,-1.8189 5.932,-2.8361 2.7441,-1.2778 5.5481,-2.4119 8.1993,-3.8788 1.9765,-1.122 4.0754,-2.0363 6.1688,-2.9245 2.3728,-1.1008 4.8984,-1.8314 7.3146,-2.8255 2.6836,-1.1366 5.5245,-1.6089 8.2128,-2.7248 2.0717,-0.7074 4.0433,-1.6116 6.0584,-2.4586 1.9174,-0.6462 3.7922,-1.3683 5.6969,-2.0538 2.9006,-0.7874 5.7534,-1.7503 8.4507,-3.0816 2.4069,-1.2567 5.0888,-1.6191 7.632,-2.4878 3.1283,-0.8485 6.2147,-1.8275 9.36,-2.6233 2.8007,-0.9916 5.5819,-2.0275 8.5103,-2.5682 2.8569,-1.0038 5.867,-1.4214 8.7692,-2.2367 2.8446,-1.0893 5.8991,-1.3324 8.8061,-2.148 2.4467,-1.0533 5.0706,-1.4262 7.6853,-1.7931 2.0115,-0.3391 3.9001,-1.177 5.8829,-1.6837 1.7366,-0.4306 3.4538,-0.3318 5.0811,-1.1246 1.6104,-0.8259 3.357,-1.1049 5.1326,-1.2995 2.2375,0.082 4.3086,-0.7823 6.4463,-1.3066 2.6854,-0.2838 5.2433,-0.9137 7.8315,-1.6504 2.6107,-0.8183 5.3741,-0.7069 8.0159,-1.3035 2.8791,-0.8259 5.8068,-1.3417 8.7881,-1.5805 3.1911,-0.05 6.2386,-1.1122 9.352,-1.6989 2.2577,-0.4768 4.5642,-0.4998 6.8594,-0.5577 2.7372,0.01 5.4743,0.01 8.2115,0.026 3.1654,0.031 6.3307,0.01 9.4963,0.024 2.8168,-0.029 5.6337,-0.01 8.4505,-0.043 2.043,-0.2939 3.7653,0.2103 5.6534,0.8885 2.2723,0.517 4.4468,1.2728 6.6699,1.9695 2.5518,0.8425 5.0837,1.8184 7.5883,2.8116 2.7073,0.9778 5.3853,1.9737 8.0647,3.031 2.434,0.8676 4.7409,2.0799 7.0225,3.2929 2.8953,1.621 5.6295,3.491 8.3794,5.3462 2.7461,1.2648 4.9377,3.356 7.4853,4.9114 2.4276,1.6667 4.831,3.3522 7.1645,5.1497 2.2747,1.4931 4.4489,3.1734 6.3861,5.0878 1.1169,1.2334 2.0388,2.5208 3.6001,3.1821 0.3949,0.164 0.8048,0.2366 1.2258,0.2534 0.021,0.01 0.035,-0.011 0.053,-0.016 0,0 -15.3168,12.8523 -15.3168,12.8523 l 0,0 c -0.014,0 -0.026,0.016 -0.043,0.01 -0.3867,-0.062 -0.76,-0.1718 -1.1147,-0.3466 -1.5266,-0.7601 -2.3382,-2.05 -3.3989,-3.3509 -1.938,-1.9115 -4.1188,-3.5765 -6.3676,-5.1034 -2.2878,-1.8671 -4.7615,-3.4498 -7.1764,-5.1397 -2.5481,-1.5438 -4.6681,-3.7192 -7.4283,-4.9592 -2.7065,-1.9342 -5.5032,-3.7365 -8.4411,-5.2945 -2.2992,-1.192 -4.6148,-2.3801 -7.0431,-3.2756 -2.6368,-1.1501 -5.3258,-2.0498 -8.0041,-3.0819 -2.5518,-0.9187 -5.0687,-1.8917 -7.6258,-2.7801 -2.2604,-0.6526 -4.4674,-1.3722 -6.7549,-1.8982 -1.8745,-0.6225 -3.5955,-1.1507 -5.6126,-0.9228 -2.782,-0.039 -5.5641,-0.013 -8.3461,-0.044 -3.1785,0.014 -6.3565,-0.012 -9.5349,0.01 -2.7639,0.011 -5.5276,-0.02 -8.2912,0.041 -2.2769,0.026 -4.5598,0.1309 -6.8082,0.5148 -3.0951,0.5694 -6.137,1.5355 -9.2962,1.652 -2.9966,0.2716 -5.9583,0.7635 -8.8467,1.6297 -2.6341,0.6111 -5.4063,0.4694 -8.0119,1.3002 -2.598,0.7457 -5.169,1.369 -7.8606,1.6748 -2.1668,0.5467 -4.2597,1.4295 -6.5268,1.3742 -1.7859,0.1746 -3.5387,0.4963 -5.1548,1.3181 -1.6096,0.7663 -3.3088,0.7037 -5.0298,1.0815 -1.9809,0.4798 -3.8505,1.3807 -5.8563,1.6615 -2.6059,0.279 -5.1792,0.736 -7.6181,1.7366 -2.8865,0.8205 -5.9413,1.0095 -8.7659,2.1142 -2.9255,0.848 -5.9803,1.2236 -8.8485,2.3033 -2.8929,0.5289 -5.66,1.477 -8.4168,2.4898 -3.1828,0.7549 -6.2655,1.8228 -9.42,2.6736 -2.542,0.8487 -5.2013,1.2781 -7.6195,2.4774 -2.7317,1.321 -5.6104,2.2834 -8.5184,3.1384 -1.9046,0.7019 -3.7712,1.4587 -5.709,2.064 -1.9992,0.8513 -3.9508,1.7506 -6.0202,2.4264 -2.6734,1.1068 -5.5228,1.512 -8.1745,2.6927 -2.4441,0.9984 -4.9777,1.7762 -7.3782,2.8788 -2.0748,0.8661 -4.1252,1.8132 -6.1051,2.8711 -2.6702,1.4549 -5.4831,2.5962 -8.2268,3.9019 -1.9553,1.0221 -3.93,2.1002 -5.9778,2.8745 -2.2661,0.7714 -4.4548,1.7609 -6.771,2.381 -2.4227,1.0301 -4.9071,1.6246 -7.4684,2.2007 -2.205,0.677 -4.3895,0.6474 -6.6878,0.5648 -2.3375,0.028 -4.6745,0.01 -7.012,-0.01 -3.5087,-0.061 -7.0189,-0.063 -10.5261,-0.1917 -3.8014,-0.1885 -7.6242,-0.3787 -11.3442,-1.247 -2.3132,-0.5176 -4.6319,-0.6589 -6.9479,-1.1474 -2.7491,-0.6443 -5.2672,-1.8311 -7.9079,-2.7804 -2.6991,-1.1835 -5.3233,-2.5779 -7.7513,-4.2511 -2.5995,-1.8538 -5.4171,-3.3981 -7.9393,-5.3699 -1.6708,-1.483 -3.3959,-2.9013 -4.7934,-4.6463 -1.3689,-1.1886 -2.4234,-2.5279 -3.0808,-4.2381 -1.4017,-2.3765 -3.1455,-4.5568 -4.1557,-7.1551 -1.388,-2.6782 -2.3998,-5.5188 -3.9229,-8.1322 -1.1475,-2.3431 -2.1229,-4.7599 -3.5238,-6.9722 -0.992,-2.2249 -2.1387,-4.4234 -3.6279,-6.356 -1.4811,-1.7349 -2.4592,-3.8339 -4.1567,-5.3928 -2.517,-2.2475 -5.3819,-4.1945 -8.6043,-5.2653 -2.9628,-0.5363 -5.819,-1.0355 -8.81963,-0.3708 -3.83092,0.5298 -7.56918,1.5087 -11.39975,2.0022 -3.5973,0.5779 -7.01008,1.71 -10.52428,2.6242 -4.00913,1.0989 -7.80366,2.7589 -11.57739,4.4871 -3.35358,1.2228 -6.53645,2.8371 -9.76783,4.3454 -6.79226,4.0233 -20.82897,15.5907 5.43207,-6.0477 -7.47982,6.4336 -14.74182,13.1074 -22.96659,18.5492 -2.8436,1.977 -5.78192,3.8105 -8.48755,5.9792 -2.23787,1.5354 -4.48537,2.9702 -7.037,3.945 -2.61123,1.2928 -5.50901,2.1505 -8.30914,2.9144 -3.54933,0.9825 -7.07279,1.9731 -10.76202,2.2973 -3.39201,0.2849 -6.75694,-0.2812 -10.06087,-1.0535 -3.45791,-0.6101 -6.90945,-0.6678 -10.41664,-0.7371 -2.62464,-0.265 -5.25573,-0.6694 -7.66801,-1.7967 -2.87669,-0.9008 -5.91539,-1.2856 -8.67785,-2.5696 -2.44426,-0.9948 -4.94977,-1.7814 -7.49683,-2.4526 -2.82089,-1.0145 -5.40918,-2.5419 -8.17852,-3.6841 -2.6673,-1.2926 -5.5079,-2.2673 -7.992,-3.9088 -2.50886,-1.5864 -5.04707,-3.0917 -7.63057,-4.5567 -2.31335,-1.0753 -4.23713,-2.6963 -6.30388,-4.1653 -2.59939,-1.7065 -5.23534,-3.3105 -7.87062,-4.9597 -3.9294,-2.4685 -7.87563,-4.906 -11.81011,-7.3641 -3.49083,-2.1964 -6.99627,-4.2891 -10.71884,-6.0722 -3.8452,-2.2809 -7.92802,-4.1922 -11.9197,-6.2027 -5.01686,-2.4655 -10.14344,-4.7333 -15.39965,-6.6397 -5.09887,-1.9645 -10.39462,-2.6515 -15.82733,-3.0765 -6.34824,-0.5873 -12.69588,-0.5014 -19.01108,0.4828 -6.01505,1.0308 -11.81352,2.7753 -17.6077,4.6721 0,0 14.96044,-12.5533 14.96044,-12.5533 z"
           id="path10386"
           style="opacity:1;fill:#4f5858;fill-opacity:1;stroke:none;stroke-width:0.99999994;stroke-linecap:butt;stroke-linejoin:miter;stroke-miterlimit:4;stroke-dasharray:none;stroke-dashoffset:0;stroke-opacity:1" />
        <path
           style="opacity:1;fill:#4f5858;fill-opacity:1;stroke:none;stroke-width:0.99999994;stroke-linecap:butt;stroke-linejoin:miter;stroke-miterlimit:4;stroke-dasharray:none;stroke-dashoffset:0;stroke-opacity:1"
           id="path10388"
           d="m 714.91563,1297.2449 c 5.73623,-1.5782 11.37807,-3.3295 17.24737,-4.3697 6.29601,-1.0288 12.6143,-0.981 18.9427,-0.4255 5.53185,0.2872 10.79981,0.9121 15.95851,2.9664 5.2133,2.0415 10.40123,4.1716 15.44834,6.5989 4.071,1.9006 8.11964,3.8984 12.03127,6.1091 3.78292,1.6693 7.20311,3.9011 10.68657,6.0993 3.91379,2.4824 7.86107,4.9103 11.77804,7.391 2.73946,1.5578 5.45091,3.1169 8.16948,4.7089 2.04192,1.5133 3.94087,3.1213 6.25879,4.2031 2.56947,1.4627 5.05898,3.0382 7.55435,4.6207 2.52813,1.5815 5.35752,2.5648 8.01015,3.8936 2.77015,1.1633 5.37391,2.6524 8.21072,3.657 2.55581,0.6193 5.07188,1.3999 7.47892,2.4676 2.72732,1.4192 5.8309,1.6259 8.70534,2.5466 2.43937,1.0861 5.03569,1.5193 7.66884,1.7961 3.46905,0.1665 6.87354,0.2045 10.29524,0.8389 3.32796,0.6654 6.67588,1.3049 10.0748,1.0418 3.69489,-0.3065 7.22553,-1.3117 10.77354,-2.307 2.84713,-0.7787 5.78501,-1.6896 8.43326,-3.0185 2.5417,-0.9601 4.77449,-2.3894 7.00117,-3.9149 2.69857,-2.146 5.62317,-3.9674 8.44448,-5.9431 1.29794,-1.0664 2.73714,-1.9378 4.12672,-2.8759 0.46369,-0.313 1.81389,-1.3063 1.3881,-0.9434 -14.2688,11.9131 -18.33622,15.4191 -12.38302,10.3045 7.8546,-6.5479 15.54836,-13.6513 24.37792,-18.9659 3.19964,-1.5103 6.37413,-3.0828 9.70287,-4.2909 3.75204,-1.7238 7.54831,-3.3495 11.53399,-4.4507 3.52462,-0.9851 6.96609,-2.1087 10.59161,-2.6807 3.8332,-0.4992 7.5981,-1.4047 11.4188,-2.0182 3.0155,-0.8013 5.8576,-0.228 8.8344,0.3584 3.213,1.0537 6.086,3.0442 8.6236,5.2492 1.8444,1.4237 2.8145,3.5441 4.2745,5.2938 1.4919,1.9399 2.6088,4.1535 3.5859,6.3914 1.3297,2.2376 2.478,4.6026 3.5026,6.99 1.4186,2.6567 2.4682,5.489 3.9437,8.1147 0.9687,2.6233 2.7348,4.7926 4.1472,7.1623 0.7271,1.6566 1.8963,2.9267 3.2023,4.1361 1.3862,1.7358 3.024,3.2556 4.6561,4.7614 2.5191,1.9612 5.2622,3.5968 7.8681,5.4297 2.4693,1.6264 5.1168,3.0065 7.8279,4.1868 2.6357,0.9871 5.165,2.1247 7.919,2.7712 2.337,0.3323 4.6217,0.5904 6.9116,1.1778 3.6706,0.9502 7.4583,1.1791 11.2291,1.3436 3.5531,0.1297 7.1093,0.134 10.6638,0.076 2.352,-0.02 4.7033,-0.053 7.0553,-0.03 2.306,0.07 4.4911,0.079 6.7057,-0.5799 2.5835,-0.526 5.0689,-1.1367 7.483,-2.2129 2.3239,-0.5844 4.4986,-1.6009 6.7602,-2.3719 2.016,-0.8075 3.9939,-1.8189 5.932,-2.8361 2.7441,-1.2778 5.5481,-2.4119 8.1993,-3.8788 1.9765,-1.122 4.0754,-2.0363 6.1688,-2.9245 2.3728,-1.1008 4.8984,-1.8314 7.3146,-2.8255 2.6836,-1.1366 5.5245,-1.6089 8.2128,-2.7248 2.0717,-0.7074 4.0433,-1.6116 6.0584,-2.4586 1.9174,-0.6462 3.7922,-1.3683 5.6969,-2.0538 2.9006,-0.7874 5.7534,-1.7503 8.4507,-3.0816 2.4069,-1.2567 5.0888,-1.6191 7.632,-2.4878 3.1283,-0.8485 6.2147,-1.8275 9.36,-2.6233 2.8007,-0.9916 5.5819,-2.0275 8.5103,-2.5682 2.8569,-1.0038 5.867,-1.4214 8.7692,-2.2367 2.8446,-1.0893 5.8991,-1.3324 8.8061,-2.148 2.4467,-1.0533 5.0706,-1.4262 7.6853,-1.7931 2.0115,-0.3391 3.9001,-1.177 5.8829,-1.6837 1.7366,-0.4306 3.4538,-0.3318 5.0811,-1.1246 1.6104,-0.8259 3.357,-1.1049 5.1326,-1.2995 2.2375,0.082 4.3086,-0.7823 6.4463,-1.3066 2.6854,-0.2838 5.2433,-0.9137 7.8315,-1.6504 2.6107,-0.8183 5.3741,-0.7069 8.0159,-1.3035 2.8791,-0.8259 5.8068,-1.3417 8.7881,-1.5805 3.1911,-0.05 6.2386,-1.1122 9.352,-1.6989 2.2577,-0.4768 4.5642,-0.4998 6.8594,-0.5577 2.7372,0.01 5.4743,0.01 8.2115,0.026 3.1654,0.031 6.3307,0.01 9.4963,0.024 2.8168,-0.029 5.6337,-0.01 8.4505,-0.043 2.043,-0.2939 3.7653,0.2103 5.6534,0.8885 2.2723,0.517 4.4468,1.2728 6.6699,1.9695 2.5518,0.8425 5.0837,1.8184 7.5883,2.8116 2.7073,0.9778 5.3853,1.9737 8.0647,3.031 2.434,0.8676 4.7409,2.0799 7.0225,3.2929 2.8953,1.621 5.6295,3.491 8.3794,5.3462 2.7461,1.2648 4.9377,3.356 7.4853,4.9114 2.4276,1.6667 4.831,3.3522 7.1645,5.1497 2.2747,1.4931 4.4489,3.1734 6.3861,5.0878 1.1169,1.2334 2.0388,2.5208 3.6001,3.1821 0.3949,0.164 0.8048,0.2366 1.2258,0.2534 0.021,0.01 0.035,-0.011 0.053,-0.016 0,0 -15.3168,12.8523 -15.3168,12.8523 l 0,0 c -0.014,0 -0.026,0.016 -0.043,0.01 -0.3867,-0.062 -0.76,-0.1718 -1.1147,-0.3466 -1.5266,-0.7601 -2.3382,-2.05 -3.3989,-3.3509 -1.938,-1.9115 -4.1188,-3.5765 -6.3676,-5.1034 -2.2878,-1.8671 -4.7615,-3.4498 -7.1764,-5.1397 -2.5481,-1.5438 -4.6681,-3.7192 -7.4283,-4.9592 -2.7065,-1.9342 -5.5032,-3.7365 -8.4411,-5.2945 -2.2992,-1.192 -4.6148,-2.3801 -7.0431,-3.2756 -2.6368,-1.1501 -5.3258,-2.0498 -8.0041,-3.0819 -2.5518,-0.9187 -5.0687,-1.8917 -7.6258,-2.7801 -2.2604,-0.6526 -4.4674,-1.3722 -6.7549,-1.8982 -1.8745,-0.6225 -3.5955,-1.1507 -5.6126,-0.9228 -2.782,-0.039 -5.5641,-0.013 -8.3461,-0.044 -3.1785,0.014 -6.3565,-0.012 -9.5349,0.01 -2.7639,0.011 -5.5276,-0.02 -8.2912,0.041 -2.2769,0.026 -4.5598,0.1309 -6.8082,0.5148 -3.0951,0.5694 -6.137,1.5355 -9.2962,1.652 -2.9966,0.2716 -5.9583,0.7635 -8.8467,1.6297 -2.6341,0.6111 -5.4063,0.4694 -8.0119,1.3002 -2.598,0.7457 -5.169,1.369 -7.8606,1.6748 -2.1668,0.5467 -4.2597,1.4295 -6.5268,1.3742 -1.7859,0.1746 -3.5387,0.4963 -5.1548,1.3181 -1.6096,0.7663 -3.3088,0.7037 -5.0298,1.0815 -1.9809,0.4798 -3.8505,1.3807 -5.8563,1.6615 -2.6059,0.279 -5.1792,0.736 -7.6181,1.7366 -2.8865,0.8205 -5.9413,1.0095 -8.7659,2.1142 -2.9255,0.848 -5.9803,1.2236 -8.8485,2.3033 -2.8929,0.5289 -5.66,1.477 -8.4168,2.4898 -3.1828,0.7549 -6.2655,1.8228 -9.42,2.6736 -2.542,0.8487 -5.2013,1.2781 -7.6195,2.4774 -2.7317,1.321 -5.6104,2.2834 -8.5184,3.1384 -1.9046,0.7019 -3.7712,1.4587 -5.709,2.064 -1.9992,0.8513 -3.9508,1.7506 -6.0202,2.4264 -2.6734,1.1068 -5.5228,1.512 -8.1745,2.6927 -2.4441,0.9984 -4.9777,1.7762 -7.3782,2.8788 -2.0748,0.8661 -4.1252,1.8132 -6.1051,2.8711 -2.6702,1.4549 -5.4831,2.5962 -8.2268,3.9019 -1.9553,1.0221 -3.93,2.1002 -5.9778,2.8745 -2.2661,0.7714 -4.4548,1.7609 -6.771,2.381 -2.4227,1.0301 -4.9071,1.6246 -7.4684,2.2007 -2.205,0.677 -4.3895,0.6474 -6.6878,0.5648 -2.3375,0.028 -4.6745,0.01 -7.012,-0.01 -3.5087,-0.061 -7.0189,-0.063 -10.5261,-0.1917 -3.8014,-0.1885 -7.6242,-0.3787 -11.3442,-1.247 -2.3132,-0.5176 -4.6319,-0.6589 -6.9479,-1.1474 -2.7491,-0.6443 -5.2672,-1.8311 -7.9079,-2.7804 -2.6991,-1.1835 -5.3233,-2.5779 -7.7513,-4.2511 -2.5995,-1.8538 -5.4171,-3.3981 -7.9393,-5.3699 -1.6708,-1.483 -3.3959,-2.9013 -4.7934,-4.6463 -1.3689,-1.1886 -2.4234,-2.5279 -3.0808,-4.2381 -1.4017,-2.3765 -3.1455,-4.5568 -4.1557,-7.1551 -1.388,-2.6782 -2.3998,-5.5188 -3.9229,-8.1322 -1.1475,-2.3431 -2.1229,-4.7599 -3.5238,-6.9722 -0.992,-2.2249 -2.1387,-4.4234 -3.6279,-6.356 -1.4811,-1.7349 -2.4592,-3.8339 -4.1567,-5.3928 -2.517,-2.2475 -5.3819,-4.1945 -8.6043,-5.2653 -2.9628,-0.5363 -5.819,-1.0355 -8.81963,-0.3708 -3.83092,0.5298 -7.56918,1.5087 -11.39975,2.0022 -3.5973,0.5779 -7.01008,1.71 -10.52428,2.6242 -4.00913,1.0989 -7.80366,2.7589 -11.57739,4.4871 -3.35358,1.2228 -6.53645,2.8371 -9.76783,4.3454 -6.79226,4.0233 -20.82897,15.5907 5.43207,-6.0477 -7.47982,6.4336 -14.74182,13.1074 -22.96659,18.5492 -2.8436,1.977 -5.78192,3.8105 -8.48755,5.9792 -2.23787,1.5354 -4.48537,2.9702 -7.037,3.945 -2.61123,1.2928 -5.50901,2.1505 -8.30914,2.9144 -3.54933,0.9825 -7.07279,1.9731 -10.76202,2.2973 -3.39201,0.2849 -6.75694,-0.2812 -10.06087,-1.0535 -3.45791,-0.6101 -6.90945,-0.6678 -10.41664,-0.7371 -2.62464,-0.265 -5.25573,-0.6694 -7.66801,-1.7967 -2.87669,-0.9008 -5.91539,-1.2856 -8.67785,-2.5696 -2.44426,-0.9948 -4.94977,-1.7814 -7.49683,-2.4526 -2.82089,-1.0145 -5.40918,-2.5419 -8.17852,-3.6841 -2.6673,-1.2926 -5.5079,-2.2673 -7.992,-3.9088 -2.50886,-1.5864 -5.04707,-3.0917 -7.63057,-4.5567 -2.31335,-1.0753 -4.23713,-2.6963 -6.30388,-4.1653 -2.59939,-1.7065 -5.23534,-3.3105 -7.87062,-4.9597 -3.9294,-2.4685 -7.87563,-4.906 -11.81011,-7.3641 -3.49083,-2.1964 -6.99627,-4.2891 -10.71884,-6.0722 -3.8452,-2.2809 -7.92802,-4.1922 -11.9197,-6.2027 -5.01686,-2.4655 -10.14344,-4.7333 -15.39965,-6.6397 -5.09887,-1.9645 -10.39462,-2.6515 -15.82733,-3.0765 -6.34824,-0.5873 -12.69588,-0.5014 -19.01108,0.4828 -6.01505,1.0308 -11.81352,2.7753 -17.6077,4.6721 0,0 14.96044,-12.5533 14.96044,-12.5533 z"
           inkscape:connector-curvature="0" />
        <path
           inkscape:connector-curvature="0"
           d="m 700.91563,1315.2449 c 5.73623,-1.5782 11.37807,-3.3295 17.24737,-4.3697 6.29601,-1.0288 12.6143,-0.981 18.9427,-0.4255 5.53185,0.2872 10.79981,0.9121 15.95851,2.9664 5.2133,2.0415 10.40123,4.1716 15.44834,6.5989 4.071,1.9006 8.11964,3.8984 12.03127,6.1091 3.78292,1.6693 7.20311,3.9011 10.68657,6.0993 3.91379,2.4824 7.86107,4.9103 11.77804,7.391 2.73946,1.5578 5.45091,3.1169 8.16948,4.7089 2.04192,1.5133 3.94087,3.1213 6.25879,4.2031 2.56947,1.4627 5.05898,3.0382 7.55435,4.6207 2.52813,1.5815 5.35752,2.5648 8.01015,3.8936 2.77015,1.1633 5.37391,2.6524 8.21072,3.657 2.55581,0.6193 5.07188,1.3999 7.47892,2.4676 2.72732,1.4192 5.8309,1.6259 8.70534,2.5466 2.43937,1.0861 5.03569,1.5193 7.66884,1.7961 3.46905,0.1665 6.87354,0.2045 10.29524,0.8389 3.32796,0.6654 6.67588,1.3049 10.0748,1.0418 3.69489,-0.3065 7.22553,-1.3117 10.77354,-2.307 2.84713,-0.7787 5.78501,-1.6896 8.43326,-3.0185 2.5417,-0.9601 4.77449,-2.3894 7.00117,-3.9149 2.69857,-2.146 5.62317,-3.9674 8.44448,-5.9431 1.29794,-1.0664 2.73714,-1.9378 4.12672,-2.8759 0.46369,-0.313 1.81389,-1.3063 1.3881,-0.9434 -14.2688,11.9131 -18.33622,15.4191 -12.38302,10.3045 7.8546,-6.5479 15.54836,-13.6513 24.37792,-18.9659 3.19964,-1.5103 6.37413,-3.0828 9.70287,-4.2909 3.75204,-1.7238 7.54831,-3.3495 11.53399,-4.4507 3.52462,-0.9851 6.96609,-2.1087 10.59161,-2.6807 3.8332,-0.4992 7.5981,-1.4047 11.4188,-2.0182 3.0155,-0.8013 5.8576,-0.228 8.8344,0.3584 3.213,1.0537 6.086,3.0442 8.6236,5.2492 1.8444,1.4237 2.8145,3.5441 4.2745,5.2938 1.4919,1.9399 2.6088,4.1535 3.5859,6.3914 1.3297,2.2376 2.478,4.6026 3.5026,6.99 1.4186,2.6567 2.4682,5.489 3.9437,8.1147 0.9687,2.6233 2.7348,4.7926 4.1472,7.1623 0.7271,1.6566 1.8963,2.9267 3.2023,4.1361 1.3862,1.7358 3.024,3.2556 4.6561,4.7614 2.5191,1.9612 5.2622,3.5968 7.8681,5.4297 2.4693,1.6264 5.1168,3.0065 7.8279,4.1868 2.6357,0.9871 5.165,2.1247 7.919,2.7712 2.337,0.3323 4.6217,0.5904 6.9116,1.1778 3.6706,0.9502 7.4583,1.1791 11.2291,1.3436 3.5531,0.1297 7.1093,0.134 10.6638,0.076 2.352,-0.02 4.7033,-0.053 7.0553,-0.03 2.306,0.07 4.4911,0.079 6.7057,-0.5799 2.5835,-0.526 5.0689,-1.1367 7.483,-2.2129 2.3239,-0.5844 4.4986,-1.6009 6.7602,-2.3719 2.016,-0.8075 3.9939,-1.8189 5.932,-2.8361 2.7441,-1.2778 5.5481,-2.4119 8.1993,-3.8788 1.9765,-1.122 4.0754,-2.0363 6.1688,-2.9245 2.3728,-1.1008 4.8984,-1.8314 7.3146,-2.8255 2.6836,-1.1366 5.5245,-1.6089 8.2128,-2.7248 2.0717,-0.7074 4.0433,-1.6116 6.0584,-2.4586 1.9174,-0.6462 3.7922,-1.3683 5.6969,-2.0538 2.9006,-0.7874 5.7534,-1.7503 8.4507,-3.0816 2.4069,-1.2567 5.0888,-1.6191 7.632,-2.4878 3.1283,-0.8485 6.2147,-1.8275 9.36,-2.6233 2.8007,-0.9916 5.5819,-2.0275 8.5103,-2.5682 2.8569,-1.0038 5.867,-1.4214 8.7692,-2.2367 2.8446,-1.0893 5.8991,-1.3324 8.8061,-2.148 2.4467,-1.0533 5.0706,-1.4262 7.6853,-1.7931 2.0115,-0.3391 3.9001,-1.177 5.8829,-1.6837 1.7366,-0.4306 3.4538,-0.3318 5.0811,-1.1246 1.6104,-0.8259 3.357,-1.1049 5.1326,-1.2995 2.2375,0.082 4.3086,-0.7823 6.4463,-1.3066 2.6854,-0.2838 5.2433,-0.9137 7.8315,-1.6504 2.6107,-0.8183 5.3741,-0.7069 8.0159,-1.3035 2.8791,-0.8259 5.8068,-1.3417 8.7881,-1.5805 3.1911,-0.05 6.2386,-1.1122 9.352,-1.6989 2.2577,-0.4768 4.5642,-0.4998 6.8594,-0.5577 2.7372,0.01 5.4743,0.01 8.2115,0.026 3.1654,0.031 6.3307,0.01 9.4963,0.024 2.8168,-0.029 5.6337,-0.01 8.4505,-0.043 2.043,-0.2939 3.7653,0.2103 5.6534,0.8885 2.2723,0.517 4.4468,1.2728 6.6699,1.9695 2.5518,0.8425 5.0837,1.8184 7.5883,2.8116 2.7073,0.9778 5.3853,1.9737 8.0647,3.031 2.434,0.8676 4.7409,2.0799 7.0225,3.2929 2.8953,1.621 5.6295,3.491 8.3794,5.3462 2.7461,1.2648 4.9377,3.356 7.4853,4.9114 2.4276,1.6667 4.831,3.3522 7.1645,5.1497 2.2747,1.4931 4.4489,3.1734 6.3861,5.0878 1.1169,1.2334 2.0388,2.5208 3.6001,3.1821 0.3949,0.164 0.8048,0.2366 1.2258,0.2534 0.021,0.01 0.035,-0.011 0.053,-0.016 0,0 -15.3168,12.8523 -15.3168,12.8523 l 0,0 c -0.014,0 -0.026,0.016 -0.043,0.01 -0.3867,-0.062 -0.76,-0.1718 -1.1147,-0.3466 -1.5266,-0.7601 -2.3382,-2.05 -3.3989,-3.3509 -1.938,-1.9115 -4.1188,-3.5765 -6.3676,-5.1034 -2.2878,-1.8671 -4.7615,-3.4498 -7.1764,-5.1397 -2.5481,-1.5438 -4.6681,-3.7192 -7.4283,-4.9592 -2.7065,-1.9342 -5.5032,-3.7365 -8.4411,-5.2945 -2.2992,-1.192 -4.6148,-2.3801 -7.0431,-3.2756 -2.6368,-1.1501 -5.3258,-2.0498 -8.0041,-3.0819 -2.5518,-0.9187 -5.0687,-1.8917 -7.6258,-2.7801 -2.2604,-0.6526 -4.4674,-1.3722 -6.7549,-1.8982 -1.8745,-0.6225 -3.5955,-1.1507 -5.6126,-0.9228 -2.782,-0.039 -5.5641,-0.013 -8.3461,-0.044 -3.1785,0.014 -6.3565,-0.012 -9.5349,0.01 -2.7639,0.011 -5.5276,-0.02 -8.2912,0.041 -2.2769,0.026 -4.5598,0.1309 -6.8082,0.5148 -3.0951,0.5694 -6.137,1.5355 -9.2962,1.652 -2.9966,0.2716 -5.9583,0.7635 -8.8467,1.6297 -2.6341,0.6111 -5.4063,0.4694 -8.0119,1.3002 -2.598,0.7457 -5.169,1.369 -7.8606,1.6748 -2.1668,0.5467 -4.2597,1.4295 -6.5268,1.3742 -1.7859,0.1746 -3.5387,0.4963 -5.1548,1.3181 -1.6096,0.7663 -3.3088,0.7037 -5.0298,1.0815 -1.9809,0.4798 -3.8505,1.3807 -5.8563,1.6615 -2.6059,0.279 -5.1792,0.736 -7.6181,1.7366 -2.8865,0.8205 -5.9413,1.0095 -8.7659,2.1142 -2.9255,0.848 -5.9803,1.2236 -8.8485,2.3033 -2.8929,0.5289 -5.66,1.477 -8.4168,2.4898 -3.1828,0.7549 -6.2655,1.8228 -9.42,2.6736 -2.542,0.8487 -5.2013,1.2781 -7.6195,2.4774 -2.7317,1.321 -5.6104,2.2834 -8.5184,3.1384 -1.9046,0.7019 -3.7712,1.4587 -5.709,2.064 -1.9992,0.8513 -3.9508,1.7506 -6.0202,2.4264 -2.6734,1.1068 -5.5228,1.512 -8.1745,2.6927 -2.4441,0.9984 -4.9777,1.7762 -7.3782,2.8788 -2.0748,0.8661 -4.1252,1.8132 -6.1051,2.8711 -2.6702,1.4549 -5.4831,2.5962 -8.2268,3.9019 -1.9553,1.0221 -3.93,2.1002 -5.9778,2.8745 -2.2661,0.7714 -4.4548,1.7609 -6.771,2.381 -2.4227,1.0301 -4.9071,1.6246 -7.4684,2.2007 -2.205,0.677 -4.3895,0.6474 -6.6878,0.5648 -2.3375,0.028 -4.6745,0.01 -7.012,-0.01 -3.5087,-0.061 -7.0189,-0.063 -10.5261,-0.1917 -3.8014,-0.1885 -7.6242,-0.3787 -11.3442,-1.247 -2.3132,-0.5176 -4.6319,-0.6589 -6.9479,-1.1474 -2.7491,-0.6443 -5.2672,-1.8311 -7.9079,-2.7804 -2.6991,-1.1835 -5.3233,-2.5779 -7.7513,-4.2511 -2.5995,-1.8538 -5.4171,-3.3981 -7.9393,-5.3699 -1.6708,-1.483 -3.3959,-2.9013 -4.7934,-4.6463 -1.3689,-1.1886 -2.4234,-2.5279 -3.0808,-4.2381 -1.4017,-2.3765 -3.1455,-4.5568 -4.1557,-7.1551 -1.388,-2.6782 -2.3998,-5.5188 -3.9229,-8.1322 -1.1475,-2.3431 -2.1229,-4.7599 -3.5238,-6.9722 -0.992,-2.2249 -2.1387,-4.4234 -3.6279,-6.356 -1.4811,-1.7349 -2.4592,-3.8339 -4.1567,-5.3928 -2.517,-2.2475 -5.3819,-4.1945 -8.6043,-5.2653 -2.9628,-0.5363 -5.819,-1.0355 -8.81963,-0.3708 -3.83092,0.5298 -7.56918,1.5087 -11.39975,2.0022 -3.5973,0.5779 -7.01008,1.71 -10.52428,2.6242 -4.00913,1.0989 -7.80366,2.7589 -11.57739,4.4871 -3.35358,1.2228 -6.53645,2.8371 -9.76783,4.3454 -6.79226,4.0233 -20.82897,15.5907 5.43207,-6.0477 -7.47982,6.4336 -14.74182,13.1074 -22.96659,18.5492 -2.8436,1.977 -5.78192,3.8105 -8.48755,5.9792 -2.23787,1.5354 -4.48537,2.9702 -7.037,3.945 -2.61123,1.2928 -5.50901,2.1505 -8.30914,2.9144 -3.54933,0.9825 -7.07279,1.9731 -10.76202,2.2973 -3.39201,0.2849 -6.75694,-0.2812 -10.06087,-1.0535 -3.45791,-0.6101 -6.90945,-0.6678 -10.41664,-0.7371 -2.62464,-0.265 -5.25573,-0.6694 -7.66801,-1.7967 -2.87669,-0.9008 -5.91539,-1.2856 -8.67785,-2.5696 -2.44426,-0.9948 -4.94977,-1.7814 -7.49683,-2.4526 -2.82089,-1.0145 -5.40918,-2.5419 -8.17852,-3.6841 -2.6673,-1.2926 -5.5079,-2.2673 -7.992,-3.9088 -2.50886,-1.5864 -5.04707,-3.0917 -7.63057,-4.5567 -2.31335,-1.0753 -4.23713,-2.6963 -6.30388,-4.1653 -2.59939,-1.7065 -5.23534,-3.3105 -7.87062,-4.9597 -3.9294,-2.4685 -7.87563,-4.906 -11.81011,-7.3641 -3.49083,-2.1964 -6.99627,-4.2891 -10.71884,-6.0722 -3.8452,-2.2809 -7.92802,-4.1922 -11.9197,-6.2027 -5.01686,-2.4655 -10.14344,-4.7333 -15.39965,-6.6397 -5.09887,-1.9645 -10.39462,-2.6515 -15.82733,-3.0765 -6.34824,-0.5873 -12.69588,-0.5014 -19.01108,0.4828 -6.01505,1.0308 -11.81352,2.7753 -17.6077,4.6721 0,0 14.96044,-12.5533 14.96044,-12.5533 z"
           id="path10390"
           style="opacity:1;fill:#4f5858;fill-opacity:1;stroke:none;stroke-width:0.99999994;stroke-linecap:butt;stroke-linejoin:miter;stroke-miterlimit:4;stroke-dasharray:none;stroke-dashoffset:0;stroke-opacity:1" />
      </g>
      <g
         transform="translate(368,488)"
         id="g10474">
        <g
           transform="translate(0,320)"
           id="g10476">
          <g
             transform="translate(532,358)"
             id="g10478">
            <circle
               r="157.5"
               cy="571.55634"
               cx="-335.20422"
               id="circle10480"
               style="opacity:1;fill:#4f5858;fill-opacity:1;stroke:none;stroke-width:1;stroke-miterlimit:4;stroke-dasharray:none;stroke-dashoffset:0;stroke-opacity:1" />
            <circle
               style="opacity:0.2;fill:none;fill-opacity:1;stroke:#bdcdd4;stroke-width:1;stroke-miterlimit:4;stroke-dasharray:none;stroke-dashoffset:0;stroke-opacity:1"
               id="circle10482"
               cx="-335.20422"
               cy="571.55634"
               r="157.5" />
          </g>
          <g
             id="g10484"
             transform="matrix(0,1.4623679,-1.4623679,0,1356.4322,384.07461)">
            <path
               transform="rotate(8.3971727,365.43302,1205.1603)"
               d="m 390,828 -63.48076,49.95191 -75,-30 L 240,768 l 63.48076,-49.95191 75,30 z"
               inkscape:randomized="0"
               inkscape:rounded="0"
               inkscape:flatsided="true"
               sodipodi:arg2="0.90410515"
               sodipodi:arg1="0.38050638"
               sodipodi:r2="69.955345"
               sodipodi:r1="80.777473"
               sodipodi:cy="798"
               sodipodi:cx="315"
               sodipodi:sides="6"
               id="path10486"
               style="opacity:1;fill:none;fill-opacity:1;stroke:#f5f3f2;stroke-width:2.73528981;stroke-miterlimit:4;stroke-dasharray:none;stroke-dashoffset:0;stroke-opacity:1"
               sodipodi:type="star" />
            <circle
               r="24.672417"
               cy="865.5"
               cx="373.5"
               id="circle10488"
               style="opacity:1;fill:#e2656d;fill-opacity:1;stroke:#f5f3f2;stroke-width:2.73528981;stroke-miterlimit:4;stroke-dasharray:none;stroke-dashoffset:0;stroke-opacity:1" />
            <circle
               style="opacity:1;fill:#2d9cd7;fill-opacity:1;stroke:#f5f3f2;stroke-width:2.73528981;stroke-miterlimit:4;stroke-dasharray:none;stroke-dashoffset:0;stroke-opacity:1"
               id="circle10490"
               cx="373.5"
               cy="721.5"
               r="24.672417" />
            <circle
               r="24.672417"
               cy="757.5"
               cx="439.5"
               id="circle10492"
               style="opacity:1;fill:#79d1ed;fill-opacity:1;stroke:#f5f3f2;stroke-width:2.73528981;stroke-miterlimit:4;stroke-dasharray:none;stroke-dashoffset:0;stroke-opacity:1" />
            <circle
               style="opacity:1;fill:#2d9cd7;fill-opacity:1;stroke:#f5f3f2;stroke-width:2.73528981;stroke-miterlimit:4;stroke-dasharray:none;stroke-dashoffset:0;stroke-opacity:1"
               id="circle10494"
               cx="439.5"
               cy="829.5"
               r="24.672417" />
            <circle
               style="opacity:1;fill:#84c98a;fill-opacity:1;stroke:#f5f3f2;stroke-width:2.73528981;stroke-miterlimit:4;stroke-dasharray:none;stroke-dashoffset:0;stroke-opacity:1"
               id="circle10496"
               cx="307.5"
               cy="757.5"
               r="24.672417" />
            <circle
               r="24.672417"
               cy="829.5"
               cx="307.5"
               id="circle10498"
               style="opacity:1;fill:#2d9cd7;fill-opacity:1;stroke:#f5f3f2;stroke-width:2.73528981;stroke-miterlimit:4;stroke-dasharray:none;stroke-dashoffset:0;stroke-opacity:1" />
          </g>
        </g>
        <g
           transform="translate(-729,574)"
           id="g10500">
          <use
             style="fill:#e2656d"
             id="use10502"
             xlink:href="#O"
             transform="translate(360.41908,510.94037)"
             x="0"
             y="0"
             width="100%"
             height="100%" />
          <use
             style="fill:#84c98a"
             id="use10504"
             xlink:href="#M"
             transform="translate(430.20255,328.65986)"
             x="0"
             y="0"
             width="100%"
             height="100%" />
          <use
             style="fill:#79d1ed"
             id="use10506"
             xlink:href="#E"
             transform="translate(170.22491,431.17589)"
             x="0"
             y="0"
             width="100%"
             height="100%" />
        </g>
      </g>
      <g
         id="g10426"
         transform="translate(-26,472)"
         style="fill:#f5f3f2">
        <use
           style="fill:#f5f3f2"
           height="100%"
           width="100%"
           y="0"
           x="0"
           transform="matrix(2.4769241,0,0,2.4769241,357.3055,780.42866)"
           xlink:href="#cS"
           id="use10428" />
        <use
           style="fill:#f5f3f2"
           height="100%"
           width="100%"
           y="0"
           x="0"
           transform="matrix(2.4769241,0,0,2.4769241,-1267.359,786.82084)"
           xlink:href="#m"
           id="use10430" />
        <use
           style="fill:#f5f3f2"
           height="100%"
           width="100%"
           y="0"
           x="0"
           transform="matrix(2.4769241,0,0,2.4769241,-895.01022,578.30206)"
           xlink:href="#u"
           id="use10432" />
        <use
           style="fill:#f5f3f2"
           height="100%"
           width="100%"
           y="0"
           x="0"
           transform="matrix(2.4242173,0.5082574,-0.5082574,2.4242173,-38.757042,166.44828)"
           xlink:href="#g"
           id="use10434" />
        <use
           style="fill:#f5f3f2"
           height="100%"
           width="100%"
           y="0"
           x="0"
           transform="matrix(2.4769241,0,0,2.4769241,-809.96187,780.01921)"
           xlink:href="#l"
           id="use10436" />
        <use
           style="fill:#f5f3f2"
           height="100%"
           width="100%"
           y="0"
           x="0"
           transform="matrix(2.2722788,0,0,2.3119987,-109.76271,802.7374)"
           xlink:href="#e"
           id="use10438" />
        <use
           style="fill:#f5f3f2"
           height="100%"
           width="100%"
           y="0"
           x="0"
           transform="matrix(2.4769241,0,0,2.4769241,-194.77382,617.97701)"
           xlink:href="#r"
           id="use10440" />
        <use
           style="fill:#f5f3f2"
           id="use10442"
           xlink:href="#g"
           transform="matrix(2.4242173,0.5082574,-0.5082574,2.4242173,36.596629,156.44826)"
           x="0"
           y="0"
           width="100%"
           height="100%" />
      </g>
    </g>
    <g
       id="M">
      <path
         inkscape:connector-curvature="0"
         d="m 491.74981,312.15689 c -5.51348,8.89389 -7.37821,19.22872 -8.77938,29.42667 -0.70366,7.78901 -0.83463,15.7414 0.60026,23.46146 0.12875,0.23998 0.2575,0.47996 0.38625,0.71994 0,0 -8.43916,4.87235 -8.43916,4.87235 l 0,0 c -0.0536,-0.28338 -0.10716,-0.56676 -0.16074,-0.85014 -0.28515,-8.07914 -0.24316,-16.19553 0.73311,-24.23128 0.51402,-3.77078 1.20021,-9.37234 2.01491,-13.10768 1.15719,-5.30565 2.94705,-10.47208 5.1882,-15.40893 0,0 8.45655,-4.88239 8.45655,-4.88239 z"
         id="path15559" />
      <path
         inkscape:connector-curvature="0"
         d="m 492.66632,313.53908 c 2.27034,6.33681 4.69752,12.61007 6.70333,19.03899 0.66964,2.24538 1.36656,4.48507 1.94447,6.75658 0.0716,0.34477 0.0512,0.36634 0.41522,0.191 -2.74535,1.54508 -5.4907,3.09016 -8.23605,4.63524 0,0 8.54153,-4.93145 8.54153,-4.93145 l 0,0 c -2.96142,1.74972 -5.91891,3.50612 -8.88427,5.24917 -0.43899,0.25804 -0.41327,0.19195 -0.40477,-0.19703 -0.16461,-2.41826 -0.75171,-4.79054 -1.26061,-7.1514 -1.68387,-6.48456 -3.77998,-12.95531 -7.19456,-18.75538 0,0 8.37571,-4.83572 8.37571,-4.83572 z"
         id="path15561" />
      <path
         inkscape:connector-curvature="0"
         d="m 499.84255,339.31022 c 4.49129,-2.27182 -3.28497,2.22732 -5.08823,3.03077 -0.86156,0.38387 1.49394,-1.1543 2.19839,-1.78151 2.68337,-2.38918 3.90033,-3.98939 5.78079,-7.02684 2.05456,-3.68612 3.64215,-7.62238 4.75522,-11.69055 0.10512,-0.47661 0.27471,-0.9751 0.24803,-1.46154 -0.22121,-0.34385 -0.13916,-0.87784 -0.12169,-1.2916 0.008,-0.19384 0.0258,-0.38693 0.049,-0.57941 9.12252,-5.31072 9.08313,-7.53965 8.32412,-2.12191 -1.42399,10.39265 -1.83683,20.87265 -2.1504,31.34631 -0.10643,7.05598 -0.096,14.11929 0.2963,21.16703 0.36152,4.98883 1.01725,1.40912 -8.42769,6.58156 -0.60684,-3.2745 8.02628,-8.12376 8.60668,-4.71406 -2.86918,1.56975 -5.72028,3.17302 -8.60756,4.70924 -0.0497,0.0265 -0.0761,-0.13975 -0.0267,-0.16677 2.87017,-1.57056 5.72419,-3.17107 8.6117,-4.70954 0.0338,-0.018 0.009,0.076 0.0135,0.11401 -13.8163,7.66914 -9.16168,4.73496 -0.0138,-0.12683 0.0352,-0.0187 0.009,0.0792 0.0135,0.11877 -13.30796,7.41009 -9.66932,5.02621 -0.0121,-0.12218 0.0339,-0.0181 0.009,0.0764 0.013,0.11455 0.003,0.0111 0.006,0.0223 0.01,0.0334 0,0 -8.64962,4.99386 -8.64962,4.99386 l 0,0 c 0.004,-0.0155 0.009,-0.031 0.0132,-0.0465 0.06,-0.33397 22.89725,-13.76782 2.8e-4,0.007 0.0614,-0.34154 22.88625,-13.78835 -10e-4,0.009 0.6077,-3.32172 9.55368,-8.26861 8.6547,-5.37806 -0.0202,0.065 0.0205,0.16473 -0.0372,0.20069 -2.85818,1.77905 -5.75458,3.49596 -8.63187,5.24394 0.72649,-3.35721 9.43084,-8.84359 8.63428,-5.24001 -9.84436,5.97542 -8.80314,8.31299 -8.44086,3.1575 0.51535,-7.31241 0.82654,-14.63725 1.08211,-21.96286 0.28375,-10.19624 0.59356,-20.39138 0.83605,-30.58746 -0.0192,-5.38265 -0.73525,-2.39323 8.54246,-7.61602 -0.0502,0.20179 -0.0898,0.40587 -0.10823,0.61359 -0.0352,0.40027 -0.14455,0.97317 0.18256,1.25646 -0.11602,0.54991 -0.32538,1.08025 -0.50853,1.61193 -1.51692,4.11975 -3.2382,8.1755 -5.34503,12.03108 -0.54189,0.90781 -1.00424,1.8681 -1.62567,2.72344 -4.26059,5.86438 -11.34719,9.33233 -17.55828,12.46091 0,0 8.48893,-4.90109 8.48893,-4.90109 z"
         id="path15567" />
    </g>
    <g
       id="g">
      <path
         inkscape:connector-curvature="0"
         d="m 534.04746,319.5646 c -3.03822,0.87778 -8.90575,2.56558 4.58483,-2.99581 0.60188,-0.24812 -0.95138,0.89461 -1.36185,1.39992 -1.04911,1.2915 -1.37588,2.09882 -2.1321,3.55552 -0.87679,2.21999 -2.43011,5.38433 -0.4636,7.52845 0.33368,0.36382 0.79203,0.58952 1.18805,0.88428 0.48913,0.17366 0.94956,0.48549 1.46739,0.52096 1.87385,0.12837 4.85569,-1.65431 3.84112,-1.21134 -1.98148,0.86514 -3.76341,2.57346 -5.92448,2.64065 -1.07347,0.0334 1.37993,-1.64846 2.00904,-2.51892 0.59799,-0.82739 1.11193,-1.7124 1.6679,-2.5686 0.86291,-1.85409 3.69635,-5.53037 1.2039,-7.41701 -0.3862,-0.29232 -0.86135,-0.50645 -1.34338,-0.55383 -0.64068,-0.063 -1.27811,0.15556 -1.91716,0.23333 -0.71215,0.28752 -1.42431,0.57504 -2.13646,0.86256 0,0 8.04303,-4.64365 8.04303,-4.64365 l 0,0 c 0.74269,-0.30515 1.48537,-0.61029 2.22806,-0.91544 0.68619,-0.10499 1.36577,-0.35857 2.05857,-0.31497 4.43956,0.27935 0.73429,6.6393 -0.28209,8.21423 -4.57144,6.97129 -4.11467,5.68175 -13.68408,11.64499 -1.72782,1.07671 -3.59176,1.71191 -5.50054,0.80126 -0.41313,-0.28488 -0.8969,-0.48786 -1.2394,-0.85464 -1.98299,-2.12357 -0.18361,-5.48655 0.66021,-7.64196 0.714,-1.36448 1.13236,-2.32164 2.0999,-3.53693 3.26266,-4.09814 8.40086,-6.63188 13.40281,-8.00302 0,0 -8.46967,4.88997 -8.46967,4.88997 z"
         id="path11560" />
      <path
         inkscape:connector-curvature="0"
         d="m 550.11522,315.27272 c -0.85981,4.44147 -0.9444,8.99308 -1.06604,13.50211 -0.3267,6.8423 0.0802,13.69889 -0.40414,20.53122 -0.42184,4.84135 -0.6914,8.99219 -4.37463,12.4862 -5.83963,3.37444 -9.44602,7.63517 -15.56849,4.89598 -1.26145,-0.76662 -2.78785,-1.26796 -3.58776,-2.57854 -0.24506,-0.57908 -0.37667,-1.12077 -0.72924,-1.62646 -0.40053,-0.44832 -0.55886,-0.89655 -0.61159,-1.48824 0.16256,-1.51314 1.31563,-3.11626 2.18165,-4.35508 5.27266,-4.52023 11.89381,-7.69645 17.82454,-11.10407 2.32419,-1.28713 4.66011,-2.55368 7.01891,-3.77638 0.17144,-0.0932 0.45476,-0.23195 0.61395,-0.3049 -16.11898,9.4537 -7.73574,4.24697 0.008,-0.003 3.5678,-2.04523 -10.87745,6.60868 -8.69651,4.96342 3.16352,-2.21438 7.04205,-4.09667 10.13123,-5.89051 2.62507,-1.52435 -5.26794,3.01786 -7.90766,4.51669 -0.21397,0.12149 0.42007,-0.25634 0.63011,-0.38451 3.5198,-2.03687 6.98208,-4.1821 10.58186,-6.07547 0.0556,-0.0336 0.14039,-0.0699 0.19463,-0.0952 -0.004,0.003 -0.008,0.005 -0.0125,0.008 0,0 -8.65898,4.99926 -8.65898,4.99926 l 0,0 c 0.004,-0.002 0.008,-0.005 0.0118,-0.007 -0.0367,0.0171 -0.11808,0.0459 -0.15614,0.073 -4.8195,2.49585 10.82091,-6.25011 6.50785,-3.79129 -5.54517,3.38698 -18.41798,10.71847 -1.75739,1.03929 0.93751,-0.54466 -2.03821,1.10898 -0.98147,0.65276 -1.56115,1.27086 -5.01774,3.41118 -8.50802,4.96962 -4.15764,2.24215 26.14763,-15.01543 -0.0454,0.0247 -0.11149,0.0453 -0.36869,0.16551 -0.49007,0.23338 -2.19052,1.11481 -4.35022,2.28934 -6.50153,3.47767 13.03316,-7.58724 1.02701,-0.97149 -1.4488,1.64954 -0.81854,1.21162 -1.89188,2.74706 -1.97421,4.23531 0.0895,0.56347 0.24744,1.0398 0.63239,1.47623 0.41107,0.49715 0.40832,1.06203 0.66655,1.66264 0.77113,1.30547 2.17253,1.89669 3.41589,2.67778 1.11359,0.51498 2.16379,0.88125 3.40716,0.93365 0.42922,0.0181 0.86329,0.0284 1.28836,-0.0338 0.41538,-0.0608 1.56482,-0.56434 1.2147,-0.3327 -2.24112,1.48273 -4.62139,2.74356 -6.93208,4.11535 3.83327,-3.56263 4.28496,-7.74403 4.83061,-12.74947 0.50146,-6.81024 0.20332,-13.65362 0.31262,-20.47838 0.0823,-4.38586 0.0518,-8.78874 0.46972,-13.15782 0,0 8.46967,-4.88997 8.46967,-4.88997 z"
         id="path11562" />
    </g>
  </g>
</svg>
