<?xml version="1.0" encoding="UTF-8" standalone="no"?>
<svg
   xmlns:dc="http://purl.org/dc/elements/1.1/"
   xmlns:cc="http://creativecommons.org/ns#"
   xmlns:rdf="http://www.w3.org/1999/02/22-rdf-syntax-ns#"
   xmlns:svg="http://www.w3.org/2000/svg"
   xmlns="http://www.w3.org/2000/svg"
   xmlns:sodipodi="http://sodipodi.sourceforge.net/DTD/sodipodi-0.dtd"
   xmlns:inkscape="http://www.inkscape.org/namespaces/inkscape"
   width="1024px"
   height="768px"
   viewBox="0 0 1024 768"
   id="svg9493"
   version="1.1"
   inkscape:version="0.91+devel+osxmenu r12898"
   sodipodi:docname="use-cases.svg">
  <sodipodi:namedview
     pagecolor="#3c4747"
     bordercolor="#ffffff"
     borderopacity="1"
     inkscape:pageopacity="0"
     inkscape:pageshadow="2"
     inkscape:zoom="1"
     inkscape:document-units="px"
     inkscape:current-layer="layer1"
     showgrid="true"
     inkscape:window-maximized="0"
     inkscape:showpageshadow="false"
     borderlayer="true"
     id="namedview9495"
     inkscape:cx="504.07547"
     inkscape:cy="392.22896"
     inkscape:window-width="1440"
     inkscape:window-height="851"
     inkscape:window-x="0"
     inkscape:window-y="23">
    <inkscape:grid
       type="xygrid"
       color="#b5357b"
       opacity="0.1254902"
       empcolor="#5d6e79"
       empopacity="0.25098039"
       enabled="true"
       empspacing="15"
       id="grid9497" />
  </sodipodi:namedview>
  <defs
     id="defs9499">
    <style
       type="text/css"
       id="style8875"><![CDATA[
      @import url(https://fonts.googleapis.com/css?family=Cherry+Cream+Soda);
    ]]></style>
  </defs>
  <metadata
     id="metadata9501">
    <rdf:RDF>
      <cc:Work>
        <dc:format>image/svg+xml</dc:format>
        <dc:type
           rdf:resource="http://purl.org/dc/dcmitype/StillImage" />
        <dc:title />
      </cc:Work>
    </rdf:RDF>
  </metadata>
  <g
     inkscape:groupmode="layer"
     id="layer0"
     inkscape:label="Background Fill"
     sodipodi:insensitive="true">
    <rect
       style="fill:#3c4747"
       width="1050"
       height="800"
       x="-10"
       y="-22"
       id="rect8879" />
  </g>
  <g
     id="layer1"
     inkscape:groupmode="layer"
     inkscape:label="Layer 1">
    <text
       sodipodi:linespacing="125%"
       id="text11920"
       y="640"
       x="395"
       style="font-style:normal;font-variant:normal;font-weight:normal;font-stretch:normal;font-size:42.66666794px;line-height:125%;font-family:'Cherry Cream Soda';-inkscape-font-specification:'Cherry Cream Soda';text-indent:0;text-align:start;text-decoration:none;text-decoration-line:none;text-decoration-style:solid;text-decoration-color:#000000;letter-spacing:0px;word-spacing:0px;text-transform:none;direction:ltr;block-progression:tb;writing-mode:lr-tb;baseline-shift:baseline;text-anchor:start;shape-padding:0;opacity:1;fill:#cccccc;fill-opacity:1;stroke:none;stroke-width:1px;stroke-linecap:butt;stroke-linejoin:miter;stroke-miterlimit:4;stroke-dasharray:none;stroke-dashoffset:0;stroke-opacity:1;"
       xml:space="preserve"><tspan
         y="640"
         x="395"
         id="tspan11922"
         sodipodi:role="line">use cases</tspan></text>
    <text
       sodipodi:linespacing="125%"
       id="text8968"
       y="97"
       x="198.73526"
       style="font-style:normal;font-variant:normal;font-weight:normal;font-stretch:normal;font-size:42.66666794px;line-height:125%;font-family:'Cherry Cream Soda';-inkscape-font-specification:'Cherry Cream Soda';text-indent:0;text-align:center;text-decoration:none;text-decoration-line:none;text-decoration-style:solid;text-decoration-color:#000000;letter-spacing:0px;word-spacing:0px;text-transform:none;direction:ltr;block-progression:tb;writing-mode:lr-tb;baseline-shift:baseline;text-anchor:middle;shape-padding:0;display:inline;opacity:1;fill:#f37962;fill-opacity:1;stroke:none;stroke-width:1px;stroke-linecap:butt;stroke-linejoin:miter;stroke-miterlimit:4;stroke-dasharray:none;stroke-dashoffset:0;stroke-opacity:1;"
       xml:space="preserve"><tspan
         y="97"
         x="198.73526"
         id="tspan8970"
         sodipodi:role="line">import tied to<tspan
   id="tspan8972"
   style="text-align:center;text-anchor:middle;fill:#f37962;-inkscape-font-specification:'Cherry Cream Soda';font-family:'Cherry Cream Soda';font-weight:normal;font-style:normal;font-stretch:normal;font-variant:normal;" /></tspan><tspan
         y="150.33333"
         x="198.73526"
         sodipodi:role="line"
         id="tspan8976">login session</tspan></text>
    <g
       style="display:inline"
       id="g8988"
       transform="matrix(-0.02856661,0.99928909,0.75718668,0.03770048,101.92239,-120.13254)">
      <path
         inkscape:connector-curvature="0"
         d="m 203.9526,390.6564 c -0.29191,1.57412 -0.6403,3.13881 -0.87573,4.72237 -0.96715,6.50542 -1.67129,13.75943 -2.24803,20.23166 -1.19303,13.38818 -2.00843,26.79514 -2.76324,40.21336 -0.64272,12.76615 -1.12337,25.55307 -0.94231,38.33773 0.16804,4.9787 -0.29848,2.14504 -8.76957,6.11245 0,0 8.44963,-4.8784 8.44963,-4.8784 l 0,0 c -10.9991,7.63307 -8.24964,8.41015 -7.73597,3.41703 1.46606,-13.25382 2.57337,-26.54554 3.55026,-39.84343 1.57506,-21.12508 2.95844,-42.27731 2.95129,-63.47246 0,0 8.38367,-4.84031 8.38367,-4.84031 z"
         id="path8982"
         style="opacity:1;fill:#cccccc;fill-opacity:1;stroke:none;stroke-width:0.99999994;stroke-linecap:butt;stroke-linejoin:miter;stroke-miterlimit:4;stroke-dasharray:none;stroke-dashoffset:0;stroke-opacity:1" />
      <path
         inkscape:connector-curvature="0"
         d="m 245.04483,396.91144 c -3.28973,18.26715 -4.46549,36.80803 -5.5639,55.30758 -0.71725,15.1052 -1.00975,30.23902 -0.51856,45.35581 0.4623,0.61543 -0.27128,3.41121 0.31519,4.06803 0,0 -8.62754,4.98112 -8.62754,4.98112 l 0,0 c 0.58832,-1.35398 -0.0413,-3.15386 0.46576,-4.51892 1.24384,-15.5756 2.17729,-31.17381 2.98164,-46.77787 0.92497,-17.8666 2.01757,-35.72501 2.61851,-53.60705 0,0 8.3289,-4.8087 8.3289,-4.8087 z"
         id="path8984"
         style="opacity:1;fill:#cccccc;fill-opacity:1;stroke:none;stroke-width:0.99999994;stroke-linecap:butt;stroke-linejoin:miter;stroke-miterlimit:4;stroke-dasharray:none;stroke-dashoffset:0;stroke-opacity:1" />
      <path
         inkscape:connector-curvature="0"
         d="m 169.13707,471.3043 c 11.04897,9.71014 20.30958,21.25421 29.62061,32.58274 7.87591,9.3787 15.56446,18.91115 23.32226,28.38489 0.28428,0.33525 0.56543,0.67319 0.85284,1.00575 0.15489,0.17922 0.31297,0.35571 0.47395,0.52947 0.0935,0.10097 0.42593,0.21171 0.3053,0.27798 -8.78318,4.82524 -6.72794,7.34357 -8.89784,4.57409 -0.13403,-0.20103 -0.18818,-0.20304 -0.42972,-0.20336 -0.21407,-0.0255 -0.56339,0.143 -0.63737,-0.0893 -0.0479,-0.39132 -0.47128,-0.59865 -0.79124,-0.76401 -0.42861,-1.85774 0.0178,-3.99825 0.21495,-5.87378 1.71616,-8.31724 8.15333,-14.65006 13.62488,-20.74651 8.53958,-9.40152 18.34299,-17.48957 28.35575,-25.2514 5.52923,-4.34527 11.68013,-7.64135 17.75854,-11.13974 0.16181,-0.10731 0.35846,-0.16568 0.55134,-0.18791 -0.0353,0.0356 -0.0784,0.0613 -0.11858,0.0906 -0.002,10e-4 -0.004,0.002 -0.006,0.004 -0.0526,0.087 -0.10523,0.17407 -0.15785,0.2611 0,0 -8.59199,4.96059 -8.59199,4.96059 l 0,0 c 0.0305,-0.0743 0.061,-0.14852 0.0915,-0.22278 0.002,-10e-4 0.005,-0.003 0.007,-0.004 0.0425,-0.0305 0.0883,-0.057 0.12546,-0.0945 -0.14282,-0.0148 -0.29582,0.0322 -0.41646,0.11005 17.76198,-10.29106 1.50557,-1.02678 -1.77758,1.91313 -10.20919,7.79215 -20.21,15.91915 -28.80829,25.51267 -5.13401,5.88658 -11.10582,12.02759 -12.40903,20.04454 -0.13357,1.7886 -0.50506,3.92709 0.18143,5.64494 0.30427,0.18408 0.71572,0.39317 0.79498,0.76184 0.10183,0.21459 0.41469,0.0755 0.62786,0.0948 0.27671,-0.01 0.31052,-0.0446 0.42176,0.20796 1.73964,3.04088 0.19276,0.20622 -8.353,5.38569 -0.11315,0.0686 -0.0914,-0.24893 -0.15095,-0.3671 -0.10439,-0.20723 -0.21188,-0.41293 -0.32252,-0.61689 -0.20625,-0.38022 -0.41872,-0.75702 -0.62808,-1.13552 -6.04318,-10.55027 -13.47521,-20.20623 -21.02816,-29.70939 -9.61803,-11.40622 -19.51778,-22.93351 -32.16595,-31.11319 0,0 8.36026,-4.8268 8.36026,-4.8268 z"
         id="path8986"
         style="opacity:1;fill:#cccccc;fill-opacity:1;stroke:none;stroke-width:0.99999994;stroke-linecap:butt;stroke-linejoin:miter;stroke-miterlimit:4;stroke-dasharray:none;stroke-dashoffset:0;stroke-opacity:1" />
    </g>
    <text
       sodipodi:linespacing="125%"
       id="text8993"
       y="105"
       x="513"
       style="font-style:normal;font-variant:normal;font-weight:normal;font-stretch:normal;font-size:29.33333397px;line-height:125%;font-family:Verdana;-inkscape-font-specification:Verdana;text-indent:0;text-align:start;text-decoration:none;text-decoration-line:none;text-decoration-style:solid;text-decoration-color:#000000;letter-spacing:0px;word-spacing:0px;text-transform:none;direction:ltr;block-progression:tb;writing-mode:lr-tb;baseline-shift:baseline;text-anchor:start;shape-padding:0;display:inline;opacity:1;fill:#cccccc;fill-opacity:1;stroke:none;stroke-width:1px;stroke-linecap:butt;stroke-linejoin:miter;stroke-miterlimit:4;stroke-dasharray:none;stroke-dashoffset:0;stroke-opacity:1"
       xml:space="preserve"><tspan
         y="105"
         x="513"
         sodipodi:role="line"
         id="tspan14261">- reduced microscope availability</tspan><tspan
         y="141.66667"
         x="513"
         sodipodi:role="line"
         id="tspan14263">- user billed for data transfer </tspan></text>
    <g
       style="display:inline"
       id="g9087"
       transform="translate(-436,-120)">
      <ellipse
         ry="34"
         rx="34.5"
         cy="397"
         cx="567.5"
         id="path9045"
         style="opacity:0.5;fill:#fddd62;fill-opacity:1;stroke:#f5f3f2;stroke-width:2.5;stroke-miterlimit:4;stroke-dasharray:none;stroke-dashoffset:0;stroke-opacity:1" />
      <path
         inkscape:connector-curvature="0"
         d="m 553.46349,427.54893 c -1.12362,4.79664 -1.64518,9.73338 -2.19704,14.62643 -0.38449,3.04615 -0.65283,6.071 -0.23043,9.11918 0.0336,1.47654 0.80269,2.2049 1.69982,3.27372 0.61083,1.16631 1.43577,1.99126 2.42958,2.79812 0.98291,0.98141 2.23019,1.58759 3.48564,2.13997 1.32962,0.60309 2.54886,1.30301 3.98808,1.6096 1.57309,0.24933 3.16936,0.26661 4.75818,0.27931 1.97501,0.20376 3.7126,-0.43488 5.46261,-1.27542 2.43534,-1.2875 4.54021,-2.96305 6.47068,-4.90918 -4.27133,4.71623 0.92057,-1.36759 1.56442,-2.34479 0.882,-1.59702 1.60979,-3.27187 2.11411,-5.02495 0.49168,-1.34353 0.91595,-2.69844 1.17111,-4.10737 0.18082,-1.15913 0.19674,-2.33526 0.2101,-3.50583 0.005,-0.91611 -0.002,-1.83223 -0.004,-2.74834 -10e-4,-0.45511 -0.003,-0.91022 -0.004,-1.36533 0.0576,-0.6386 -0.28452,-1.20218 -0.51088,-1.78099 -0.19678,-0.54711 -0.33566,-1.06123 -0.73542,-1.49388 -0.13159,-0.13651 -0.2781,-0.26121 -0.44256,-0.34998 -0.28835,-0.11325 -0.30853,-0.44942 -0.30714,-0.82144 1.1e-4,-0.15412 -5.9e-4,-0.30823 -10e-4,-0.46234 0.49685,0.49702 0.28625,0.40143 -0.16148,0.4078 -0.12615,3.5e-4 -0.2522,0.005 -0.37822,0.01 -0.0196,-0.005 -0.008,0.007 -0.01,0.008 0,0 2.31476,-3.26219 2.31476,-3.26219 l 0,0 c 0.01,0.002 0.0191,0.0104 0.0303,0.007 0.13016,2.4e-4 0.26033,-6.6e-4 0.39051,-8e-4 0.49745,0.002 0.64791,-0.0126 1.04437,0.47218 0.003,0.15611 0.005,0.31223 0.005,0.46836 10e-4,0.16256 0.16155,0.56732 0.0201,0.48729 -0.73668,-0.41665 -0.44429,-0.44446 -0.27933,-0.29299 0.22251,0.15558 0.43391,0.32607 0.62292,0.52194 0.48294,0.51723 0.75673,1.03968 0.93896,1.71663 0.25538,0.65774 0.66105,1.32141 0.69402,2.01429 -4.8e-4,0.45462 0.002,0.90924 0.003,1.36386 0.003,0.91838 0.007,1.83676 0.009,2.75514 -0.004,1.20355 -0.0117,2.41015 -0.13833,3.60827 -0.21462,1.42958 -0.51583,2.85329 -1.12752,4.17308 -0.45628,1.82277 -1.16507,3.53869 -1.99286,5.22419 -1.76841,3.04392 -4.38897,5.41547 -6.8636,7.88413 -2.00378,1.91125 -4.2171,3.55725 -6.71878,4.77082 -1.86259,0.77429 -3.70936,1.28761 -5.75021,1.08392 -1.63815,-0.025 -3.28744,-0.0616 -4.89901,-0.38701 -1.45829,-0.37957 -2.73679,-1.09591 -4.10537,-1.70719 -1.30506,-0.60326 -2.60256,-1.25188 -3.63578,-2.27665 -1.0418,-0.83089 -1.91695,-1.69809 -2.53997,-2.90806 -0.95373,-1.13669 -1.93172,-2.03012 -1.98886,-3.60821 -0.47792,-3.10463 -0.32656,-6.17194 0.10921,-9.28482 0.54838,-4.95308 1.15055,-9.90944 2.07918,-14.80666 0,0 3.40545,-2.09831 3.40545,-2.09831 z"
         id="path9047"
         style="opacity:1;fill:#cccccc;fill-opacity:1;stroke:none;stroke-width:0.99999994;stroke-linecap:butt;stroke-linejoin:miter;stroke-miterlimit:4;stroke-dasharray:none;stroke-dashoffset:0;stroke-opacity:1" />
      <path
         inkscape:connector-curvature="0"
         d="m 553.8366,437.54924 c 3.27947,0.93541 6.69303,1.28494 10.08127,1.55895 3.23492,0.32948 6.48337,0.15346 9.66785,-0.47891 2.42555,-0.45176 4.73611,-1.47249 6.88438,-2.66941 1.15122,-0.7786 2.59601,-1.28729 3.53622,-2.33626 -4.28757,4.37502 -2.55117,2.64057 -1.71518,1.52484 0.10447,-0.0295 0.0937,-0.005 0.18245,0.10449 0,0 3.09808,-2.5302 3.09808,-2.5302 l 0,0 c 0.0827,0.11405 0.146,0.19733 0.13408,0.34235 -0.37932,1.7932 -3.16227,2.67733 -3.56134,4.09876 -1.18339,0.8287 -2.42608,1.5645 -3.70019,2.24506 -2.25107,1.12823 -4.58389,2.15283 -7.09091,2.53946 -3.25624,0.54762 -6.54949,0.71664 -9.84057,0.35597 -3.41608,-0.29841 -6.83923,-0.69648 -10.15317,-1.61435 0,0 2.47703,-3.14075 2.47703,-3.14075 z"
         id="path9051-7"
         style="opacity:1;fill:#cccccc;fill-opacity:1;stroke:none;stroke-width:0.99999994;stroke-linecap:butt;stroke-linejoin:miter;stroke-miterlimit:4;stroke-dasharray:none;stroke-dashoffset:0;stroke-opacity:1" />
      <path
         inkscape:connector-curvature="0"
         d="m 554.99489,446.70015 c 2.95101,0.94409 6.04085,1.2531 9.11497,1.47485 3.14634,0.0639 6.32737,0.42758 9.46493,0.0798 2.16736,-0.26933 4.30164,-0.61286 6.34358,-1.40509 1.52358,-0.41601 2.82842,-1.26131 4.17936,-2.04471 0.29861,-0.18327 0.61177,-0.34536 0.89933,-0.54605 0.0219,-0.0251 -10e-4,-0.004 -0.01,-0.0304 0,0 -1.91553,3.51152 -1.91553,3.51152 l 0,0 c -0.0137,-8.4e-4 -0.0355,-0.0203 -0.0503,-0.003 -0.31239,0.16972 -0.61399,0.35905 -0.92502,0.53133 -1.37839,0.78498 -2.76504,1.53276 -4.30204,1.97085 -2.11709,0.69259 -4.29828,1.06073 -6.51212,1.29345 -3.18488,0.22402 -6.38752,-0.0287 -9.57233,-0.15758 -3.1304,-0.25046 -6.27287,-0.60316 -9.26932,-1.59666 0,0 2.55437,-3.07817 2.55437,-3.07817 z"
         id="path9053"
         style="opacity:1;fill:#cccccc;fill-opacity:1;stroke:none;stroke-width:0.99999994;stroke-linecap:butt;stroke-linejoin:miter;stroke-miterlimit:4;stroke-dasharray:none;stroke-dashoffset:0;stroke-opacity:1" />
      <path
         inkscape:connector-curvature="0"
         d="m 561.61803,463.54213 c 0.0523,1.68163 0.48482,3.23842 1.16566,4.7585 0.3112,0.39751 0.78939,1.14842 1.37906,1.11588 0.39751,0.0203 0.79454,-0.01 1.19188,-0.0194 0.73314,-0.0752 1.56164,0.17861 2.21348,-0.19761 0.61737,-0.26172 1.06668,-0.68497 1.53038,-1.14466 0.11218,-0.11384 0.22435,-0.22767 0.33653,-0.34151 -0.15998,0.16076 1.034,-1.03802 0.77471,-0.77931 -4.18997,4.18074 -2.36977,2.52375 -1.577,1.40375 0.24115,-0.45932 0.62042,-0.89947 0.7261,-1.41609 0.0143,-1.65144 1.51036,-3.37329 3.19185,-3.57523 0.22534,-0.0249 0.44593,-0.021 0.65818,0.0564 4.64955,3.58783 -5.11603,3.22761 -5.33856,3.22733 -1.48037,-0.003 -2.96073,-0.007 -4.44109,-0.0108 -2.39136,0.33612 1.08327,-3.23738 2.88989,-3.2375 2.65228,0.0642 2.26667,-0.75306 -1.05765,3.23617 -1.38865,-0.009 -2.86629,1.6936 1.83791,-2.19286 0.12824,-0.10595 -0.16104,0.29386 -0.20912,0.4531 -0.0606,0.20061 -0.0762,0.41212 -0.11433,0.61818 -0.12336,0.98549 -0.15884,1.97955 -0.17189,2.97186 0.0999,1.71672 -1.97481,3.19051 -3.63254,3.1807 -0.62201,-0.0216 -1.267,0.0252 -1.87652,-0.0564 3.07272,-3.68481 2.32836,-3.21169 5.56176,-3.21136 -2.98515,3.2923 -1.84695,2.77732 -4.28751,2.26859 -0.17631,-0.0568 -0.38406,-0.0545 -0.5501,-0.046 -1.46211,-1.72673 0.74548,-2.34498 2.51027,-4.03384 0.0645,-0.0618 0.29358,-0.1991 0.23166,-0.13471 -0.93197,0.96911 -1.899,1.90388 -2.8485,2.85583 -1.05041,-0.43157 -2.19235,-0.47592 -3.28764,-0.70517 0.90899,-1.07609 1.72437,-2.23881 2.72696,-3.22828 0.0462,-0.0456 3.08659,0.0103 3.42712,0.0124 1.91841,0.0334 1.85699,-0.35965 -2.12921,2.86714 -0.11153,0.0903 -0.25304,-0.13704 -0.38688,-0.18878 -0.20903,-0.0808 -0.68321,-0.19325 -0.89981,-0.24782 -2.04653,-0.46588 -2.19824,0.28344 1.92664,-3.42198 0.004,-0.004 1.27761,-0.0113 1.51208,-0.0128 0.56861,-0.002 1.13724,-6.7e-4 1.70584,0.004 0.10864,9.3e-4 0.39415,-0.0811 0.32592,0.003 -2.61644,3.24198 -1.53071,3.52745 -3.18763,2.86276 -2.54309,-1.06436 -1.92662,-0.11779 1.53436,-3.82743 1.19039,-0.0498 2.38239,-0.0522 3.5736,-0.0399 2.16426,2.24563 -4.05701,3.61319 -5.18885,3.90636 -1.73844,0.4237 -3.56606,1.44661 1.86034,-2.56864 0.18821,-0.13927 0.44806,0.13743 0.67624,0.18988 0.28444,0.0654 0.57347,0.10885 0.8602,0.16327 4.74341,0.0106 1.09809,3.42908 -2.02337,4.37932 -0.95562,0.40168 -1.89778,0.83455 -2.83135,1.28486 -1.10896,0.53492 -1.13705,0.58743 -1.10895,0.55162 0.87021,-1.10925 1.85543,-2.12325 2.78315,-3.18488 1.15918,-0.41049 2.44642,-0.53541 3.56956,-1.05205 0.12576,-0.0579 0.2185,-0.17003 0.32775,-0.25504 -0.8594,1.04701 -1.71881,2.09402 -2.57821,3.14103 -0.24341,-0.17772 -1.89407,0.87664 -1.80146,0.78506 2.49574,-2.46794 3.62389,-1.96961 2.37674,-2.45887 10e-4,-0.10937 -0.0566,-0.2368 0.004,-0.32812 0.26379,-0.40011 2.0728,-0.95422 2.6033,-1.18789 0.95725,-0.49456 4.13031,-4.36248 -2.15695,2.89087 -0.0252,0.029 -0.59651,-0.0468 -0.67695,-0.048 -2.72889,-0.0774 4.96295,-4.88174 5.43947,-5.24789 0.30145,-0.25445 1.18274,-1.04283 0.90434,-0.76335 -0.70894,0.71168 -1.45584,1.38471 -2.19784,2.06185 -0.0562,0.0513 0.074,-0.22324 0.13783,-0.18189 0.0704,0.0456 0.0289,0.19357 -0.0338,0.24927 -0.23128,0.20553 -0.58778,0.19362 -0.88352,0.28457 -1.02617,0.35074 -1.92756,0.97995 -2.83893,1.56821 -0.55477,0.37062 -1.11863,0.72991 -1.65309,1.12995 -0.97905,1.04161 0.98686,-3.28876 2.90227,-3.29629 0.96372,0.1165 1.73088,-0.18409 2.51206,-0.71564 1.11762,-1.08427 2.93098,-2.0232 -2.3588,2.97582 -0.18765,0.17734 -0.51615,-0.0154 -0.77428,-0.0206 -0.3131,-0.006 -0.62625,-0.009 -0.93937,-0.0141 -1.11599,-0.0102 -2.23219,-0.0136 -3.34811,0.005 -0.16608,1.7e-4 -0.30294,0.0247 -0.44949,0.006 -0.8368,-0.0298 -1.63258,-0.43792 -2.44085,-0.67348 -0.46588,-0.13268 -0.93319,-0.26068 -1.40473,-0.37168 -1.51878,-0.50618 1.30104,-3.61697 3.312,-3.00376 1.29603,0.51991 2.68977,0.62781 4.06805,0.72214 1.25755,0.0863 2.51797,0.0962 3.77785,0.0978 1.10737,0.009 2.16646,-0.45924 3.01596,-1.14331 2.0515,-1.91863 -3.35883,2.9737 -1.69317,1.71577 0.88883,0.88174 0.76591,0.74718 -0.14905,1.36008 -1.14893,0.85005 -2.66551,0.75655 -3.88536,1.36898 -0.56788,0.46329 -1.06907,0.73434 -1.77698,0.89559 -0.21185,0.0437 -0.426,0.0862 -0.64026,0.05 0,0 2.32574,-3.25438 2.32574,-3.25438 l 0,0 c 0.14357,-0.0702 0.31434,-0.10928 0.46898,-0.16588 0.61006,-0.24506 1.07676,-0.74922 1.7283,-0.92622 1.29135,-0.379 2.62055,-0.63566 3.7299,-1.46046 0.94619,-0.64711 0.84962,-0.76683 1.69463,0.18836 -0.73391,1.58268 -2.33952,2.69672 -3.75203,3.721 -1.03859,0.59606 -2.216,0.93241 -3.42022,0.88473 -1.27612,-0.008 -2.55255,-0.0332 -3.82538,-0.13295 -1.41829,-0.1232 -2.82532,-0.31002 -4.17052,-0.80167 -1.76457,-0.29265 0.31288,-3.66792 1.69442,-3.23609 0.48066,0.12549 0.9601,0.25568 1.43631,0.39727 0.73994,0.22498 1.46625,0.58251 2.25486,0.53007 0.14511,-0.0133 0.29359,-0.0114 0.44407,-0.0104 1.12328,-0.01 2.24669,-0.008 3.36987,0.0111 0.99631,0.027 1.78031,0.0427 1.77214,0.0785 -0.62009,2.71284 -0.67781,2.94569 -2.07193,3.66638 -0.91015,0.42376 -1.84511,0.56793 -2.84981,0.49623 -1.91735,0.0278 0.10495,-2.74126 1.37801,-3.44488 0.55964,-0.37608 1.11957,-0.7519 1.69228,-1.10799 0.96754,-0.59093 1.9415,-1.20759 3.07138,-1.42561 0.35097,-0.0535 0.86387,-0.17563 1.21629,-0.0388 0.11084,0.043 1.25297,0.61791 0.87258,1.116 -1.77349,2.3222 -2.42751,2.76054 -4.15291,4.112 -0.92782,0.62529 -1.21739,0.87704 -2.22903,1.34019 -0.3085,0.14124 -1.0488,0.68145 -0.95366,0.35578 0.91811,-3.14283 0.65812,-3.2818 2.07382,-3.15128 2.64882,0.33866 0.0669,3.29038 -1.64639,3.77363 -1.21346,0.51287 -2.51625,1.37668 -3.72732,0.49877 -0.89072,-2.30899 3.27429,-4.10851 5.21596,-3.77319 -0.67622,1.12044 -1.27573,2.29092 -2.02867,3.36131 -0.28563,0.40607 -3.76878,1.00624 -4.35857,0.99284 0.57903,-1.13153 1.07454,-2.30986 1.73711,-3.3946 0.27745,-0.45423 3.49298,-1.43382 4.02433,-1.78516 0.31054,-0.12561 1.1095,-0.66069 0.93162,-0.37683 -0.57144,0.91191 -1.66921,1.43229 -2.18492,2.37685 -0.12524,0.22939 0.48358,0.24378 0.63968,0.4534 0.0688,0.0924 -0.22748,-0.0365 -0.34149,-0.053 -1.22404,-0.17688 -0.29933,-0.0264 -1.6338,-0.25791 -0.80654,-0.19031 -1.77654,-0.39572 -1.73822,-0.52433 0.98808,-3.31588 1.06094,-3.25489 3.01391,-3.74346 2.65282,-0.66193 4.29735,-1.68495 0.64619,2.67561 -1.1667,-0.004 -2.33616,-0.007 -3.49941,0.0927 2.08997,-3.46969 1.03487,-3.43412 3.33534,-2.50787 1.59095,0.62235 0.74527,0.13927 -1.75722,3.41907 -0.0159,0.0208 -1.88955,-0.0185 -2.01955,10e-4 -0.25318,0.004 -0.50642,0.005 -0.75954,0.0113 -0.23891,0.006 -0.80038,0.2511 -0.71646,0.0273 1.28855,-3.43619 1.01429,-3.42588 2.90349,-2.94965 0.1098,0.0327 1.50384,0.47768 1.4545,0.58078 -1.65863,3.46544 -0.99458,3.34474 -2.91527,3.32693 -0.95614,-0.005 -1.91353,-0.0202 -2.86957,-7.8e-4 -0.1718,0.004 -0.58998,0.17357 -0.51515,0.0189 0.54998,-1.13693 1.36535,-2.12512 2.04802,-3.18768 1.21429,0.16918 2.43703,0.39272 3.55016,0.92916 -1.51601,2.96889 -3.69876,6.07476 0.41611,1.21244 0.0425,-0.0502 -0.89828,0.23075 -0.6724,-0.1996 0.22525,0.0602 0.45825,0.0883 0.68394,0.14833 2.9818,0.75637 2.4444,0.95977 -0.55962,4.09317 -2.60891,0.002 -3.76359,0.91578 -0.77268,-3.1959 0.49985,-0.0555 1.21446,0.0154 1.78334,-0.0131 2.46535,-0.0635 -2.2216,4.35643 -1.94958,2.40947 -0.008,-1.02254 0.0316,-2.04522 0.10631,-3.06498 0.0502,-0.45603 -0.15294,-1.01499 0.13843,-1.36937 2.25225,-2.73944 1.8961,-3.03602 4.00098,-3.00163 -2.11005,3.40455 -1.08531,3.27212 -3.64451,3.23606 -2.37403,3.8e-4 0.27548,-3.62072 1.81415,-3.23336 1.47988,0.004 2.95976,0.008 4.43964,0.01 3.14867,-1.5e-4 3.44949,-0.93026 0.53529,3.16899 -0.10935,0.0436 -0.26493,0.10054 -0.3936,0.13217 -1.37802,0.6147 2.68558,-4.41283 2.27922,-2.05769 -0.0151,0.65061 -0.16546,1.16332 -0.5295,1.72862 -1.19233,2.09919 -3.16207,3.56063 -4.86685,5.23376 -0.54072,0.44591 -1.16671,0.76787 -1.8408,0.96431 -0.7934,0.0907 -1.5906,0.0563 -2.38833,0.0786 -0.45687,0.008 -0.91561,0.0119 -1.36099,-0.10937 -0.79537,-0.31875 -1.41377,-0.91056 -1.89672,-1.61504 -0.7419,-1.61261 -1.26249,-3.23357 -1.37758,-5.02549 0,0 3.23606,-2.35114 3.23606,-2.35114 z"
         id="path9057"
         style="opacity:1;fill:#cccccc;fill-opacity:1;stroke:none;stroke-width:0.99999994;stroke-linecap:butt;stroke-linejoin:miter;stroke-miterlimit:4;stroke-dasharray:none;stroke-dashoffset:0;stroke-opacity:1" />
      <path
         inkscape:connector-curvature="0"
         id="path9079-0"
         d="m 552.39507,399.91474 13.94886,26.06732 19.367,-31.17703"
         style="opacity:1;fill:none;fill-opacity:1;fill-rule:evenodd;stroke:#d1bda7;stroke-width:2.5;stroke-linecap:butt;stroke-linejoin:miter;stroke-miterlimit:4;stroke-dasharray:none;stroke-dashoffset:0;stroke-opacity:1" />
      <path
         inkscape:connector-curvature="0"
         d="m 541.4806,394.30911 c 2.78911,-2.08466 5.50145,-3.23314 8.97145,-3.51444 3.73099,-0.0666 7.20104,1.22722 10.61332,2.57107 2.47126,0.54881 5.55671,2.56361 8.15498,1.87481 0.47377,-0.12559 0.89385,-0.40245 1.34077,-0.60369 2.90551,-1.88745 3.84796,-2.5615 7.3524,-2.56273 2.98296,0.28056 5.94471,0.56275 8.94345,0.53845 1.80126,-0.0565 3.59775,-0.25584 5.37224,-0.56791 0.0533,-0.0437 0.80101,-0.0715 0.47786,-0.21219 -0.6167,1.20126 -1.23339,2.40254 -1.85007,3.6038 0,0 1.87486,-3.53339 1.87486,-3.53339 l 0,0 c -0.4231,1.24368 -0.84619,2.48738 -1.26929,3.73107 -0.27769,-0.0813 -0.5528,0.0485 -0.83374,0.0766 -1.81628,0.28726 -3.64941,0.48328 -5.48932,0.51453 -2.99504,0.003 -5.95351,-0.31549 -8.93734,-0.53555 -0.78293,0.0205 -1.53642,-0.003 -2.30512,0.1878 -1.78112,0.44237 -3.10008,1.8318 -4.7895,2.48606 -0.52373,0.16849 -1.02881,0.41328 -1.5712,0.50539 -2.90858,0.4939 -5.73534,-1.38004 -8.45713,-2.03099 -3.3011,-1.29559 -6.66555,-2.5474 -10.27721,-2.39933 -3.23303,0.37337 -6.00308,1.6914 -8.58985,3.66419 0,0 1.26843,-3.79356 1.26843,-3.79356 z"
         id="path9083-8"
         style="opacity:1;fill:#cccccc;fill-opacity:1;stroke:none;stroke-width:0.99999994;stroke-linecap:butt;stroke-linejoin:miter;stroke-miterlimit:4;stroke-dasharray:none;stroke-dashoffset:0;stroke-opacity:1" />
      <path
         inkscape:connector-curvature="0"
         d="m 545.74179,397.75385 c 3.15959,-0.9612 6.38018,-1.07997 9.61268,-0.49151 1.99067,0.63301 3.68288,1.85972 5.82873,1.53312 1.83647,-0.70296 3.10083,-2.32703 4.91928,-3.05823 1.39524,-0.18825 2.31611,0.86971 3.43673,1.49607 0.9597,0.53641 1.32266,0.60702 2.35997,0.95999 2.81751,0.34047 5.37883,-0.81593 8.18702,-0.51338 2.32114,0.68403 4.62166,1.27323 7.04989,1.29914 1.60697,-0.057 3.19439,-0.33795 4.76099,-0.68449 1.01183,-0.41831 2.00447,-0.11037 3.03668,-0.0274 0.8913,0.11112 1.76,-0.12447 2.62651,-0.30308 2.27965,-0.41053 2.21315,-1.29964 -0.63631,2.62173 0.17075,-0.36484 -0.067,-0.71037 0.36956,-0.29601 0,0 1.79283,-3.57572 1.79283,-3.57572 l 0,0 c 0.59105,0.30404 0.69778,0.44375 0.72425,1.10273 -2.2091,3.37942 -1.29004,3.35761 -3.82842,3.82282 -0.94108,0.17922 -1.88334,0.3466 -2.84265,0.20254 -0.96596,-0.1186 -1.86561,-0.21222 -2.80977,0.13255 -1.62357,0.33437 -3.26951,0.59637 -4.93129,0.6072 -2.43677,-0.0868 -4.74995,-0.68478 -7.09477,-1.32111 -2.80559,-0.17346 -5.54386,1.03144 -8.36291,0.42031 -1.13285,-0.40192 -1.47372,-0.46856 -2.52697,-1.05918 -0.85701,-0.48057 -1.64055,-1.48773 -2.70686,-1.136 -1.7381,0.96957 -3.155,2.55291 -5.17559,2.95255 -2.2102,0.10531 -3.97609,-0.9249 -6.02067,-1.6264 -3.14939,-0.51856 -6.25728,-0.29354 -9.32209,0.62792 0,0 1.55317,-3.68613 1.55317,-3.68613 z"
         id="path9085-8"
         style="opacity:1;fill:#cccccc;fill-opacity:1;stroke:none;stroke-width:0.99999994;stroke-linecap:butt;stroke-linejoin:miter;stroke-miterlimit:4;stroke-dasharray:none;stroke-dashoffset:0;stroke-opacity:1" />
    </g>
    <text
       xml:space="preserve"
       style="font-style:normal;font-variant:normal;font-weight:normal;font-stretch:normal;font-size:42.66666794px;line-height:125%;font-family:'Cherry Cream Soda';-inkscape-font-specification:'Cherry Cream Soda';text-indent:0;text-align:start;text-decoration:none;text-decoration-line:none;text-decoration-style:solid;text-decoration-color:#000000;letter-spacing:0px;word-spacing:0px;text-transform:none;direction:ltr;block-progression:tb;writing-mode:lr-tb;baseline-shift:baseline;text-anchor:start;shape-padding:0;display:inline;opacity:1;fill:#fddd62;fill-opacity:1;stroke:none;stroke-width:1px;stroke-linecap:butt;stroke-linejoin:miter;stroke-miterlimit:4;stroke-dasharray:none;stroke-dashoffset:0;stroke-opacity:1"
       x="190.79581"
       y="287"
       id="text9097"
       sodipodi:linespacing="125%"><tspan
         id="tspan9103"
         sodipodi:role="line"
         x="190.79581"
         y="287">Idea</tspan></text>
    <text
       xml:space="preserve"
       style="font-style:normal;font-variant:normal;font-weight:normal;font-stretch:normal;font-size:29.33333397px;line-height:125%;font-family:Verdana;-inkscape-font-specification:Verdana;text-indent:0;text-align:start;text-decoration:none;text-decoration-line:none;text-decoration-style:solid;text-decoration-color:#000000;letter-spacing:0px;word-spacing:0px;text-transform:none;direction:ltr;block-progression:tb;writing-mode:lr-tb;baseline-shift:baseline;text-anchor:start;shape-padding:0;display:inline;opacity:1;fill:#cccccc;fill-opacity:1;stroke:none;stroke-width:1px;stroke-linecap:butt;stroke-linejoin:miter;stroke-miterlimit:4;stroke-dasharray:none;stroke-dashoffset:0;stroke-opacity:1;"
       x="311"
       y="285"
       id="text9108"
       sodipodi:linespacing="125%"><tspan
         sodipodi:role="line"
         x="311"
         y="285"
         id="tspan9112">run import in background process </tspan><tspan
         sodipodi:role="line"
         x="311"
         y="321.66666"
         id="tspan9116">outside of any user session...</tspan></text>
    <text
       sodipodi:linespacing="125%"
       id="text9118"
       y="407"
       x="190.79581"
       style="font-style:normal;font-variant:normal;font-weight:normal;font-stretch:normal;font-size:37.33333206px;line-height:125%;font-family:'Cherry Cream Soda';-inkscape-font-specification:'Cherry Cream Soda';text-indent:0;text-align:start;text-decoration:none;text-decoration-line:none;text-decoration-style:solid;text-decoration-color:#000000;letter-spacing:0px;word-spacing:0px;text-transform:none;direction:ltr;block-progression:tb;writing-mode:lr-tb;baseline-shift:baseline;text-anchor:start;shape-padding:0;display:inline;opacity:1;fill:#f37962;fill-opacity:1;stroke:none;stroke-width:1px;stroke-linecap:butt;stroke-linejoin:miter;stroke-miterlimit:4;stroke-dasharray:none;stroke-dashoffset:0;stroke-opacity:1"
       xml:space="preserve"><tspan
         y="407"
         x="190.79581"
         sodipodi:role="line"
         id="tspan9120">But</tspan></text>
    <text
       sodipodi:linespacing="125%"
       id="text9122"
       y="405"
       x="311"
       style="font-style:normal;font-variant:normal;font-weight:normal;font-stretch:normal;font-size:29.33333397px;line-height:125%;font-family:Verdana;-inkscape-font-specification:Verdana;text-indent:0;text-align:start;text-decoration:none;text-decoration-line:none;text-decoration-style:solid;text-decoration-color:#000000;letter-spacing:0px;word-spacing:0px;text-transform:none;direction:ltr;block-progression:tb;writing-mode:lr-tb;baseline-shift:baseline;text-anchor:start;shape-padding:0;display:inline;opacity:1;fill:#cccccc;fill-opacity:1;stroke:none;stroke-width:1px;stroke-linecap:butt;stroke-linejoin:miter;stroke-miterlimit:4;stroke-dasharray:none;stroke-dashoffset:0;stroke-opacity:1;"
       xml:space="preserve"><tspan
         id="tspan9126"
         y="405"
         x="311"
         sodipodi:role="line">- needs to be reliable</tspan><tspan
         y="441.66666"
         x="311"
         sodipodi:role="line"
         id="tspan9130">- automatic recovery from failure</tspan><tspan
         y="478.33334"
         x="311"
         sodipodi:role="line"
         id="tspan9132">- nice if it could be used as back-pressure</tspan><tspan
         y="515"
         x="311"
         sodipodi:role="line"
         id="tspan9134">   mechanism to reduce load on omero</tspan><tspan
         y="551.66669"
         x="311"
         sodipodi:role="line"
         id="tspan9136">- adding other maintenance tasks?</tspan></text>
    <path
       style="opacity:0.4;fill:none;fill-opacity:1;fill-rule:evenodd;stroke:#84c98a;stroke-width:2.5;stroke-linecap:butt;stroke-linejoin:miter;stroke-miterlimit:4;stroke-dasharray:none;stroke-dashoffset:0;stroke-opacity:1"
       d="m 86,626 274,0"
       id="path14269"
       inkscape:connector-curvature="0" />
    <path
       inkscape:connector-curvature="0"
       id="path14271"
       d="m 658,626 274,0"
       style="opacity:0.4;fill:none;fill-opacity:1;fill-rule:evenodd;stroke:#84c98a;stroke-width:2.5;stroke-linecap:butt;stroke-linejoin:miter;stroke-miterlimit:4;stroke-dasharray:none;stroke-dashoffset:0;stroke-opacity:1" />
  </g>
</svg>
