<?xml version="1.0" encoding="UTF-8"?><svg height="100%" id="svg9493" style="background: #3c4747;" version="1.1" viewBox="0 0 1024 768" width="100%" xmlns:sodipodi="http://sodipodi.sourceforge.net/DTD/sodipodi-0.dtd" sodipodi:docname="what-is-it.svg" xmlns:inkscape="http://www.inkscape.org/namespaces/inkscape" inkscape:version="0.91+devel+osxmenu r12898" xmlns="http://www.w3.org/2000/svg">
  <sodipodi:namedview bordercolor="#ffffff" borderlayer="true" borderopacity="1" id="namedview9495" pagecolor="#3c4747" showgrid="true" inkscape:current-layer="layer1" inkscape:cx="405.81132" inkscape:cy="392.22896" inkscape:document-units="px" inkscape:pageopacity="0" inkscape:pageshadow="2" inkscape:showpageshadow="false" inkscape:window-height="851" inkscape:window-maximized="0" inkscape:window-width="1440" inkscape:window-x="0" inkscape:window-y="23" inkscape:zoom="0.5">
    <inkscape:grid color="#b5357b" empcolor="#5d6e79" empopacity="0.25098039" empspacing="15" enabled="true" id="grid9497" opacity="0.1254902" type="xygrid"/>
  </sodipodi:namedview>
  <defs id="defs9499">
    <style id="style8875" type="text/css">
      @import url(https://fonts.googleapis.com/css?family=Cherry+Cream+Soda);
    </style>
  </defs>
  <metadata id="metadata9501">
    <rdf:RDF xmlns:rdf="http://www.w3.org/1999/02/22-rdf-syntax-ns#">
      <cc:Work xmlns:cc="http://creativecommons.org/ns#">
        <dc:format xmlns:dc="http://purl.org/dc/elements/1.1/">image/svg+xml</dc:format>
        <dc:type rdf:resource="http://purl.org/dc/dcmitype/StillImage" xmlns:dc="http://purl.org/dc/elements/1.1/"/>
        <dc:title xmlns:dc="http://purl.org/dc/elements/1.1/"/>
      </cc:Work>
    </rdf:RDF>
  </metadata>
  <g id="layer0" sodipodi:insensitive="true" inkscape:groupmode="layer" inkscape:label="Background Fill">
    <rect height="800" id="rect8879" style="fill:#3c4747" width="1050" x="-10" y="-22"/>
  </g>
  <g id="layer1" inkscape:groupmode="layer" inkscape:label="Layer 1">
    <text id="text19269" style="font-style:normal;font-variant:normal;font-weight:normal;font-stretch:normal;font-size:42.66666794px;line-height:125%;font-family:'Cherry Cream Soda';-inkscape-font-specification:'Cherry Cream Soda';text-indent:0;text-align:start;text-decoration:none;text-decoration-line:none;text-decoration-style:solid;text-decoration-color:#000000;letter-spacing:0px;word-spacing:0px;text-transform:none;direction:ltr;block-progression:tb;writing-mode:lr-tb;baseline-shift:baseline;text-anchor:start;shape-padding:0;opacity:1;fill:#cccccc;fill-opacity:1;stroke:none;stroke-width:1px;stroke-linecap:butt;stroke-linejoin:miter;stroke-miterlimit:4;stroke-dasharray:none;stroke-dashoffset:0;stroke-opacity:1;" x="389" y="151" sodipodi:linespacing="125%" xml:space="preserve"><tspan id="tspan19271" x="389" y="151" sodipodi:role="line">what is it?</tspan></text>
    <g id="g11924">
      <path d="M 188.83612,276.03951 A 230,230 0 0 1 358.43305,152.76666" id="path9825-7" style="opacity:0.4;fill:none;fill-opacity:1;stroke:#84c98a;stroke-width:4;stroke-linecap:butt;stroke-linejoin:miter;stroke-miterlimit:4;stroke-dasharray:none;stroke-dashoffset:0;stroke-opacity:1" sodipodi:cx="394" sodipodi:cy="380" sodipodi:end="4.557127" sodipodi:open="true" sodipodi:rx="230" sodipodi:ry="230" sodipodi:start="3.6106012" sodipodi:type="arc"/>
      <g id="g9933" style="opacity:0.4;stroke:#84c98a" transform="rotate(30,188.73205,278.41923)">
        <path d="m 173,277 30,0 -15,25.98076 z" id="path9873" style="opacity:1;fill:none;fill-opacity:1;fill-rule:evenodd;stroke:#84c98a;stroke-width:2.5;stroke-linecap:butt;stroke-linejoin:miter;stroke-miterlimit:4;stroke-dasharray:none;stroke-dashoffset:0;stroke-opacity:1" inkscape:connector-curvature="0"/>
      </g>
      <g id="g9913" style="opacity:0.4;fill:#84c98a" transform="rotate(30,188.73205,278.41923)">
        <path d="m 177.35067,283.06478 c 0.99735,-1.68112 2.42149,-3.00943 3.79463,-4.37725 0.67755,-0.62516 0.35093,-0.35967 0.9639,-0.8157 0,0 -0.673,1.24381 -0.673,1.24381 l 0,0 c -0.58339,0.476 -0.2679,0.20336 -0.93515,0.83083 0.10771,-0.11298 0.42899,-0.45365 0.32314,-0.33893 -0.80848,0.87618 -1.63158,1.72275 -2.2464,2.75426 0,0 -1.22712,0.70298 -1.22712,0.70298 z" id="path9877" style="opacity:1;fill:#84c98a;fill-opacity:1;stroke:none;stroke-width:0.99999994;stroke-linecap:butt;stroke-linejoin:miter;stroke-miterlimit:4;stroke-dasharray:none;stroke-dashoffset:0;stroke-opacity:1" inkscape:connector-curvature="0"/>
        <path d="m 178.47943,283.03431 c 1.55606,-1.43459 2.87593,-3.1474 4.55922,-4.43799 0.54118,0.3604 -0.11152,0.88515 -0.39133,1.20697 -0.32867,0.35603 -0.62354,0.73862 -0.94813,1.09825 -0.11338,0.12396 -0.22284,0.25163 -0.34015,0.37188 -0.42755,0.43823 -0.85916,0.87253 -1.2942,1.30333 -0.1007,0.0997 -0.20762,0.19294 -0.31277,0.28793 -0.0844,0.0763 -0.33553,0.30716 -0.25598,0.22581 1.12137,-1.1467 0.92784,-0.93382 0.61298,-0.57248 -0.11287,0.10425 -0.1677,0.26561 -0.27757,0.36868 -0.34947,0.17183 -0.67385,0.40893 -1.04842,0.51548 -0.12894,0.0367 0.17777,-0.201 0.27336,-0.29499 0.48421,-0.47612 0.96659,-0.95445 1.46566,-1.41497 0.76129,-0.70246 1.60141,-1.34268 2.40597,-1.99412 0.71413,-0.57731 1.43031,-1.15209 2.14782,-1.7252 0.23996,-0.19167 0.91565,-0.81808 0.69797,-0.60143 -0.27865,0.27733 -0.55959,0.55234 -0.83939,0.82851 0.0316,0.0758 0.11664,0.14828 0.0949,0.22752 -0.008,0.0309 -0.453,0.27788 -0.50514,0.31466 -0.65572,0.46255 -1.23325,1.02499 -1.81083,1.57777 -0.65672,0.66929 -1.48234,1.65761 -2.53629,2.89245 -0.0416,-0.0263 -0.58107,0.76193 -0.619,0.73867 -0.22826,-0.14002 -0.15151,-0.20273 -0.0814,-0.34439 0.36544,-0.22287 0.17595,-0.0891 0.558,-0.41563 0,0 -0.67232,1.24418 -0.67232,1.24418 l 0,0 c -0.42123,0.30281 -0.21897,0.17573 -0.59982,0.39211 -1.0149,0.11022 0.0206,-0.73544 0.16489,-0.95276 1.41206,-1.66362 2.85065,-3.30693 4.4356,-4.81077 0.32352,-0.29929 1.97478,-1.93452 2.51672,-1.76621 0.12514,0.0389 0.2047,0.16365 0.30705,0.24547 -0.35516,0.36104 -0.70504,0.72734 -1.06548,1.08311 -0.87133,0.86006 -1.96984,1.48051 -2.86106,2.31857 -1.0345,0.84515 -0.70655,0.56911 -1.70491,1.41609 -0.22943,0.19464 -0.40916,0.4699 -0.68693,0.5855 -0.20281,0.0844 0.30945,-0.31311 0.44597,-0.48521 0.0821,-0.1035 -0.18798,0.18565 -0.28197,0.27847 -0.46267,0.30528 -0.92534,0.61056 -1.38801,0.91584 0.0103,-0.17622 0.12527,-0.32312 0.21883,-0.46806 0.45427,-0.6133 0.14299,-0.21145 1.28838,-1.34994 0.17998,-0.17889 0.72795,-0.70669 0.55538,-0.52065 -0.19443,0.20963 -0.38699,0.42246 -0.60145,0.61156 -0.12663,0.11166 0.22457,-0.25216 0.33685,-0.37824 0.34641,-0.34643 0.62398,-0.73088 0.95288,-1.08913 0.13052,-0.14562 0.48109,-0.64611 0.6202,-0.71165 0.16168,-0.0762 0.24585,0.0168 0.35409,0.093 -0.94669,0.80038 -1.4663,1.40782 -2.63011,2.54999 0,0 -1.26008,0.64204 -1.26008,0.64204 z" id="path9879" style="opacity:1;fill:#84c98a;fill-opacity:1;stroke:none;stroke-width:0.99999994;stroke-linecap:butt;stroke-linejoin:miter;stroke-miterlimit:4;stroke-dasharray:none;stroke-dashoffset:0;stroke-opacity:1" inkscape:connector-curvature="0"/>
        <path d="m 186.00848,279.2503 c -1.99867,1.96501 -4.03531,3.89146 -6.05969,5.83004 0.12804,-0.1221 0.50804,-0.49259 0.38413,-0.3663 -0.42551,0.43367 -0.85584,0.86263 -1.28907,1.28858 -0.47141,0.46349 0.61578,-1.16086 0.67879,-1.25535 0.15316,-0.2297 0.41704,-0.36191 0.62334,-0.54539 0,0 -0.65858,1.25151 -0.65858,1.25151 l 0,0 c -0.12679,0.10946 -0.25205,0.22071 -0.38035,0.3284 -0.0849,0.0713 -0.29147,0.31438 -0.25917,0.20835 0.12436,-0.40813 0.35358,-0.77694 0.54812,-1.15666 0.0195,-0.038 0.1209,-0.12081 0.0908,-0.0905 -0.30349,0.30632 -2.84803,2.86798 0.90946,-0.91996 2.02541,-1.93955 4.05405,-3.87577 6.07096,-5.82418 0,0 -0.65876,1.25142 -0.65876,1.25142 z" id="path9881" style="opacity:1;fill:#84c98a;fill-opacity:1;stroke:none;stroke-width:0.99999994;stroke-linecap:butt;stroke-linejoin:miter;stroke-miterlimit:4;stroke-dasharray:none;stroke-dashoffset:0;stroke-opacity:1" inkscape:connector-curvature="0"/>
        <path d="m 187.80627,278.80555 c -2.10715,1.69509 -4.10922,3.51527 -6.10999,5.33317 -0.65664,0.60121 -0.76948,0.70294 -1.37411,1.2617 -0.13979,0.12919 -0.55125,0.52487 -0.41864,0.38833 0.23,-0.23683 0.47082,-0.46296 0.71104,-0.68941 0.0346,-0.0326 -0.0589,0.13991 -0.0939,0.10762 -0.0737,-0.068 -0.0652,-0.18971 -0.0978,-0.28457 0,0 -0.76608,1.18875 -0.76608,1.18875 l 0,0 c -0.12227,-0.0691 -0.27726,-0.0992 -0.36679,-0.20743 -0.14822,-0.17918 2.76781,-2.73398 3.06044,-3.0188 2.00526,-1.8182 4.00724,-3.64727 6.13909,-5.31755 0,0 -0.6833,1.23819 -0.6833,1.23819 z" id="path9883" style="opacity:1;fill:#84c98a;fill-opacity:1;stroke:none;stroke-width:0.99999994;stroke-linecap:butt;stroke-linejoin:miter;stroke-miterlimit:4;stroke-dasharray:none;stroke-dashoffset:0;stroke-opacity:1" inkscape:connector-curvature="0"/>
        <path d="m 189.31183,279.1205 c -2.31742,1.8922 -4.59646,3.83073 -6.88435,5.75838 -0.98941,0.83793 -1.99923,1.65062 -2.93142,2.55289 0,0 0.64833,-1.25684 0.64833,-1.25684 l 0,0 c 0.94872,-0.88687 1.95551,-1.70635 2.94654,-2.54498 2.28895,-1.92775 4.56749,-3.86845 6.89067,-5.75501 0,0 -0.66977,1.24556 -0.66977,1.24556 z" id="path9885" style="opacity:1;fill:#84c98a;fill-opacity:1;stroke:none;stroke-width:0.99999994;stroke-linecap:butt;stroke-linejoin:miter;stroke-miterlimit:4;stroke-dasharray:none;stroke-dashoffset:0;stroke-opacity:1" inkscape:connector-curvature="0"/>
        <path d="m 190.33269,279.16412 c -2.00007,1.59244 -3.91697,3.28401 -5.81026,5.00088 -0.95477,0.92021 -1.77942,1.81631 -2.78287,3.05932 -0.0575,0.35765 -1.44638,1.11729 -1.33739,0.85322 0.24973,-0.60503 0.94598,-0.90489 1.41897,-1.35734 0,0 -0.65728,1.2522 -0.65728,1.2522 l 0,0 c 1.73439,-1.88798 -1.82323,1.45124 -0.66959,-0.0778 1.41079,-1.79389 3.0373,-3.40622 4.68274,-4.98319 1.89804,-1.71389 3.82282,-3.39784 5.82046,-4.99549 0,0 -0.66478,1.24822 -0.66478,1.24822 z" id="path9887" style="opacity:1;fill:#84c98a;fill-opacity:1;stroke:none;stroke-width:0.99999994;stroke-linecap:butt;stroke-linejoin:miter;stroke-miterlimit:4;stroke-dasharray:none;stroke-dashoffset:0;stroke-opacity:1" inkscape:connector-curvature="0"/>
        <path d="m 193.3836,278.8929 c -3.09734,2.29531 -6.16976,4.61987 -9.16421,7.04821 -0.42684,0.35319 -1.82499,1.50422 -2.32232,1.93519 -0.21918,0.18994 -0.82802,0.8091 -0.64461,0.58442 0.2392,-0.29303 0.5423,-0.5275 0.81345,-0.79125 0,0 -1.24674,0.66757 -1.24674,0.66757 l 0,0 c 1.26899,-1.31619 2.61529,-2.52702 4.06856,-3.64225 2.99943,-2.42325 6.07829,-4.74054 9.16905,-7.04561 0,0 -0.67318,1.24372 -0.67318,1.24372 z" id="path9889" style="opacity:1;fill:#84c98a;fill-opacity:1;stroke:none;stroke-width:0.99999994;stroke-linecap:butt;stroke-linejoin:miter;stroke-miterlimit:4;stroke-dasharray:none;stroke-dashoffset:0;stroke-opacity:1" inkscape:connector-curvature="0"/>
        <path d="m 194.62799,280.08007 c -3.2776,2.21752 -6.33766,4.70898 -9.27496,7.35496 -0.65054,0.56312 -1.24734,1.18333 -1.87722,1.76834 -0.17125,0.15905 -0.35127,0.3084 -0.52492,0.46483 -0.0648,0.0584 -0.23202,0.25609 -0.19032,0.1795 0.2542,-0.46686 0.51015,-0.93758 0.83302,-1.35987 0.13643,-0.17844 0.3516,-0.27964 0.5274,-0.41946 0,0 -0.67306,1.24378 -0.67306,1.24378 l 0,0 c -0.18026,0.13738 -0.52951,0.6385 -0.54078,0.41214 -0.0405,-0.81531 0.71965,-1.314 1.21662,-1.77795 0.26946,-0.25157 0.53431,-0.50804 0.80146,-0.76206 0.36111,-0.33412 0.72223,-0.66824 1.08334,-1.00236 2.94787,-2.63879 6.02771,-5.10758 9.29392,-7.34485 0,0 -0.6745,1.243 -0.6745,1.243 z" id="path9891" style="opacity:1;fill:#84c98a;fill-opacity:1;stroke:none;stroke-width:0.99999994;stroke-linecap:butt;stroke-linejoin:miter;stroke-miterlimit:4;stroke-dasharray:none;stroke-dashoffset:0;stroke-opacity:1" inkscape:connector-curvature="0"/>
        <path d="m 196.62092,279.45672 c -4.55073,3.40746 -8.78997,7.20419 -13.00833,11.00832 -5.28037,4.9731 1.27377,-1.21532 -2.33306,2.22707 -0.20406,0.19475 0.48923,-0.3357 0.60287,-0.59388 0.0594,-0.1349 -0.10671,-0.27478 -0.16006,-0.41218 0,0 -0.6669,1.24709 -0.6669,1.24709 l 0,0 c -0.14386,-0.0633 -0.51042,-0.0539 -0.43156,-0.18982 0.3088,-0.53228 0.86415,-0.87636 1.30133,-1.30943 0.7991,-0.79159 1.50122,-1.43428 2.34249,-2.22218 4.22385,-3.8029 8.47167,-7.59449 13.03076,-10.99634 0,0 -0.67754,1.24135 -0.67754,1.24135 z" id="path9893" style="opacity:1;fill:#84c98a;fill-opacity:1;stroke:none;stroke-width:0.99999994;stroke-linecap:butt;stroke-linejoin:miter;stroke-miterlimit:4;stroke-dasharray:none;stroke-dashoffset:0;stroke-opacity:1" inkscape:connector-curvature="0"/>
        <path d="m 198.46442,278.81057 c -2.24294,1.7945 -4.36772,3.73322 -6.43968,5.72103 -1.92366,1.8963 -3.70372,3.93005 -5.67292,5.77858 -0.0652,-1.27594 -0.16894,-0.44454 1.48665,-2.02675 0,0 -0.65765,1.252 -0.65765,1.252 l 0,0 c 0.51244,-0.59579 0.59618,-0.45647 -0.14795,-0.46467 -0.26977,0.27569 -0.53513,0.55577 -0.80932,0.82706 -0.18186,0.17994 0.35702,-0.36658 0.53228,-0.55295 0.29971,-0.3187 0.59268,-0.6437 0.89258,-0.96221 1.63754,-1.7392 3.34475,-3.4097 5.02407,-5.10822 2.08144,-1.9818 4.21228,-3.91488 6.45672,-5.7121 0,0 -0.66478,1.24823 -0.66478,1.24823 z" id="path9895" style="opacity:1;fill:#84c98a;fill-opacity:1;stroke:none;stroke-width:0.99999994;stroke-linecap:butt;stroke-linejoin:miter;stroke-miterlimit:4;stroke-dasharray:none;stroke-dashoffset:0;stroke-opacity:1" inkscape:connector-curvature="0"/>
        <path d="m 200.58574,278.45702 c -2.86179,2.56874 -5.70705,5.15684 -8.51739,7.78187 -2.43714,2.30532 -4.82672,4.65501 -7.02181,7.19386 -0.27986,0.33061 -0.15334,0.27324 -0.2133,-0.35804 0,0 -0.64217,1.26001 -0.64217,1.26001 l 0,0 c -0.63742,-0.0541 -0.67193,0.0961 -0.39459,-0.24065 2.75542,-3.24303 5.87198,-6.1518 8.92266,-9.11076 2.81523,-2.62219 5.65379,-5.2209 8.53138,-7.77452 0,0 -0.66478,1.24823 -0.66478,1.24823 z" id="path9897" style="opacity:1;fill:#84c98a;fill-opacity:1;stroke:none;stroke-width:0.99999994;stroke-linecap:butt;stroke-linejoin:miter;stroke-miterlimit:4;stroke-dasharray:none;stroke-dashoffset:0;stroke-opacity:1" inkscape:connector-curvature="0"/>
        <path d="m 199.4966,281.18484 c -1.94654,1.17197 -3.69779,2.65642 -5.23667,4.32427 -2.55001,2.68443 -4.85539,5.58414 -7.21937,8.42994 -0.55788,0.66778 -0.93299,1.33565 -1.92937,1.48747 -0.21386,0.0326 0.29534,-0.31617 0.44301,-0.47426 0,0 1.25514,-0.65162 1.25514,-0.65162 l 0,0 c -0.61669,0.67097 -0.62917,0.78659 -1.76003,1.20639 -0.36544,0.13565 1.51633,-1.34746 0.74321,-0.90284 2.36642,-2.84736 4.66966,-5.7518 7.20913,-8.44952 2.219,-2.25355 4.41472,-4.63835 7.21669,-6.18601 0,0 -0.72174,1.21618 -0.72174,1.21618 z" id="path9899" style="opacity:1;fill:#84c98a;fill-opacity:1;stroke:none;stroke-width:0.99999994;stroke-linecap:butt;stroke-linejoin:miter;stroke-miterlimit:4;stroke-dasharray:none;stroke-dashoffset:0;stroke-opacity:1" inkscape:connector-curvature="0"/>
        <path d="m 198.41287,283.75529 c -2.41461,1.77253 -4.59957,3.8826 -6.60536,6.10313 -1.62374,1.76107 -3.27385,3.50244 -4.8162,5.33648 -0.0215,0.0262 -0.36617,0.5127 -0.23213,-0.17113 0.0224,-0.11436 0.16511,-0.16449 0.24767,-0.24674 0,0 -0.6772,1.24153 -0.6772,1.24153 l 0,0 c -0.10935,0.0627 -0.94674,0.53178 -0.58634,-0.15846 1.5212,-1.85456 3.1957,-3.57935 4.80713,-5.35379 2.70794,-2.79372 5.36909,-5.7126 8.54573,-7.9892 0,0 -0.6833,1.23818 -0.6833,1.23818 z" id="path9901" style="opacity:1;fill:#84c98a;fill-opacity:1;stroke:none;stroke-width:0.99999994;stroke-linecap:butt;stroke-linejoin:miter;stroke-miterlimit:4;stroke-dasharray:none;stroke-dashoffset:0;stroke-opacity:1" inkscape:connector-curvature="0"/>
        <path d="m 194.629,288.36243 c 0.17639,-0.16534 0.621,-0.7197 0.52918,-0.49604 -0.12792,0.31161 -0.43883,0.51153 -0.64492,0.77796 -0.27804,0.35946 -0.54307,0.72888 -0.80687,1.09891 -0.9281,1.30183 -1.7728,2.6521 -2.62119,4.00638 -0.97325,1.57425 -2.0246,3.09314 -3.12477,4.57919 -0.0157,-0.006 -0.0315,-0.0112 -0.0472,-0.0167 0,0 -1.13893,0.83836 -1.13893,0.83836 l 0,0 c -0.017,-0.0455 -0.034,-0.0909 -0.0509,-0.13633 0.29035,-0.43583 0.63781,-0.82567 0.93971,-1.25483 0.76156,-1.0826 1.46248,-2.2076 2.19246,-3.31118 1.61102,-2.582 3.18517,-5.23855 5.41552,-7.34576 0,0 -0.64204,1.26007 -0.64204,1.26007 z" id="path9903" style="opacity:1;fill:#84c98a;fill-opacity:1;stroke:none;stroke-width:0.99999994;stroke-linecap:butt;stroke-linejoin:miter;stroke-miterlimit:4;stroke-dasharray:none;stroke-dashoffset:0;stroke-opacity:1" inkscape:connector-curvature="0"/>
        <path d="m 193.25707,293.62344 c 0.1957,-0.18511 0.45593,-0.79062 0.58708,-0.55533 0.13568,0.2434 -0.3642,0.42191 -0.54172,0.63671 -0.66969,0.81031 -1.2966,1.65095 -1.92141,2.49588 0,0 -1.24019,0.67966 -1.24019,0.67966 l 0,0 c 1.16026,-1.58073 2.32323,-3.16797 3.75828,-4.51699 0,0 -0.64204,1.26007 -0.64204,1.26007 z" id="path9905" style="opacity:1;fill:#84c98a;fill-opacity:1;stroke:none;stroke-width:0.99999994;stroke-linecap:butt;stroke-linejoin:miter;stroke-miterlimit:4;stroke-dasharray:none;stroke-dashoffset:0;stroke-opacity:1" inkscape:connector-curvature="0"/>
        <path d="m 179.98141,278.26128 c -0.9885,0.99295 -2.00501,1.95035 -3.09513,2.82953 -0.20948,0.16476 -0.11295,0.0901 -0.28902,0.22468 0,0 0.67293,-1.24385 0.67293,-1.24385 l 0,0 c 0.17218,-0.13687 0.0775,-0.0611 0.28357,-0.22761 0.44806,-0.36912 0.88796,-0.74626 1.31356,-1.14131 0.14105,-0.13092 0.5329,-0.5521 0.41966,-0.3965 -0.16132,0.22168 -0.37709,0.39807 -0.56564,0.5971 0,0 1.26007,-0.64204 1.26007,-0.64204 z" id="path9907" style="opacity:1;fill:#84c98a;fill-opacity:1;stroke:none;stroke-width:0.99999994;stroke-linecap:butt;stroke-linejoin:miter;stroke-miterlimit:4;stroke-dasharray:none;stroke-dashoffset:0;stroke-opacity:1" inkscape:connector-curvature="0"/>
        <path d="m 177.94467,279.23736 c -0.59795,0.59795 -1.1959,1.19591 -1.79386,1.79386 -0.0753,0.0753 -0.30273,0.29948 -0.22584,0.22584 0.28111,-0.26922 0.55902,-0.54175 0.83854,-0.81263 0,0 -1.2185,0.71782 -1.2185,0.71782 l 0,0 c 1.0922,-1.2453 0.65667,-0.79994 1.24784,-1.3911 0.189,-0.189 0.75601,-0.75601 0.56701,-0.56701 -0.22509,0.22509 -0.45017,0.45017 -0.67526,0.67526 0,0 1.26007,-0.64204 1.26007,-0.64204 z" id="path9909" style="opacity:1;fill:#84c98a;fill-opacity:1;stroke:none;stroke-width:0.99999994;stroke-linecap:butt;stroke-linejoin:miter;stroke-miterlimit:4;stroke-dasharray:none;stroke-dashoffset:0;stroke-opacity:1" inkscape:connector-curvature="0"/>
        <path d="m 183.30458,294.38122 c 0.34995,-0.92077 0.1004,-0.38581 0.86843,-1.54336 0,0 1.23631,-0.68668 1.23631,-0.68668 l 0,0 c -0.79471,1.09503 -0.51204,0.59861 -0.93379,1.43702 0,0 -1.17095,0.79302 -1.17095,0.79302 z" id="path9911" style="opacity:1;fill:#84c98a;fill-opacity:1;stroke:none;stroke-width:0.99999994;stroke-linecap:butt;stroke-linejoin:miter;stroke-miterlimit:4;stroke-dasharray:none;stroke-dashoffset:0;stroke-opacity:1" inkscape:connector-curvature="0"/>
      </g>
    </g>
    <a id="a12090" xmlns:xlink="http://www.w3.org/1999/xlink" xlink:href="smugs-as-proxy.svg">
      <text id="text11844" style="font-style:normal;font-variant:normal;font-weight:normal;font-stretch:normal;font-size:32px;line-height:125%;font-family:Verdana;-inkscape-font-specification:Verdana;text-indent:0;text-align:start;text-decoration:none;text-decoration-line:none;text-decoration-style:solid;text-decoration-color:#000000;letter-spacing:0px;word-spacing:0px;text-transform:none;direction:ltr;block-progression:tb;writing-mode:lr-tb;baseline-shift:baseline;text-anchor:start;shape-padding:0;opacity:1;fill:#f5f3f2;fill-opacity:1;stroke:none;stroke-width:1px;stroke-linecap:butt;stroke-linejoin:miter;stroke-miterlimit:4;stroke-dasharray:none;stroke-dashoffset:0;stroke-opacity:1" x="84.328117" y="340" sodipodi:linespacing="125%" xml:space="preserve"><tspan id="tspan11846" x="84.328117" y="340" sodipodi:role="line">Java Web-based </tspan><tspan id="tspan11850" x="84.328117" y="380" sodipodi:role="line">work queue to run </tspan><tspan id="tspan11880" x="84.328117" y="420" sodipodi:role="line">imports on behalf </tspan><tspan id="tspan11848" x="84.328117" y="460" sodipodi:role="line">of OMERO clients</tspan></text>
    </a>
    <a id="a12097" xmlns:xlink="http://www.w3.org/1999/xlink" xlink:href="smugs-as-reactive-sys.svg">
      <text id="text11854" style="font-style:normal;font-variant:normal;font-weight:normal;font-stretch:normal;font-size:32px;line-height:125%;font-family:Verdana;-inkscape-font-specification:Verdana;text-indent:0;text-align:start;text-decoration:none;text-decoration-line:none;text-decoration-style:solid;text-decoration-color:#000000;letter-spacing:0px;word-spacing:0px;text-transform:none;direction:ltr;block-progression:tb;writing-mode:lr-tb;baseline-shift:baseline;text-anchor:start;shape-padding:0;opacity:1;fill:#f5f3f2;fill-opacity:1;stroke:none;stroke-width:1px;stroke-linecap:butt;stroke-linejoin:miter;stroke-miterlimit:4;stroke-dasharray:none;stroke-dashoffset:0;stroke-opacity:1" x="670" y="338" sodipodi:linespacing="125%" xml:space="preserve"><tspan id="tspan11864" x="670" y="338" sodipodi:role="line">exploration of a</tspan><tspan id="tspan11912" x="670" y="378" sodipodi:role="line">reactive systems </tspan><tspan id="tspan11860" x="670" y="418" sodipodi:role="line">architecture for </tspan><tspan id="tspan11914" x="670" y="458" sodipodi:role="line">OME ecosystem</tspan></text>
    </a>
    <rect height="180" id="rect11916" ry="30" style="opacity:0.4;fill:none;fill-opacity:1;fill-rule:evenodd;stroke:#84c98a;stroke-width:0.99999994;stroke-linecap:butt;stroke-linejoin:miter;stroke-miterlimit:4;stroke-dasharray:none;stroke-dashoffset:0;stroke-opacity:1" width="330" x="64" y="300"/>
    <rect height="177" id="rect11918" ry="30" style="opacity:0.4;fill:none;fill-opacity:1;fill-rule:evenodd;stroke:#84c98a;stroke-width:0.99999994;stroke-linecap:butt;stroke-linejoin:miter;stroke-miterlimit:4;stroke-dasharray:none;stroke-dashoffset:0;stroke-opacity:1" width="300" x="652" y="300"/>
    <a id="a12086" xmlns:xlink="http://www.w3.org/1999/xlink" xlink:href="use-cases.svg">
      <text id="text11920" style="font-style:normal;font-variant:normal;font-weight:normal;font-stretch:normal;font-size:42.66666794px;line-height:125%;font-family:'Cherry Cream Soda';-inkscape-font-specification:'Cherry Cream Soda';text-indent:0;text-align:start;text-decoration:none;text-decoration-line:none;text-decoration-style:solid;text-decoration-color:#000000;letter-spacing:0px;word-spacing:0px;text-transform:none;direction:ltr;block-progression:tb;writing-mode:lr-tb;baseline-shift:baseline;text-anchor:start;shape-padding:0;opacity:1;fill:#84c98a;fill-opacity:1;stroke:none;stroke-width:1px;stroke-linecap:butt;stroke-linejoin:miter;stroke-miterlimit:4;stroke-dasharray:none;stroke-dashoffset:0;stroke-opacity:1;" x="395" y="640" sodipodi:linespacing="125%" xml:space="preserve"><tspan id="tspan11922" x="395" y="640" sodipodi:role="line">use cases</tspan></text>
    </a>
    <g id="g11948" transform="matrix(-1,0,0,1,1013.2573,0)">
      <path d="M 188.83612,276.03951 A 230,230 0 0 1 358.43305,152.76666" id="path11950" style="opacity:0.4;fill:none;fill-opacity:1;stroke:#84c98a;stroke-width:4;stroke-linecap:butt;stroke-linejoin:miter;stroke-miterlimit:4;stroke-dasharray:none;stroke-dashoffset:0;stroke-opacity:1" sodipodi:cx="394" sodipodi:cy="380" sodipodi:end="4.557127" sodipodi:open="true" sodipodi:rx="230" sodipodi:ry="230" sodipodi:start="3.6106012" sodipodi:type="arc"/>
      <g id="g11952" style="opacity:0.4;stroke:#84c98a" transform="rotate(30,188.73205,278.41923)">
        <path d="m 173,277 30,0 -15,25.98076 z" id="path11954" style="opacity:1;fill:none;fill-opacity:1;fill-rule:evenodd;stroke:#84c98a;stroke-width:2.5;stroke-linecap:butt;stroke-linejoin:miter;stroke-miterlimit:4;stroke-dasharray:none;stroke-dashoffset:0;stroke-opacity:1" inkscape:connector-curvature="0"/>
      </g>
      <g id="g11956" style="opacity:0.4;fill:#84c98a" transform="rotate(30,188.73205,278.41923)">
        <path d="m 177.35067,283.06478 c 0.99735,-1.68112 2.42149,-3.00943 3.79463,-4.37725 0.67755,-0.62516 0.35093,-0.35967 0.9639,-0.8157 0,0 -0.673,1.24381 -0.673,1.24381 l 0,0 c -0.58339,0.476 -0.2679,0.20336 -0.93515,0.83083 0.10771,-0.11298 0.42899,-0.45365 0.32314,-0.33893 -0.80848,0.87618 -1.63158,1.72275 -2.2464,2.75426 0,0 -1.22712,0.70298 -1.22712,0.70298 z" id="path11958" style="opacity:1;fill:#84c98a;fill-opacity:1;stroke:none;stroke-width:0.99999994;stroke-linecap:butt;stroke-linejoin:miter;stroke-miterlimit:4;stroke-dasharray:none;stroke-dashoffset:0;stroke-opacity:1" inkscape:connector-curvature="0"/>
        <path d="m 178.47943,283.03431 c 1.55606,-1.43459 2.87593,-3.1474 4.55922,-4.43799 0.54118,0.3604 -0.11152,0.88515 -0.39133,1.20697 -0.32867,0.35603 -0.62354,0.73862 -0.94813,1.09825 -0.11338,0.12396 -0.22284,0.25163 -0.34015,0.37188 -0.42755,0.43823 -0.85916,0.87253 -1.2942,1.30333 -0.1007,0.0997 -0.20762,0.19294 -0.31277,0.28793 -0.0844,0.0763 -0.33553,0.30716 -0.25598,0.22581 1.12137,-1.1467 0.92784,-0.93382 0.61298,-0.57248 -0.11287,0.10425 -0.1677,0.26561 -0.27757,0.36868 -0.34947,0.17183 -0.67385,0.40893 -1.04842,0.51548 -0.12894,0.0367 0.17777,-0.201 0.27336,-0.29499 0.48421,-0.47612 0.96659,-0.95445 1.46566,-1.41497 0.76129,-0.70246 1.60141,-1.34268 2.40597,-1.99412 0.71413,-0.57731 1.43031,-1.15209 2.14782,-1.7252 0.23996,-0.19167 0.91565,-0.81808 0.69797,-0.60143 -0.27865,0.27733 -0.55959,0.55234 -0.83939,0.82851 0.0316,0.0758 0.11664,0.14828 0.0949,0.22752 -0.008,0.0309 -0.453,0.27788 -0.50514,0.31466 -0.65572,0.46255 -1.23325,1.02499 -1.81083,1.57777 -0.65672,0.66929 -1.48234,1.65761 -2.53629,2.89245 -0.0416,-0.0263 -0.58107,0.76193 -0.619,0.73867 -0.22826,-0.14002 -0.15151,-0.20273 -0.0814,-0.34439 0.36544,-0.22287 0.17595,-0.0891 0.558,-0.41563 0,0 -0.67232,1.24418 -0.67232,1.24418 l 0,0 c -0.42123,0.30281 -0.21897,0.17573 -0.59982,0.39211 -1.0149,0.11022 0.0206,-0.73544 0.16489,-0.95276 1.41206,-1.66362 2.85065,-3.30693 4.4356,-4.81077 0.32352,-0.29929 1.97478,-1.93452 2.51672,-1.76621 0.12514,0.0389 0.2047,0.16365 0.30705,0.24547 -0.35516,0.36104 -0.70504,0.72734 -1.06548,1.08311 -0.87133,0.86006 -1.96984,1.48051 -2.86106,2.31857 -1.0345,0.84515 -0.70655,0.56911 -1.70491,1.41609 -0.22943,0.19464 -0.40916,0.4699 -0.68693,0.5855 -0.20281,0.0844 0.30945,-0.31311 0.44597,-0.48521 0.0821,-0.1035 -0.18798,0.18565 -0.28197,0.27847 -0.46267,0.30528 -0.92534,0.61056 -1.38801,0.91584 0.0103,-0.17622 0.12527,-0.32312 0.21883,-0.46806 0.45427,-0.6133 0.14299,-0.21145 1.28838,-1.34994 0.17998,-0.17889 0.72795,-0.70669 0.55538,-0.52065 -0.19443,0.20963 -0.38699,0.42246 -0.60145,0.61156 -0.12663,0.11166 0.22457,-0.25216 0.33685,-0.37824 0.34641,-0.34643 0.62398,-0.73088 0.95288,-1.08913 0.13052,-0.14562 0.48109,-0.64611 0.6202,-0.71165 0.16168,-0.0762 0.24585,0.0168 0.35409,0.093 -0.94669,0.80038 -1.4663,1.40782 -2.63011,2.54999 0,0 -1.26008,0.64204 -1.26008,0.64204 z" id="path11960" style="opacity:1;fill:#84c98a;fill-opacity:1;stroke:none;stroke-width:0.99999994;stroke-linecap:butt;stroke-linejoin:miter;stroke-miterlimit:4;stroke-dasharray:none;stroke-dashoffset:0;stroke-opacity:1" inkscape:connector-curvature="0"/>
        <path d="m 186.00848,279.2503 c -1.99867,1.96501 -4.03531,3.89146 -6.05969,5.83004 0.12804,-0.1221 0.50804,-0.49259 0.38413,-0.3663 -0.42551,0.43367 -0.85584,0.86263 -1.28907,1.28858 -0.47141,0.46349 0.61578,-1.16086 0.67879,-1.25535 0.15316,-0.2297 0.41704,-0.36191 0.62334,-0.54539 0,0 -0.65858,1.25151 -0.65858,1.25151 l 0,0 c -0.12679,0.10946 -0.25205,0.22071 -0.38035,0.3284 -0.0849,0.0713 -0.29147,0.31438 -0.25917,0.20835 0.12436,-0.40813 0.35358,-0.77694 0.54812,-1.15666 0.0195,-0.038 0.1209,-0.12081 0.0908,-0.0905 -0.30349,0.30632 -2.84803,2.86798 0.90946,-0.91996 2.02541,-1.93955 4.05405,-3.87577 6.07096,-5.82418 0,0 -0.65876,1.25142 -0.65876,1.25142 z" id="path11962" style="opacity:1;fill:#84c98a;fill-opacity:1;stroke:none;stroke-width:0.99999994;stroke-linecap:butt;stroke-linejoin:miter;stroke-miterlimit:4;stroke-dasharray:none;stroke-dashoffset:0;stroke-opacity:1" inkscape:connector-curvature="0"/>
        <path d="m 187.80627,278.80555 c -2.10715,1.69509 -4.10922,3.51527 -6.10999,5.33317 -0.65664,0.60121 -0.76948,0.70294 -1.37411,1.2617 -0.13979,0.12919 -0.55125,0.52487 -0.41864,0.38833 0.23,-0.23683 0.47082,-0.46296 0.71104,-0.68941 0.0346,-0.0326 -0.0589,0.13991 -0.0939,0.10762 -0.0737,-0.068 -0.0652,-0.18971 -0.0978,-0.28457 0,0 -0.76608,1.18875 -0.76608,1.18875 l 0,0 c -0.12227,-0.0691 -0.27726,-0.0992 -0.36679,-0.20743 -0.14822,-0.17918 2.76781,-2.73398 3.06044,-3.0188 2.00526,-1.8182 4.00724,-3.64727 6.13909,-5.31755 0,0 -0.6833,1.23819 -0.6833,1.23819 z" id="path11964" style="opacity:1;fill:#84c98a;fill-opacity:1;stroke:none;stroke-width:0.99999994;stroke-linecap:butt;stroke-linejoin:miter;stroke-miterlimit:4;stroke-dasharray:none;stroke-dashoffset:0;stroke-opacity:1" inkscape:connector-curvature="0"/>
        <path d="m 189.31183,279.1205 c -2.31742,1.8922 -4.59646,3.83073 -6.88435,5.75838 -0.98941,0.83793 -1.99923,1.65062 -2.93142,2.55289 0,0 0.64833,-1.25684 0.64833,-1.25684 l 0,0 c 0.94872,-0.88687 1.95551,-1.70635 2.94654,-2.54498 2.28895,-1.92775 4.56749,-3.86845 6.89067,-5.75501 0,0 -0.66977,1.24556 -0.66977,1.24556 z" id="path11966" style="opacity:1;fill:#84c98a;fill-opacity:1;stroke:none;stroke-width:0.99999994;stroke-linecap:butt;stroke-linejoin:miter;stroke-miterlimit:4;stroke-dasharray:none;stroke-dashoffset:0;stroke-opacity:1" inkscape:connector-curvature="0"/>
        <path d="m 190.33269,279.16412 c -2.00007,1.59244 -3.91697,3.28401 -5.81026,5.00088 -0.95477,0.92021 -1.77942,1.81631 -2.78287,3.05932 -0.0575,0.35765 -1.44638,1.11729 -1.33739,0.85322 0.24973,-0.60503 0.94598,-0.90489 1.41897,-1.35734 0,0 -0.65728,1.2522 -0.65728,1.2522 l 0,0 c 1.73439,-1.88798 -1.82323,1.45124 -0.66959,-0.0778 1.41079,-1.79389 3.0373,-3.40622 4.68274,-4.98319 1.89804,-1.71389 3.82282,-3.39784 5.82046,-4.99549 0,0 -0.66478,1.24822 -0.66478,1.24822 z" id="path11968" style="opacity:1;fill:#84c98a;fill-opacity:1;stroke:none;stroke-width:0.99999994;stroke-linecap:butt;stroke-linejoin:miter;stroke-miterlimit:4;stroke-dasharray:none;stroke-dashoffset:0;stroke-opacity:1" inkscape:connector-curvature="0"/>
        <path d="m 193.3836,278.8929 c -3.09734,2.29531 -6.16976,4.61987 -9.16421,7.04821 -0.42684,0.35319 -1.82499,1.50422 -2.32232,1.93519 -0.21918,0.18994 -0.82802,0.8091 -0.64461,0.58442 0.2392,-0.29303 0.5423,-0.5275 0.81345,-0.79125 0,0 -1.24674,0.66757 -1.24674,0.66757 l 0,0 c 1.26899,-1.31619 2.61529,-2.52702 4.06856,-3.64225 2.99943,-2.42325 6.07829,-4.74054 9.16905,-7.04561 0,0 -0.67318,1.24372 -0.67318,1.24372 z" id="path11970" style="opacity:1;fill:#84c98a;fill-opacity:1;stroke:none;stroke-width:0.99999994;stroke-linecap:butt;stroke-linejoin:miter;stroke-miterlimit:4;stroke-dasharray:none;stroke-dashoffset:0;stroke-opacity:1" inkscape:connector-curvature="0"/>
        <path d="m 194.62799,280.08007 c -3.2776,2.21752 -6.33766,4.70898 -9.27496,7.35496 -0.65054,0.56312 -1.24734,1.18333 -1.87722,1.76834 -0.17125,0.15905 -0.35127,0.3084 -0.52492,0.46483 -0.0648,0.0584 -0.23202,0.25609 -0.19032,0.1795 0.2542,-0.46686 0.51015,-0.93758 0.83302,-1.35987 0.13643,-0.17844 0.3516,-0.27964 0.5274,-0.41946 0,0 -0.67306,1.24378 -0.67306,1.24378 l 0,0 c -0.18026,0.13738 -0.52951,0.6385 -0.54078,0.41214 -0.0405,-0.81531 0.71965,-1.314 1.21662,-1.77795 0.26946,-0.25157 0.53431,-0.50804 0.80146,-0.76206 0.36111,-0.33412 0.72223,-0.66824 1.08334,-1.00236 2.94787,-2.63879 6.02771,-5.10758 9.29392,-7.34485 0,0 -0.6745,1.243 -0.6745,1.243 z" id="path11972" style="opacity:1;fill:#84c98a;fill-opacity:1;stroke:none;stroke-width:0.99999994;stroke-linecap:butt;stroke-linejoin:miter;stroke-miterlimit:4;stroke-dasharray:none;stroke-dashoffset:0;stroke-opacity:1" inkscape:connector-curvature="0"/>
        <path d="m 196.62092,279.45672 c -4.55073,3.40746 -8.78997,7.20419 -13.00833,11.00832 -5.28037,4.9731 1.27377,-1.21532 -2.33306,2.22707 -0.20406,0.19475 0.48923,-0.3357 0.60287,-0.59388 0.0594,-0.1349 -0.10671,-0.27478 -0.16006,-0.41218 0,0 -0.6669,1.24709 -0.6669,1.24709 l 0,0 c -0.14386,-0.0633 -0.51042,-0.0539 -0.43156,-0.18982 0.3088,-0.53228 0.86415,-0.87636 1.30133,-1.30943 0.7991,-0.79159 1.50122,-1.43428 2.34249,-2.22218 4.22385,-3.8029 8.47167,-7.59449 13.03076,-10.99634 0,0 -0.67754,1.24135 -0.67754,1.24135 z" id="path11974" style="opacity:1;fill:#84c98a;fill-opacity:1;stroke:none;stroke-width:0.99999994;stroke-linecap:butt;stroke-linejoin:miter;stroke-miterlimit:4;stroke-dasharray:none;stroke-dashoffset:0;stroke-opacity:1" inkscape:connector-curvature="0"/>
        <path d="m 198.46442,278.81057 c -2.24294,1.7945 -4.36772,3.73322 -6.43968,5.72103 -1.92366,1.8963 -3.70372,3.93005 -5.67292,5.77858 -0.0652,-1.27594 -0.16894,-0.44454 1.48665,-2.02675 0,0 -0.65765,1.252 -0.65765,1.252 l 0,0 c 0.51244,-0.59579 0.59618,-0.45647 -0.14795,-0.46467 -0.26977,0.27569 -0.53513,0.55577 -0.80932,0.82706 -0.18186,0.17994 0.35702,-0.36658 0.53228,-0.55295 0.29971,-0.3187 0.59268,-0.6437 0.89258,-0.96221 1.63754,-1.7392 3.34475,-3.4097 5.02407,-5.10822 2.08144,-1.9818 4.21228,-3.91488 6.45672,-5.7121 0,0 -0.66478,1.24823 -0.66478,1.24823 z" id="path11976" style="opacity:1;fill:#84c98a;fill-opacity:1;stroke:none;stroke-width:0.99999994;stroke-linecap:butt;stroke-linejoin:miter;stroke-miterlimit:4;stroke-dasharray:none;stroke-dashoffset:0;stroke-opacity:1" inkscape:connector-curvature="0"/>
        <path d="m 200.58574,278.45702 c -2.86179,2.56874 -5.70705,5.15684 -8.51739,7.78187 -2.43714,2.30532 -4.82672,4.65501 -7.02181,7.19386 -0.27986,0.33061 -0.15334,0.27324 -0.2133,-0.35804 0,0 -0.64217,1.26001 -0.64217,1.26001 l 0,0 c -0.63742,-0.0541 -0.67193,0.0961 -0.39459,-0.24065 2.75542,-3.24303 5.87198,-6.1518 8.92266,-9.11076 2.81523,-2.62219 5.65379,-5.2209 8.53138,-7.77452 0,0 -0.66478,1.24823 -0.66478,1.24823 z" id="path11978" style="opacity:1;fill:#84c98a;fill-opacity:1;stroke:none;stroke-width:0.99999994;stroke-linecap:butt;stroke-linejoin:miter;stroke-miterlimit:4;stroke-dasharray:none;stroke-dashoffset:0;stroke-opacity:1" inkscape:connector-curvature="0"/>
        <path d="m 199.4966,281.18484 c -1.94654,1.17197 -3.69779,2.65642 -5.23667,4.32427 -2.55001,2.68443 -4.85539,5.58414 -7.21937,8.42994 -0.55788,0.66778 -0.93299,1.33565 -1.92937,1.48747 -0.21386,0.0326 0.29534,-0.31617 0.44301,-0.47426 0,0 1.25514,-0.65162 1.25514,-0.65162 l 0,0 c -0.61669,0.67097 -0.62917,0.78659 -1.76003,1.20639 -0.36544,0.13565 1.51633,-1.34746 0.74321,-0.90284 2.36642,-2.84736 4.66966,-5.7518 7.20913,-8.44952 2.219,-2.25355 4.41472,-4.63835 7.21669,-6.18601 0,0 -0.72174,1.21618 -0.72174,1.21618 z" id="path11980" style="opacity:1;fill:#84c98a;fill-opacity:1;stroke:none;stroke-width:0.99999994;stroke-linecap:butt;stroke-linejoin:miter;stroke-miterlimit:4;stroke-dasharray:none;stroke-dashoffset:0;stroke-opacity:1" inkscape:connector-curvature="0"/>
        <path d="m 198.41287,283.75529 c -2.41461,1.77253 -4.59957,3.8826 -6.60536,6.10313 -1.62374,1.76107 -3.27385,3.50244 -4.8162,5.33648 -0.0215,0.0262 -0.36617,0.5127 -0.23213,-0.17113 0.0224,-0.11436 0.16511,-0.16449 0.24767,-0.24674 0,0 -0.6772,1.24153 -0.6772,1.24153 l 0,0 c -0.10935,0.0627 -0.94674,0.53178 -0.58634,-0.15846 1.5212,-1.85456 3.1957,-3.57935 4.80713,-5.35379 2.70794,-2.79372 5.36909,-5.7126 8.54573,-7.9892 0,0 -0.6833,1.23818 -0.6833,1.23818 z" id="path11982" style="opacity:1;fill:#84c98a;fill-opacity:1;stroke:none;stroke-width:0.99999994;stroke-linecap:butt;stroke-linejoin:miter;stroke-miterlimit:4;stroke-dasharray:none;stroke-dashoffset:0;stroke-opacity:1" inkscape:connector-curvature="0"/>
        <path d="m 194.629,288.36243 c 0.17639,-0.16534 0.621,-0.7197 0.52918,-0.49604 -0.12792,0.31161 -0.43883,0.51153 -0.64492,0.77796 -0.27804,0.35946 -0.54307,0.72888 -0.80687,1.09891 -0.9281,1.30183 -1.7728,2.6521 -2.62119,4.00638 -0.97325,1.57425 -2.0246,3.09314 -3.12477,4.57919 -0.0157,-0.006 -0.0315,-0.0112 -0.0472,-0.0167 0,0 -1.13893,0.83836 -1.13893,0.83836 l 0,0 c -0.017,-0.0455 -0.034,-0.0909 -0.0509,-0.13633 0.29035,-0.43583 0.63781,-0.82567 0.93971,-1.25483 0.76156,-1.0826 1.46248,-2.2076 2.19246,-3.31118 1.61102,-2.582 3.18517,-5.23855 5.41552,-7.34576 0,0 -0.64204,1.26007 -0.64204,1.26007 z" id="path11984" style="opacity:1;fill:#84c98a;fill-opacity:1;stroke:none;stroke-width:0.99999994;stroke-linecap:butt;stroke-linejoin:miter;stroke-miterlimit:4;stroke-dasharray:none;stroke-dashoffset:0;stroke-opacity:1" inkscape:connector-curvature="0"/>
        <path d="m 193.25707,293.62344 c 0.1957,-0.18511 0.45593,-0.79062 0.58708,-0.55533 0.13568,0.2434 -0.3642,0.42191 -0.54172,0.63671 -0.66969,0.81031 -1.2966,1.65095 -1.92141,2.49588 0,0 -1.24019,0.67966 -1.24019,0.67966 l 0,0 c 1.16026,-1.58073 2.32323,-3.16797 3.75828,-4.51699 0,0 -0.64204,1.26007 -0.64204,1.26007 z" id="path11986" style="opacity:1;fill:#84c98a;fill-opacity:1;stroke:none;stroke-width:0.99999994;stroke-linecap:butt;stroke-linejoin:miter;stroke-miterlimit:4;stroke-dasharray:none;stroke-dashoffset:0;stroke-opacity:1" inkscape:connector-curvature="0"/>
        <path d="m 179.98141,278.26128 c -0.9885,0.99295 -2.00501,1.95035 -3.09513,2.82953 -0.20948,0.16476 -0.11295,0.0901 -0.28902,0.22468 0,0 0.67293,-1.24385 0.67293,-1.24385 l 0,0 c 0.17218,-0.13687 0.0775,-0.0611 0.28357,-0.22761 0.44806,-0.36912 0.88796,-0.74626 1.31356,-1.14131 0.14105,-0.13092 0.5329,-0.5521 0.41966,-0.3965 -0.16132,0.22168 -0.37709,0.39807 -0.56564,0.5971 0,0 1.26007,-0.64204 1.26007,-0.64204 z" id="path11988" style="opacity:1;fill:#84c98a;fill-opacity:1;stroke:none;stroke-width:0.99999994;stroke-linecap:butt;stroke-linejoin:miter;stroke-miterlimit:4;stroke-dasharray:none;stroke-dashoffset:0;stroke-opacity:1" inkscape:connector-curvature="0"/>
        <path d="m 177.94467,279.23736 c -0.59795,0.59795 -1.1959,1.19591 -1.79386,1.79386 -0.0753,0.0753 -0.30273,0.29948 -0.22584,0.22584 0.28111,-0.26922 0.55902,-0.54175 0.83854,-0.81263 0,0 -1.2185,0.71782 -1.2185,0.71782 l 0,0 c 1.0922,-1.2453 0.65667,-0.79994 1.24784,-1.3911 0.189,-0.189 0.75601,-0.75601 0.56701,-0.56701 -0.22509,0.22509 -0.45017,0.45017 -0.67526,0.67526 0,0 1.26007,-0.64204 1.26007,-0.64204 z" id="path11990" style="opacity:1;fill:#84c98a;fill-opacity:1;stroke:none;stroke-width:0.99999994;stroke-linecap:butt;stroke-linejoin:miter;stroke-miterlimit:4;stroke-dasharray:none;stroke-dashoffset:0;stroke-opacity:1" inkscape:connector-curvature="0"/>
        <path d="m 183.30458,294.38122 c 0.34995,-0.92077 0.1004,-0.38581 0.86843,-1.54336 0,0 1.23631,-0.68668 1.23631,-0.68668 l 0,0 c -0.79471,1.09503 -0.51204,0.59861 -0.93379,1.43702 0,0 -1.17095,0.79302 -1.17095,0.79302 z" id="path11992" style="opacity:1;fill:#84c98a;fill-opacity:1;stroke:none;stroke-width:0.99999994;stroke-linecap:butt;stroke-linejoin:miter;stroke-miterlimit:4;stroke-dasharray:none;stroke-dashoffset:0;stroke-opacity:1" inkscape:connector-curvature="0"/>
      </g>
    </g>
    <g id="g11994" transform="matrix(1,0,0,-1,0,778.27989)">
      <path d="M 188.83612,276.03951 A 230,230 0 0 1 358.43305,152.76666" id="path11996" style="opacity:0.4;fill:none;fill-opacity:1;stroke:#84c98a;stroke-width:4;stroke-linecap:butt;stroke-linejoin:miter;stroke-miterlimit:4;stroke-dasharray:none;stroke-dashoffset:0;stroke-opacity:1" sodipodi:cx="394" sodipodi:cy="380" sodipodi:end="4.557127" sodipodi:open="true" sodipodi:rx="230" sodipodi:ry="230" sodipodi:start="3.6106012" sodipodi:type="arc"/>
      <g id="g11998" style="opacity:0.4;stroke:#84c98a" transform="rotate(30,188.73205,278.41923)">
        <path d="m 173,277 30,0 -15,25.98076 z" id="path12000" style="opacity:1;fill:none;fill-opacity:1;fill-rule:evenodd;stroke:#84c98a;stroke-width:2.5;stroke-linecap:butt;stroke-linejoin:miter;stroke-miterlimit:4;stroke-dasharray:none;stroke-dashoffset:0;stroke-opacity:1" inkscape:connector-curvature="0"/>
      </g>
      <g id="g12002" style="opacity:0.4;fill:#84c98a" transform="rotate(30,188.73205,278.41923)">
        <path d="m 177.35067,283.06478 c 0.99735,-1.68112 2.42149,-3.00943 3.79463,-4.37725 0.67755,-0.62516 0.35093,-0.35967 0.9639,-0.8157 0,0 -0.673,1.24381 -0.673,1.24381 l 0,0 c -0.58339,0.476 -0.2679,0.20336 -0.93515,0.83083 0.10771,-0.11298 0.42899,-0.45365 0.32314,-0.33893 -0.80848,0.87618 -1.63158,1.72275 -2.2464,2.75426 0,0 -1.22712,0.70298 -1.22712,0.70298 z" id="path12004" style="opacity:1;fill:#84c98a;fill-opacity:1;stroke:none;stroke-width:0.99999994;stroke-linecap:butt;stroke-linejoin:miter;stroke-miterlimit:4;stroke-dasharray:none;stroke-dashoffset:0;stroke-opacity:1" inkscape:connector-curvature="0"/>
        <path d="m 178.47943,283.03431 c 1.55606,-1.43459 2.87593,-3.1474 4.55922,-4.43799 0.54118,0.3604 -0.11152,0.88515 -0.39133,1.20697 -0.32867,0.35603 -0.62354,0.73862 -0.94813,1.09825 -0.11338,0.12396 -0.22284,0.25163 -0.34015,0.37188 -0.42755,0.43823 -0.85916,0.87253 -1.2942,1.30333 -0.1007,0.0997 -0.20762,0.19294 -0.31277,0.28793 -0.0844,0.0763 -0.33553,0.30716 -0.25598,0.22581 1.12137,-1.1467 0.92784,-0.93382 0.61298,-0.57248 -0.11287,0.10425 -0.1677,0.26561 -0.27757,0.36868 -0.34947,0.17183 -0.67385,0.40893 -1.04842,0.51548 -0.12894,0.0367 0.17777,-0.201 0.27336,-0.29499 0.48421,-0.47612 0.96659,-0.95445 1.46566,-1.41497 0.76129,-0.70246 1.60141,-1.34268 2.40597,-1.99412 0.71413,-0.57731 1.43031,-1.15209 2.14782,-1.7252 0.23996,-0.19167 0.91565,-0.81808 0.69797,-0.60143 -0.27865,0.27733 -0.55959,0.55234 -0.83939,0.82851 0.0316,0.0758 0.11664,0.14828 0.0949,0.22752 -0.008,0.0309 -0.453,0.27788 -0.50514,0.31466 -0.65572,0.46255 -1.23325,1.02499 -1.81083,1.57777 -0.65672,0.66929 -1.48234,1.65761 -2.53629,2.89245 -0.0416,-0.0263 -0.58107,0.76193 -0.619,0.73867 -0.22826,-0.14002 -0.15151,-0.20273 -0.0814,-0.34439 0.36544,-0.22287 0.17595,-0.0891 0.558,-0.41563 0,0 -0.67232,1.24418 -0.67232,1.24418 l 0,0 c -0.42123,0.30281 -0.21897,0.17573 -0.59982,0.39211 -1.0149,0.11022 0.0206,-0.73544 0.16489,-0.95276 1.41206,-1.66362 2.85065,-3.30693 4.4356,-4.81077 0.32352,-0.29929 1.97478,-1.93452 2.51672,-1.76621 0.12514,0.0389 0.2047,0.16365 0.30705,0.24547 -0.35516,0.36104 -0.70504,0.72734 -1.06548,1.08311 -0.87133,0.86006 -1.96984,1.48051 -2.86106,2.31857 -1.0345,0.84515 -0.70655,0.56911 -1.70491,1.41609 -0.22943,0.19464 -0.40916,0.4699 -0.68693,0.5855 -0.20281,0.0844 0.30945,-0.31311 0.44597,-0.48521 0.0821,-0.1035 -0.18798,0.18565 -0.28197,0.27847 -0.46267,0.30528 -0.92534,0.61056 -1.38801,0.91584 0.0103,-0.17622 0.12527,-0.32312 0.21883,-0.46806 0.45427,-0.6133 0.14299,-0.21145 1.28838,-1.34994 0.17998,-0.17889 0.72795,-0.70669 0.55538,-0.52065 -0.19443,0.20963 -0.38699,0.42246 -0.60145,0.61156 -0.12663,0.11166 0.22457,-0.25216 0.33685,-0.37824 0.34641,-0.34643 0.62398,-0.73088 0.95288,-1.08913 0.13052,-0.14562 0.48109,-0.64611 0.6202,-0.71165 0.16168,-0.0762 0.24585,0.0168 0.35409,0.093 -0.94669,0.80038 -1.4663,1.40782 -2.63011,2.54999 0,0 -1.26008,0.64204 -1.26008,0.64204 z" id="path12006" style="opacity:1;fill:#84c98a;fill-opacity:1;stroke:none;stroke-width:0.99999994;stroke-linecap:butt;stroke-linejoin:miter;stroke-miterlimit:4;stroke-dasharray:none;stroke-dashoffset:0;stroke-opacity:1" inkscape:connector-curvature="0"/>
        <path d="m 186.00848,279.2503 c -1.99867,1.96501 -4.03531,3.89146 -6.05969,5.83004 0.12804,-0.1221 0.50804,-0.49259 0.38413,-0.3663 -0.42551,0.43367 -0.85584,0.86263 -1.28907,1.28858 -0.47141,0.46349 0.61578,-1.16086 0.67879,-1.25535 0.15316,-0.2297 0.41704,-0.36191 0.62334,-0.54539 0,0 -0.65858,1.25151 -0.65858,1.25151 l 0,0 c -0.12679,0.10946 -0.25205,0.22071 -0.38035,0.3284 -0.0849,0.0713 -0.29147,0.31438 -0.25917,0.20835 0.12436,-0.40813 0.35358,-0.77694 0.54812,-1.15666 0.0195,-0.038 0.1209,-0.12081 0.0908,-0.0905 -0.30349,0.30632 -2.84803,2.86798 0.90946,-0.91996 2.02541,-1.93955 4.05405,-3.87577 6.07096,-5.82418 0,0 -0.65876,1.25142 -0.65876,1.25142 z" id="path12008" style="opacity:1;fill:#84c98a;fill-opacity:1;stroke:none;stroke-width:0.99999994;stroke-linecap:butt;stroke-linejoin:miter;stroke-miterlimit:4;stroke-dasharray:none;stroke-dashoffset:0;stroke-opacity:1" inkscape:connector-curvature="0"/>
        <path d="m 187.80627,278.80555 c -2.10715,1.69509 -4.10922,3.51527 -6.10999,5.33317 -0.65664,0.60121 -0.76948,0.70294 -1.37411,1.2617 -0.13979,0.12919 -0.55125,0.52487 -0.41864,0.38833 0.23,-0.23683 0.47082,-0.46296 0.71104,-0.68941 0.0346,-0.0326 -0.0589,0.13991 -0.0939,0.10762 -0.0737,-0.068 -0.0652,-0.18971 -0.0978,-0.28457 0,0 -0.76608,1.18875 -0.76608,1.18875 l 0,0 c -0.12227,-0.0691 -0.27726,-0.0992 -0.36679,-0.20743 -0.14822,-0.17918 2.76781,-2.73398 3.06044,-3.0188 2.00526,-1.8182 4.00724,-3.64727 6.13909,-5.31755 0,0 -0.6833,1.23819 -0.6833,1.23819 z" id="path12010" style="opacity:1;fill:#84c98a;fill-opacity:1;stroke:none;stroke-width:0.99999994;stroke-linecap:butt;stroke-linejoin:miter;stroke-miterlimit:4;stroke-dasharray:none;stroke-dashoffset:0;stroke-opacity:1" inkscape:connector-curvature="0"/>
        <path d="m 189.31183,279.1205 c -2.31742,1.8922 -4.59646,3.83073 -6.88435,5.75838 -0.98941,0.83793 -1.99923,1.65062 -2.93142,2.55289 0,0 0.64833,-1.25684 0.64833,-1.25684 l 0,0 c 0.94872,-0.88687 1.95551,-1.70635 2.94654,-2.54498 2.28895,-1.92775 4.56749,-3.86845 6.89067,-5.75501 0,0 -0.66977,1.24556 -0.66977,1.24556 z" id="path12012" style="opacity:1;fill:#84c98a;fill-opacity:1;stroke:none;stroke-width:0.99999994;stroke-linecap:butt;stroke-linejoin:miter;stroke-miterlimit:4;stroke-dasharray:none;stroke-dashoffset:0;stroke-opacity:1" inkscape:connector-curvature="0"/>
        <path d="m 190.33269,279.16412 c -2.00007,1.59244 -3.91697,3.28401 -5.81026,5.00088 -0.95477,0.92021 -1.77942,1.81631 -2.78287,3.05932 -0.0575,0.35765 -1.44638,1.11729 -1.33739,0.85322 0.24973,-0.60503 0.94598,-0.90489 1.41897,-1.35734 0,0 -0.65728,1.2522 -0.65728,1.2522 l 0,0 c 1.73439,-1.88798 -1.82323,1.45124 -0.66959,-0.0778 1.41079,-1.79389 3.0373,-3.40622 4.68274,-4.98319 1.89804,-1.71389 3.82282,-3.39784 5.82046,-4.99549 0,0 -0.66478,1.24822 -0.66478,1.24822 z" id="path12014" style="opacity:1;fill:#84c98a;fill-opacity:1;stroke:none;stroke-width:0.99999994;stroke-linecap:butt;stroke-linejoin:miter;stroke-miterlimit:4;stroke-dasharray:none;stroke-dashoffset:0;stroke-opacity:1" inkscape:connector-curvature="0"/>
        <path d="m 193.3836,278.8929 c -3.09734,2.29531 -6.16976,4.61987 -9.16421,7.04821 -0.42684,0.35319 -1.82499,1.50422 -2.32232,1.93519 -0.21918,0.18994 -0.82802,0.8091 -0.64461,0.58442 0.2392,-0.29303 0.5423,-0.5275 0.81345,-0.79125 0,0 -1.24674,0.66757 -1.24674,0.66757 l 0,0 c 1.26899,-1.31619 2.61529,-2.52702 4.06856,-3.64225 2.99943,-2.42325 6.07829,-4.74054 9.16905,-7.04561 0,0 -0.67318,1.24372 -0.67318,1.24372 z" id="path12016" style="opacity:1;fill:#84c98a;fill-opacity:1;stroke:none;stroke-width:0.99999994;stroke-linecap:butt;stroke-linejoin:miter;stroke-miterlimit:4;stroke-dasharray:none;stroke-dashoffset:0;stroke-opacity:1" inkscape:connector-curvature="0"/>
        <path d="m 194.62799,280.08007 c -3.2776,2.21752 -6.33766,4.70898 -9.27496,7.35496 -0.65054,0.56312 -1.24734,1.18333 -1.87722,1.76834 -0.17125,0.15905 -0.35127,0.3084 -0.52492,0.46483 -0.0648,0.0584 -0.23202,0.25609 -0.19032,0.1795 0.2542,-0.46686 0.51015,-0.93758 0.83302,-1.35987 0.13643,-0.17844 0.3516,-0.27964 0.5274,-0.41946 0,0 -0.67306,1.24378 -0.67306,1.24378 l 0,0 c -0.18026,0.13738 -0.52951,0.6385 -0.54078,0.41214 -0.0405,-0.81531 0.71965,-1.314 1.21662,-1.77795 0.26946,-0.25157 0.53431,-0.50804 0.80146,-0.76206 0.36111,-0.33412 0.72223,-0.66824 1.08334,-1.00236 2.94787,-2.63879 6.02771,-5.10758 9.29392,-7.34485 0,0 -0.6745,1.243 -0.6745,1.243 z" id="path12018" style="opacity:1;fill:#84c98a;fill-opacity:1;stroke:none;stroke-width:0.99999994;stroke-linecap:butt;stroke-linejoin:miter;stroke-miterlimit:4;stroke-dasharray:none;stroke-dashoffset:0;stroke-opacity:1" inkscape:connector-curvature="0"/>
        <path d="m 196.62092,279.45672 c -4.55073,3.40746 -8.78997,7.20419 -13.00833,11.00832 -5.28037,4.9731 1.27377,-1.21532 -2.33306,2.22707 -0.20406,0.19475 0.48923,-0.3357 0.60287,-0.59388 0.0594,-0.1349 -0.10671,-0.27478 -0.16006,-0.41218 0,0 -0.6669,1.24709 -0.6669,1.24709 l 0,0 c -0.14386,-0.0633 -0.51042,-0.0539 -0.43156,-0.18982 0.3088,-0.53228 0.86415,-0.87636 1.30133,-1.30943 0.7991,-0.79159 1.50122,-1.43428 2.34249,-2.22218 4.22385,-3.8029 8.47167,-7.59449 13.03076,-10.99634 0,0 -0.67754,1.24135 -0.67754,1.24135 z" id="path12020" style="opacity:1;fill:#84c98a;fill-opacity:1;stroke:none;stroke-width:0.99999994;stroke-linecap:butt;stroke-linejoin:miter;stroke-miterlimit:4;stroke-dasharray:none;stroke-dashoffset:0;stroke-opacity:1" inkscape:connector-curvature="0"/>
        <path d="m 198.46442,278.81057 c -2.24294,1.7945 -4.36772,3.73322 -6.43968,5.72103 -1.92366,1.8963 -3.70372,3.93005 -5.67292,5.77858 -0.0652,-1.27594 -0.16894,-0.44454 1.48665,-2.02675 0,0 -0.65765,1.252 -0.65765,1.252 l 0,0 c 0.51244,-0.59579 0.59618,-0.45647 -0.14795,-0.46467 -0.26977,0.27569 -0.53513,0.55577 -0.80932,0.82706 -0.18186,0.17994 0.35702,-0.36658 0.53228,-0.55295 0.29971,-0.3187 0.59268,-0.6437 0.89258,-0.96221 1.63754,-1.7392 3.34475,-3.4097 5.02407,-5.10822 2.08144,-1.9818 4.21228,-3.91488 6.45672,-5.7121 0,0 -0.66478,1.24823 -0.66478,1.24823 z" id="path12022" style="opacity:1;fill:#84c98a;fill-opacity:1;stroke:none;stroke-width:0.99999994;stroke-linecap:butt;stroke-linejoin:miter;stroke-miterlimit:4;stroke-dasharray:none;stroke-dashoffset:0;stroke-opacity:1" inkscape:connector-curvature="0"/>
        <path d="m 200.58574,278.45702 c -2.86179,2.56874 -5.70705,5.15684 -8.51739,7.78187 -2.43714,2.30532 -4.82672,4.65501 -7.02181,7.19386 -0.27986,0.33061 -0.15334,0.27324 -0.2133,-0.35804 0,0 -0.64217,1.26001 -0.64217,1.26001 l 0,0 c -0.63742,-0.0541 -0.67193,0.0961 -0.39459,-0.24065 2.75542,-3.24303 5.87198,-6.1518 8.92266,-9.11076 2.81523,-2.62219 5.65379,-5.2209 8.53138,-7.77452 0,0 -0.66478,1.24823 -0.66478,1.24823 z" id="path12024" style="opacity:1;fill:#84c98a;fill-opacity:1;stroke:none;stroke-width:0.99999994;stroke-linecap:butt;stroke-linejoin:miter;stroke-miterlimit:4;stroke-dasharray:none;stroke-dashoffset:0;stroke-opacity:1" inkscape:connector-curvature="0"/>
        <path d="m 199.4966,281.18484 c -1.94654,1.17197 -3.69779,2.65642 -5.23667,4.32427 -2.55001,2.68443 -4.85539,5.58414 -7.21937,8.42994 -0.55788,0.66778 -0.93299,1.33565 -1.92937,1.48747 -0.21386,0.0326 0.29534,-0.31617 0.44301,-0.47426 0,0 1.25514,-0.65162 1.25514,-0.65162 l 0,0 c -0.61669,0.67097 -0.62917,0.78659 -1.76003,1.20639 -0.36544,0.13565 1.51633,-1.34746 0.74321,-0.90284 2.36642,-2.84736 4.66966,-5.7518 7.20913,-8.44952 2.219,-2.25355 4.41472,-4.63835 7.21669,-6.18601 0,0 -0.72174,1.21618 -0.72174,1.21618 z" id="path12026" style="opacity:1;fill:#84c98a;fill-opacity:1;stroke:none;stroke-width:0.99999994;stroke-linecap:butt;stroke-linejoin:miter;stroke-miterlimit:4;stroke-dasharray:none;stroke-dashoffset:0;stroke-opacity:1" inkscape:connector-curvature="0"/>
        <path d="m 198.41287,283.75529 c -2.41461,1.77253 -4.59957,3.8826 -6.60536,6.10313 -1.62374,1.76107 -3.27385,3.50244 -4.8162,5.33648 -0.0215,0.0262 -0.36617,0.5127 -0.23213,-0.17113 0.0224,-0.11436 0.16511,-0.16449 0.24767,-0.24674 0,0 -0.6772,1.24153 -0.6772,1.24153 l 0,0 c -0.10935,0.0627 -0.94674,0.53178 -0.58634,-0.15846 1.5212,-1.85456 3.1957,-3.57935 4.80713,-5.35379 2.70794,-2.79372 5.36909,-5.7126 8.54573,-7.9892 0,0 -0.6833,1.23818 -0.6833,1.23818 z" id="path12028" style="opacity:1;fill:#84c98a;fill-opacity:1;stroke:none;stroke-width:0.99999994;stroke-linecap:butt;stroke-linejoin:miter;stroke-miterlimit:4;stroke-dasharray:none;stroke-dashoffset:0;stroke-opacity:1" inkscape:connector-curvature="0"/>
        <path d="m 194.629,288.36243 c 0.17639,-0.16534 0.621,-0.7197 0.52918,-0.49604 -0.12792,0.31161 -0.43883,0.51153 -0.64492,0.77796 -0.27804,0.35946 -0.54307,0.72888 -0.80687,1.09891 -0.9281,1.30183 -1.7728,2.6521 -2.62119,4.00638 -0.97325,1.57425 -2.0246,3.09314 -3.12477,4.57919 -0.0157,-0.006 -0.0315,-0.0112 -0.0472,-0.0167 0,0 -1.13893,0.83836 -1.13893,0.83836 l 0,0 c -0.017,-0.0455 -0.034,-0.0909 -0.0509,-0.13633 0.29035,-0.43583 0.63781,-0.82567 0.93971,-1.25483 0.76156,-1.0826 1.46248,-2.2076 2.19246,-3.31118 1.61102,-2.582 3.18517,-5.23855 5.41552,-7.34576 0,0 -0.64204,1.26007 -0.64204,1.26007 z" id="path12030" style="opacity:1;fill:#84c98a;fill-opacity:1;stroke:none;stroke-width:0.99999994;stroke-linecap:butt;stroke-linejoin:miter;stroke-miterlimit:4;stroke-dasharray:none;stroke-dashoffset:0;stroke-opacity:1" inkscape:connector-curvature="0"/>
        <path d="m 193.25707,293.62344 c 0.1957,-0.18511 0.45593,-0.79062 0.58708,-0.55533 0.13568,0.2434 -0.3642,0.42191 -0.54172,0.63671 -0.66969,0.81031 -1.2966,1.65095 -1.92141,2.49588 0,0 -1.24019,0.67966 -1.24019,0.67966 l 0,0 c 1.16026,-1.58073 2.32323,-3.16797 3.75828,-4.51699 0,0 -0.64204,1.26007 -0.64204,1.26007 z" id="path12032" style="opacity:1;fill:#84c98a;fill-opacity:1;stroke:none;stroke-width:0.99999994;stroke-linecap:butt;stroke-linejoin:miter;stroke-miterlimit:4;stroke-dasharray:none;stroke-dashoffset:0;stroke-opacity:1" inkscape:connector-curvature="0"/>
        <path d="m 179.98141,278.26128 c -0.9885,0.99295 -2.00501,1.95035 -3.09513,2.82953 -0.20948,0.16476 -0.11295,0.0901 -0.28902,0.22468 0,0 0.67293,-1.24385 0.67293,-1.24385 l 0,0 c 0.17218,-0.13687 0.0775,-0.0611 0.28357,-0.22761 0.44806,-0.36912 0.88796,-0.74626 1.31356,-1.14131 0.14105,-0.13092 0.5329,-0.5521 0.41966,-0.3965 -0.16132,0.22168 -0.37709,0.39807 -0.56564,0.5971 0,0 1.26007,-0.64204 1.26007,-0.64204 z" id="path12034" style="opacity:1;fill:#84c98a;fill-opacity:1;stroke:none;stroke-width:0.99999994;stroke-linecap:butt;stroke-linejoin:miter;stroke-miterlimit:4;stroke-dasharray:none;stroke-dashoffset:0;stroke-opacity:1" inkscape:connector-curvature="0"/>
        <path d="m 177.94467,279.23736 c -0.59795,0.59795 -1.1959,1.19591 -1.79386,1.79386 -0.0753,0.0753 -0.30273,0.29948 -0.22584,0.22584 0.28111,-0.26922 0.55902,-0.54175 0.83854,-0.81263 0,0 -1.2185,0.71782 -1.2185,0.71782 l 0,0 c 1.0922,-1.2453 0.65667,-0.79994 1.24784,-1.3911 0.189,-0.189 0.75601,-0.75601 0.56701,-0.56701 -0.22509,0.22509 -0.45017,0.45017 -0.67526,0.67526 0,0 1.26007,-0.64204 1.26007,-0.64204 z" id="path12036" style="opacity:1;fill:#84c98a;fill-opacity:1;stroke:none;stroke-width:0.99999994;stroke-linecap:butt;stroke-linejoin:miter;stroke-miterlimit:4;stroke-dasharray:none;stroke-dashoffset:0;stroke-opacity:1" inkscape:connector-curvature="0"/>
        <path d="m 183.30458,294.38122 c 0.34995,-0.92077 0.1004,-0.38581 0.86843,-1.54336 0,0 1.23631,-0.68668 1.23631,-0.68668 l 0,0 c -0.79471,1.09503 -0.51204,0.59861 -0.93379,1.43702 0,0 -1.17095,0.79302 -1.17095,0.79302 z" id="path12038" style="opacity:1;fill:#84c98a;fill-opacity:1;stroke:none;stroke-width:0.99999994;stroke-linecap:butt;stroke-linejoin:miter;stroke-miterlimit:4;stroke-dasharray:none;stroke-dashoffset:0;stroke-opacity:1" inkscape:connector-curvature="0"/>
      </g>
    </g>
    <g id="g12040" transform="rotate(-180,506.62865,389.13995)">
      <path d="M 188.83612,276.03951 A 230,230 0 0 1 358.43305,152.76666" id="path12042" style="opacity:0.4;fill:none;fill-opacity:1;stroke:#84c98a;stroke-width:4;stroke-linecap:butt;stroke-linejoin:miter;stroke-miterlimit:4;stroke-dasharray:none;stroke-dashoffset:0;stroke-opacity:1" sodipodi:cx="394" sodipodi:cy="380" sodipodi:end="4.557127" sodipodi:open="true" sodipodi:rx="230" sodipodi:ry="230" sodipodi:start="3.6106012" sodipodi:type="arc"/>
      <g id="g12044" style="opacity:0.4;stroke:#84c98a" transform="rotate(30,188.73205,278.41923)">
        <path d="m 173,277 30,0 -15,25.98076 z" id="path12046" style="opacity:1;fill:none;fill-opacity:1;fill-rule:evenodd;stroke:#84c98a;stroke-width:2.5;stroke-linecap:butt;stroke-linejoin:miter;stroke-miterlimit:4;stroke-dasharray:none;stroke-dashoffset:0;stroke-opacity:1" inkscape:connector-curvature="0"/>
      </g>
      <g id="g12048" style="opacity:0.4;fill:#84c98a" transform="rotate(30,188.73205,278.41923)">
        <path d="m 177.35067,283.06478 c 0.99735,-1.68112 2.42149,-3.00943 3.79463,-4.37725 0.67755,-0.62516 0.35093,-0.35967 0.9639,-0.8157 0,0 -0.673,1.24381 -0.673,1.24381 l 0,0 c -0.58339,0.476 -0.2679,0.20336 -0.93515,0.83083 0.10771,-0.11298 0.42899,-0.45365 0.32314,-0.33893 -0.80848,0.87618 -1.63158,1.72275 -2.2464,2.75426 0,0 -1.22712,0.70298 -1.22712,0.70298 z" id="path12050" style="opacity:1;fill:#84c98a;fill-opacity:1;stroke:none;stroke-width:0.99999994;stroke-linecap:butt;stroke-linejoin:miter;stroke-miterlimit:4;stroke-dasharray:none;stroke-dashoffset:0;stroke-opacity:1" inkscape:connector-curvature="0"/>
        <path d="m 178.47943,283.03431 c 1.55606,-1.43459 2.87593,-3.1474 4.55922,-4.43799 0.54118,0.3604 -0.11152,0.88515 -0.39133,1.20697 -0.32867,0.35603 -0.62354,0.73862 -0.94813,1.09825 -0.11338,0.12396 -0.22284,0.25163 -0.34015,0.37188 -0.42755,0.43823 -0.85916,0.87253 -1.2942,1.30333 -0.1007,0.0997 -0.20762,0.19294 -0.31277,0.28793 -0.0844,0.0763 -0.33553,0.30716 -0.25598,0.22581 1.12137,-1.1467 0.92784,-0.93382 0.61298,-0.57248 -0.11287,0.10425 -0.1677,0.26561 -0.27757,0.36868 -0.34947,0.17183 -0.67385,0.40893 -1.04842,0.51548 -0.12894,0.0367 0.17777,-0.201 0.27336,-0.29499 0.48421,-0.47612 0.96659,-0.95445 1.46566,-1.41497 0.76129,-0.70246 1.60141,-1.34268 2.40597,-1.99412 0.71413,-0.57731 1.43031,-1.15209 2.14782,-1.7252 0.23996,-0.19167 0.91565,-0.81808 0.69797,-0.60143 -0.27865,0.27733 -0.55959,0.55234 -0.83939,0.82851 0.0316,0.0758 0.11664,0.14828 0.0949,0.22752 -0.008,0.0309 -0.453,0.27788 -0.50514,0.31466 -0.65572,0.46255 -1.23325,1.02499 -1.81083,1.57777 -0.65672,0.66929 -1.48234,1.65761 -2.53629,2.89245 -0.0416,-0.0263 -0.58107,0.76193 -0.619,0.73867 -0.22826,-0.14002 -0.15151,-0.20273 -0.0814,-0.34439 0.36544,-0.22287 0.17595,-0.0891 0.558,-0.41563 0,0 -0.67232,1.24418 -0.67232,1.24418 l 0,0 c -0.42123,0.30281 -0.21897,0.17573 -0.59982,0.39211 -1.0149,0.11022 0.0206,-0.73544 0.16489,-0.95276 1.41206,-1.66362 2.85065,-3.30693 4.4356,-4.81077 0.32352,-0.29929 1.97478,-1.93452 2.51672,-1.76621 0.12514,0.0389 0.2047,0.16365 0.30705,0.24547 -0.35516,0.36104 -0.70504,0.72734 -1.06548,1.08311 -0.87133,0.86006 -1.96984,1.48051 -2.86106,2.31857 -1.0345,0.84515 -0.70655,0.56911 -1.70491,1.41609 -0.22943,0.19464 -0.40916,0.4699 -0.68693,0.5855 -0.20281,0.0844 0.30945,-0.31311 0.44597,-0.48521 0.0821,-0.1035 -0.18798,0.18565 -0.28197,0.27847 -0.46267,0.30528 -0.92534,0.61056 -1.38801,0.91584 0.0103,-0.17622 0.12527,-0.32312 0.21883,-0.46806 0.45427,-0.6133 0.14299,-0.21145 1.28838,-1.34994 0.17998,-0.17889 0.72795,-0.70669 0.55538,-0.52065 -0.19443,0.20963 -0.38699,0.42246 -0.60145,0.61156 -0.12663,0.11166 0.22457,-0.25216 0.33685,-0.37824 0.34641,-0.34643 0.62398,-0.73088 0.95288,-1.08913 0.13052,-0.14562 0.48109,-0.64611 0.6202,-0.71165 0.16168,-0.0762 0.24585,0.0168 0.35409,0.093 -0.94669,0.80038 -1.4663,1.40782 -2.63011,2.54999 0,0 -1.26008,0.64204 -1.26008,0.64204 z" id="path12052" style="opacity:1;fill:#84c98a;fill-opacity:1;stroke:none;stroke-width:0.99999994;stroke-linecap:butt;stroke-linejoin:miter;stroke-miterlimit:4;stroke-dasharray:none;stroke-dashoffset:0;stroke-opacity:1" inkscape:connector-curvature="0"/>
        <path d="m 186.00848,279.2503 c -1.99867,1.96501 -4.03531,3.89146 -6.05969,5.83004 0.12804,-0.1221 0.50804,-0.49259 0.38413,-0.3663 -0.42551,0.43367 -0.85584,0.86263 -1.28907,1.28858 -0.47141,0.46349 0.61578,-1.16086 0.67879,-1.25535 0.15316,-0.2297 0.41704,-0.36191 0.62334,-0.54539 0,0 -0.65858,1.25151 -0.65858,1.25151 l 0,0 c -0.12679,0.10946 -0.25205,0.22071 -0.38035,0.3284 -0.0849,0.0713 -0.29147,0.31438 -0.25917,0.20835 0.12436,-0.40813 0.35358,-0.77694 0.54812,-1.15666 0.0195,-0.038 0.1209,-0.12081 0.0908,-0.0905 -0.30349,0.30632 -2.84803,2.86798 0.90946,-0.91996 2.02541,-1.93955 4.05405,-3.87577 6.07096,-5.82418 0,0 -0.65876,1.25142 -0.65876,1.25142 z" id="path12054" style="opacity:1;fill:#84c98a;fill-opacity:1;stroke:none;stroke-width:0.99999994;stroke-linecap:butt;stroke-linejoin:miter;stroke-miterlimit:4;stroke-dasharray:none;stroke-dashoffset:0;stroke-opacity:1" inkscape:connector-curvature="0"/>
        <path d="m 187.80627,278.80555 c -2.10715,1.69509 -4.10922,3.51527 -6.10999,5.33317 -0.65664,0.60121 -0.76948,0.70294 -1.37411,1.2617 -0.13979,0.12919 -0.55125,0.52487 -0.41864,0.38833 0.23,-0.23683 0.47082,-0.46296 0.71104,-0.68941 0.0346,-0.0326 -0.0589,0.13991 -0.0939,0.10762 -0.0737,-0.068 -0.0652,-0.18971 -0.0978,-0.28457 0,0 -0.76608,1.18875 -0.76608,1.18875 l 0,0 c -0.12227,-0.0691 -0.27726,-0.0992 -0.36679,-0.20743 -0.14822,-0.17918 2.76781,-2.73398 3.06044,-3.0188 2.00526,-1.8182 4.00724,-3.64727 6.13909,-5.31755 0,0 -0.6833,1.23819 -0.6833,1.23819 z" id="path12056" style="opacity:1;fill:#84c98a;fill-opacity:1;stroke:none;stroke-width:0.99999994;stroke-linecap:butt;stroke-linejoin:miter;stroke-miterlimit:4;stroke-dasharray:none;stroke-dashoffset:0;stroke-opacity:1" inkscape:connector-curvature="0"/>
        <path d="m 189.31183,279.1205 c -2.31742,1.8922 -4.59646,3.83073 -6.88435,5.75838 -0.98941,0.83793 -1.99923,1.65062 -2.93142,2.55289 0,0 0.64833,-1.25684 0.64833,-1.25684 l 0,0 c 0.94872,-0.88687 1.95551,-1.70635 2.94654,-2.54498 2.28895,-1.92775 4.56749,-3.86845 6.89067,-5.75501 0,0 -0.66977,1.24556 -0.66977,1.24556 z" id="path12058" style="opacity:1;fill:#84c98a;fill-opacity:1;stroke:none;stroke-width:0.99999994;stroke-linecap:butt;stroke-linejoin:miter;stroke-miterlimit:4;stroke-dasharray:none;stroke-dashoffset:0;stroke-opacity:1" inkscape:connector-curvature="0"/>
        <path d="m 190.33269,279.16412 c -2.00007,1.59244 -3.91697,3.28401 -5.81026,5.00088 -0.95477,0.92021 -1.77942,1.81631 -2.78287,3.05932 -0.0575,0.35765 -1.44638,1.11729 -1.33739,0.85322 0.24973,-0.60503 0.94598,-0.90489 1.41897,-1.35734 0,0 -0.65728,1.2522 -0.65728,1.2522 l 0,0 c 1.73439,-1.88798 -1.82323,1.45124 -0.66959,-0.0778 1.41079,-1.79389 3.0373,-3.40622 4.68274,-4.98319 1.89804,-1.71389 3.82282,-3.39784 5.82046,-4.99549 0,0 -0.66478,1.24822 -0.66478,1.24822 z" id="path12060" style="opacity:1;fill:#84c98a;fill-opacity:1;stroke:none;stroke-width:0.99999994;stroke-linecap:butt;stroke-linejoin:miter;stroke-miterlimit:4;stroke-dasharray:none;stroke-dashoffset:0;stroke-opacity:1" inkscape:connector-curvature="0"/>
        <path d="m 193.3836,278.8929 c -3.09734,2.29531 -6.16976,4.61987 -9.16421,7.04821 -0.42684,0.35319 -1.82499,1.50422 -2.32232,1.93519 -0.21918,0.18994 -0.82802,0.8091 -0.64461,0.58442 0.2392,-0.29303 0.5423,-0.5275 0.81345,-0.79125 0,0 -1.24674,0.66757 -1.24674,0.66757 l 0,0 c 1.26899,-1.31619 2.61529,-2.52702 4.06856,-3.64225 2.99943,-2.42325 6.07829,-4.74054 9.16905,-7.04561 0,0 -0.67318,1.24372 -0.67318,1.24372 z" id="path12062" style="opacity:1;fill:#84c98a;fill-opacity:1;stroke:none;stroke-width:0.99999994;stroke-linecap:butt;stroke-linejoin:miter;stroke-miterlimit:4;stroke-dasharray:none;stroke-dashoffset:0;stroke-opacity:1" inkscape:connector-curvature="0"/>
        <path d="m 194.62799,280.08007 c -3.2776,2.21752 -6.33766,4.70898 -9.27496,7.35496 -0.65054,0.56312 -1.24734,1.18333 -1.87722,1.76834 -0.17125,0.15905 -0.35127,0.3084 -0.52492,0.46483 -0.0648,0.0584 -0.23202,0.25609 -0.19032,0.1795 0.2542,-0.46686 0.51015,-0.93758 0.83302,-1.35987 0.13643,-0.17844 0.3516,-0.27964 0.5274,-0.41946 0,0 -0.67306,1.24378 -0.67306,1.24378 l 0,0 c -0.18026,0.13738 -0.52951,0.6385 -0.54078,0.41214 -0.0405,-0.81531 0.71965,-1.314 1.21662,-1.77795 0.26946,-0.25157 0.53431,-0.50804 0.80146,-0.76206 0.36111,-0.33412 0.72223,-0.66824 1.08334,-1.00236 2.94787,-2.63879 6.02771,-5.10758 9.29392,-7.34485 0,0 -0.6745,1.243 -0.6745,1.243 z" id="path12064" style="opacity:1;fill:#84c98a;fill-opacity:1;stroke:none;stroke-width:0.99999994;stroke-linecap:butt;stroke-linejoin:miter;stroke-miterlimit:4;stroke-dasharray:none;stroke-dashoffset:0;stroke-opacity:1" inkscape:connector-curvature="0"/>
        <path d="m 196.62092,279.45672 c -4.55073,3.40746 -8.78997,7.20419 -13.00833,11.00832 -5.28037,4.9731 1.27377,-1.21532 -2.33306,2.22707 -0.20406,0.19475 0.48923,-0.3357 0.60287,-0.59388 0.0594,-0.1349 -0.10671,-0.27478 -0.16006,-0.41218 0,0 -0.6669,1.24709 -0.6669,1.24709 l 0,0 c -0.14386,-0.0633 -0.51042,-0.0539 -0.43156,-0.18982 0.3088,-0.53228 0.86415,-0.87636 1.30133,-1.30943 0.7991,-0.79159 1.50122,-1.43428 2.34249,-2.22218 4.22385,-3.8029 8.47167,-7.59449 13.03076,-10.99634 0,0 -0.67754,1.24135 -0.67754,1.24135 z" id="path12066" style="opacity:1;fill:#84c98a;fill-opacity:1;stroke:none;stroke-width:0.99999994;stroke-linecap:butt;stroke-linejoin:miter;stroke-miterlimit:4;stroke-dasharray:none;stroke-dashoffset:0;stroke-opacity:1" inkscape:connector-curvature="0"/>
        <path d="m 198.46442,278.81057 c -2.24294,1.7945 -4.36772,3.73322 -6.43968,5.72103 -1.92366,1.8963 -3.70372,3.93005 -5.67292,5.77858 -0.0652,-1.27594 -0.16894,-0.44454 1.48665,-2.02675 0,0 -0.65765,1.252 -0.65765,1.252 l 0,0 c 0.51244,-0.59579 0.59618,-0.45647 -0.14795,-0.46467 -0.26977,0.27569 -0.53513,0.55577 -0.80932,0.82706 -0.18186,0.17994 0.35702,-0.36658 0.53228,-0.55295 0.29971,-0.3187 0.59268,-0.6437 0.89258,-0.96221 1.63754,-1.7392 3.34475,-3.4097 5.02407,-5.10822 2.08144,-1.9818 4.21228,-3.91488 6.45672,-5.7121 0,0 -0.66478,1.24823 -0.66478,1.24823 z" id="path12068" style="opacity:1;fill:#84c98a;fill-opacity:1;stroke:none;stroke-width:0.99999994;stroke-linecap:butt;stroke-linejoin:miter;stroke-miterlimit:4;stroke-dasharray:none;stroke-dashoffset:0;stroke-opacity:1" inkscape:connector-curvature="0"/>
        <path d="m 200.58574,278.45702 c -2.86179,2.56874 -5.70705,5.15684 -8.51739,7.78187 -2.43714,2.30532 -4.82672,4.65501 -7.02181,7.19386 -0.27986,0.33061 -0.15334,0.27324 -0.2133,-0.35804 0,0 -0.64217,1.26001 -0.64217,1.26001 l 0,0 c -0.63742,-0.0541 -0.67193,0.0961 -0.39459,-0.24065 2.75542,-3.24303 5.87198,-6.1518 8.92266,-9.11076 2.81523,-2.62219 5.65379,-5.2209 8.53138,-7.77452 0,0 -0.66478,1.24823 -0.66478,1.24823 z" id="path12070" style="opacity:1;fill:#84c98a;fill-opacity:1;stroke:none;stroke-width:0.99999994;stroke-linecap:butt;stroke-linejoin:miter;stroke-miterlimit:4;stroke-dasharray:none;stroke-dashoffset:0;stroke-opacity:1" inkscape:connector-curvature="0"/>
        <path d="m 199.4966,281.18484 c -1.94654,1.17197 -3.69779,2.65642 -5.23667,4.32427 -2.55001,2.68443 -4.85539,5.58414 -7.21937,8.42994 -0.55788,0.66778 -0.93299,1.33565 -1.92937,1.48747 -0.21386,0.0326 0.29534,-0.31617 0.44301,-0.47426 0,0 1.25514,-0.65162 1.25514,-0.65162 l 0,0 c -0.61669,0.67097 -0.62917,0.78659 -1.76003,1.20639 -0.36544,0.13565 1.51633,-1.34746 0.74321,-0.90284 2.36642,-2.84736 4.66966,-5.7518 7.20913,-8.44952 2.219,-2.25355 4.41472,-4.63835 7.21669,-6.18601 0,0 -0.72174,1.21618 -0.72174,1.21618 z" id="path12072" style="opacity:1;fill:#84c98a;fill-opacity:1;stroke:none;stroke-width:0.99999994;stroke-linecap:butt;stroke-linejoin:miter;stroke-miterlimit:4;stroke-dasharray:none;stroke-dashoffset:0;stroke-opacity:1" inkscape:connector-curvature="0"/>
        <path d="m 198.41287,283.75529 c -2.41461,1.77253 -4.59957,3.8826 -6.60536,6.10313 -1.62374,1.76107 -3.27385,3.50244 -4.8162,5.33648 -0.0215,0.0262 -0.36617,0.5127 -0.23213,-0.17113 0.0224,-0.11436 0.16511,-0.16449 0.24767,-0.24674 0,0 -0.6772,1.24153 -0.6772,1.24153 l 0,0 c -0.10935,0.0627 -0.94674,0.53178 -0.58634,-0.15846 1.5212,-1.85456 3.1957,-3.57935 4.80713,-5.35379 2.70794,-2.79372 5.36909,-5.7126 8.54573,-7.9892 0,0 -0.6833,1.23818 -0.6833,1.23818 z" id="path12074" style="opacity:1;fill:#84c98a;fill-opacity:1;stroke:none;stroke-width:0.99999994;stroke-linecap:butt;stroke-linejoin:miter;stroke-miterlimit:4;stroke-dasharray:none;stroke-dashoffset:0;stroke-opacity:1" inkscape:connector-curvature="0"/>
        <path d="m 194.629,288.36243 c 0.17639,-0.16534 0.621,-0.7197 0.52918,-0.49604 -0.12792,0.31161 -0.43883,0.51153 -0.64492,0.77796 -0.27804,0.35946 -0.54307,0.72888 -0.80687,1.09891 -0.9281,1.30183 -1.7728,2.6521 -2.62119,4.00638 -0.97325,1.57425 -2.0246,3.09314 -3.12477,4.57919 -0.0157,-0.006 -0.0315,-0.0112 -0.0472,-0.0167 0,0 -1.13893,0.83836 -1.13893,0.83836 l 0,0 c -0.017,-0.0455 -0.034,-0.0909 -0.0509,-0.13633 0.29035,-0.43583 0.63781,-0.82567 0.93971,-1.25483 0.76156,-1.0826 1.46248,-2.2076 2.19246,-3.31118 1.61102,-2.582 3.18517,-5.23855 5.41552,-7.34576 0,0 -0.64204,1.26007 -0.64204,1.26007 z" id="path12076" style="opacity:1;fill:#84c98a;fill-opacity:1;stroke:none;stroke-width:0.99999994;stroke-linecap:butt;stroke-linejoin:miter;stroke-miterlimit:4;stroke-dasharray:none;stroke-dashoffset:0;stroke-opacity:1" inkscape:connector-curvature="0"/>
        <path d="m 193.25707,293.62344 c 0.1957,-0.18511 0.45593,-0.79062 0.58708,-0.55533 0.13568,0.2434 -0.3642,0.42191 -0.54172,0.63671 -0.66969,0.81031 -1.2966,1.65095 -1.92141,2.49588 0,0 -1.24019,0.67966 -1.24019,0.67966 l 0,0 c 1.16026,-1.58073 2.32323,-3.16797 3.75828,-4.51699 0,0 -0.64204,1.26007 -0.64204,1.26007 z" id="path12078" style="opacity:1;fill:#84c98a;fill-opacity:1;stroke:none;stroke-width:0.99999994;stroke-linecap:butt;stroke-linejoin:miter;stroke-miterlimit:4;stroke-dasharray:none;stroke-dashoffset:0;stroke-opacity:1" inkscape:connector-curvature="0"/>
        <path d="m 179.98141,278.26128 c -0.9885,0.99295 -2.00501,1.95035 -3.09513,2.82953 -0.20948,0.16476 -0.11295,0.0901 -0.28902,0.22468 0,0 0.67293,-1.24385 0.67293,-1.24385 l 0,0 c 0.17218,-0.13687 0.0775,-0.0611 0.28357,-0.22761 0.44806,-0.36912 0.88796,-0.74626 1.31356,-1.14131 0.14105,-0.13092 0.5329,-0.5521 0.41966,-0.3965 -0.16132,0.22168 -0.37709,0.39807 -0.56564,0.5971 0,0 1.26007,-0.64204 1.26007,-0.64204 z" id="path12080" style="opacity:1;fill:#84c98a;fill-opacity:1;stroke:none;stroke-width:0.99999994;stroke-linecap:butt;stroke-linejoin:miter;stroke-miterlimit:4;stroke-dasharray:none;stroke-dashoffset:0;stroke-opacity:1" inkscape:connector-curvature="0"/>
        <path d="m 177.94467,279.23736 c -0.59795,0.59795 -1.1959,1.19591 -1.79386,1.79386 -0.0753,0.0753 -0.30273,0.29948 -0.22584,0.22584 0.28111,-0.26922 0.55902,-0.54175 0.83854,-0.81263 0,0 -1.2185,0.71782 -1.2185,0.71782 l 0,0 c 1.0922,-1.2453 0.65667,-0.79994 1.24784,-1.3911 0.189,-0.189 0.75601,-0.75601 0.56701,-0.56701 -0.22509,0.22509 -0.45017,0.45017 -0.67526,0.67526 0,0 1.26007,-0.64204 1.26007,-0.64204 z" id="path12082" style="opacity:1;fill:#84c98a;fill-opacity:1;stroke:none;stroke-width:0.99999994;stroke-linecap:butt;stroke-linejoin:miter;stroke-miterlimit:4;stroke-dasharray:none;stroke-dashoffset:0;stroke-opacity:1" inkscape:connector-curvature="0"/>
        <path d="m 183.30458,294.38122 c 0.34995,-0.92077 0.1004,-0.38581 0.86843,-1.54336 0,0 1.23631,-0.68668 1.23631,-0.68668 l 0,0 c -0.79471,1.09503 -0.51204,0.59861 -0.93379,1.43702 0,0 -1.17095,0.79302 -1.17095,0.79302 z" id="path12084" style="opacity:1;fill:#84c98a;fill-opacity:1;stroke:none;stroke-width:0.99999994;stroke-linecap:butt;stroke-linejoin:miter;stroke-miterlimit:4;stroke-dasharray:none;stroke-dashoffset:0;stroke-opacity:1" inkscape:connector-curvature="0"/>
      </g>
    </g>
  </g>
</svg>